<?xml version="1.0" encoding="utf-8"?>
<!-- Generator: Adobe Illustrator 17.1.0, SVG Export Plug-In . SVG Version: 6.00 Build 0)  -->
<!DOCTYPE svg PUBLIC "-//W3C//DTD SVG 1.1 Basic//EN" "http://www.w3.org/Graphics/SVG/1.1/DTD/svg11-basic.dtd">
<svg version="1.1" baseProfile="basic" id="Layer_1"
	 xmlns="http://www.w3.org/2000/svg" xmlns:xlink="http://www.w3.org/1999/xlink" x="0px" y="0px" viewBox="0 0 15 15"
	 xml:space="preserve">
<g>
	<path fill="#FFC627" d="M14.2,0H0.8C0.4,0,0,0.4,0,0.8v13.3C0,14.6,0.4,15,0.8,15H8V9.2h-2V6.9h2V5.3c0-1.9,1.2-3,2.9-3
		c0.8,0,1.5,0.1,1.7,0.1v2l-1.2,0c-0.9,0-1.1,0.4-1.1,1.1v1.4h2.2l-0.3,2.3h-1.9V15h3.8c0.5,0,0.8-0.4,0.8-0.8V0.8
		C15,0.4,14.6,0,14.2,0z"/>
</g>
</svg>
