<?xml version="1.0" encoding="utf-8"?>
<!-- Generator: Adobe Illustrator 18.1.1, SVG Export Plug-In . SVG Version: 6.00 Build 0)  -->
<!DOCTYPE svg PUBLIC "-//W3C//DTD SVG 1.1//EN" "http://www.w3.org/Graphics/SVG/1.1/DTD/svg11.dtd">
<svg version="1.1" id="Layer_1" xmlns="http://www.w3.org/2000/svg" xmlns:xlink="http://www.w3.org/1999/xlink" x="0px" y="0px"
	 viewBox="0 88.9 612 614.2" enable-background="new 0 88.9 612 614.2" xml:space="preserve">
<g>
	<path fill="#333E48" d="M205.7,387.8c16.4-20.5,24.6-45,24.6-57.3c0-65.5-36.9-163.8-110.6-163.8c-20.5,0-49.1,12.3-61.4,28.7
		c-12.3,16.4-16.4,40.9-16.4,65.5c0,57.3,28.7,147.4,106.5,147.4C168.8,408.3,189.3,400.1,205.7,387.8z"/>
	<path fill="#333E48" d="M119.7,473.8c0-12.3,4.1-20.5,8.2-32.8c-8.2,0-20.5,0-28.7,0c-40.9,0-73.7-16.4-98.3-36.9v159.7
		c40.9-32.8,110.6-24.6,143.3-28.7C132,518.8,119.7,502.5,119.7,473.8z"/>
	<path fill="#333E48" d="M500.5,293.6v114.7h-45V293.6H340.8v-49.1h114.7V133.9h45v110.6h110.6V142.1c0-40.9-20.5-53.2-53.2-53.2
		H62.4c-32.8,0-61.4,12.3-61.4,53.2v45C5,183.1,5,179,9.1,179c49.1-40.9,106.5-49.1,151.5-49.1H349l-49.1,40.9c0,0-45,0-53.2,0
		c20.5,20.5,53.2,53.2,53.2,114.7c0,65.5-36.9,98.3-73.7,126.9c-12.3,12.3-24.6,24.6-24.6,45c0,16.4,16.4,28.7,24.6,36.9l32.8,24.6
		c40.9,32.8,90.1,69.6,90.1,131c0,16.4-4.1,32.8-8.2,45h-53.2c0-4.1,4.1-8.2,4.1-16.4c0-45-49.1-69.6-114.7-118.7
		c-8.2,0-12.3,0-20.5,0s-57.3,0-94.2,12.3c-12.3,4.1-45,16.4-61.4,40.9v49.1c0,32.8,28.7,40.9,61.4,40.9h495.5
		c32.8,0,53.2-8.2,53.2-40.9V293.6H500.5z"/>
</g>
</svg>
