<?xml version="1.0" encoding="utf-8"?>
<!-- Generator: Adobe Illustrator 17.1.0, SVG Export Plug-In . SVG Version: 6.00 Build 0)  -->
<!DOCTYPE svg PUBLIC "-//W3C//DTD SVG 1.1 Basic//EN" "http://www.w3.org/Graphics/SVG/1.1/DTD/svg11-basic.dtd">
<svg version="1.1" baseProfile="basic" id="Layer_1"
	 xmlns="http://www.w3.org/2000/svg" xmlns:xlink="http://www.w3.org/1999/xlink" x="0px" y="0px" viewBox="0 0 48 50"
	 xml:space="preserve">
<g>
	<g>
		<g>
			<path fill="#FFA227" d="M48,42.2c0,4.3-3.6,7.8-8,7.8H8c-4.4,0-8-3.5-8-7.8V14.2c0-4.3,3.6-7.8,8-7.8h32c4.4,0,8,3.5,8,7.8V42.2z
				"/>
			<path fill="#333E48" d="M40,7.4c3.9,0,7,3.1,7,6.9v27.9c0,3.8-3.1,6.9-7,6.9H8c-3.9,0-7-3.1-7-6.9V14.2c0-3.8,3.1-6.9,7-6.9H40
				 M40,6.4H8c-4.4,0-8,3.5-8,7.8v27.9C0,46.5,3.6,50,8,50h32c4.4,0,8-3.5,8-7.8V14.2C48,9.9,44.4,6.4,40,6.4L40,6.4z"/>
		</g>
		<g>
			<path fill="#FFC627" d="M48,35.8c0,4.3-3.6,7.8-8,7.8H8c-4.4,0-8-3.5-8-7.8V7.8C0,3.5,3.6,0,8,0h32c4.4,0,8,3.5,8,7.8V35.8z"/>
			<path fill="#333E48" d="M40,1c3.9,0,7,3.1,7,6.9v27.9c0,3.8-3.1,6.9-7,6.9H8c-3.9,0-7-3.1-7-6.9V7.8C1,4.1,4.1,1,8,1H40 M40,0H8
				C3.6,0,0,3.5,0,7.8v27.9c0,4.3,3.6,7.8,8,7.8h32c4.4,0,8-3.5,8-7.8V7.8C48,3.5,44.4,0,40,0L40,0z"/>
		</g>
	</g>
	<g>
		<g>
			<g>
				<polygon fill="#D4D5D7" points="10,6.3 10.8,12.2 20.6,21.8 23.2,19.2 13.5,9.7 10,6.3 				"/>
				<path fill="#333E48" d="M20.6,22.5L10.3,12.4l-1-7.5l14.6,14.3L20.6,22.5z M11.2,12l9.3,9.2l1.9-1.9L10.7,7.6L11.2,12z"/>
			</g>
			<g>
				<g>
					<path fill="#93989E" d="M14,16.3l-1-0.9c-1-1-1-2.6,0-3.6c1-1,2.7-1,3.7,0l1,0.9L14,16.3z"/>
					<path fill="#333E48" d="M14,17l-1.3-1.3c-0.6-0.6-0.9-1.3-0.9-2.1c0-0.8,0.3-1.6,0.9-2.1c1.2-1.1,3.2-1.1,4.4,0l1.3,1.3L14,17z
						 M14.8,11.5c-0.6,0-1.1,0.2-1.5,0.6c-0.4,0.4-0.6,0.9-0.6,1.5s0.2,1.1,0.6,1.5l0.6,0.6l3-2.9l-0.6-0.6
						C15.9,11.7,15.4,11.5,14.8,11.5z"/>
				</g>
				<g>
					<polygon fill="#93989E" points="16.2,18.6 33.8,35.7 37.4,32.1 19.9,15 					"/>
					<path fill="#333E48" d="M33.8,36.4L15.5,18.6l4.4-4.3l18.2,17.9L33.8,36.4z M16.9,18.6L33.8,35l3-2.9L19.9,15.7L16.9,18.6z"/>
				</g>
				<g>
					<polygon fill="#D4D5D7" points="33.8,35.7 35.3,37.3 39,33.7 37.4,32.1 					"/>
					<path fill="#333E48" d="M35.3,37.9l-2.2-2.2l4.4-4.3l2.2,2.2L35.3,37.9z M34.5,35.7l0.8,0.8l3-2.9l-0.8-0.8L34.5,35.7z"/>
				</g>
				<g>
					<polygon fill="#D4D5D7" points="14,16.3 16.2,18.5 19.9,14.9 17.6,12.7 					"/>
					<path fill="#333E48" d="M16.2,19.2l-3-2.9l4.4-4.3l3,2.9L16.2,19.2z M14.7,16.3l1.6,1.5l3-2.9l-1.6-1.5L14.7,16.3z"/>
				</g>
				<path fill="#FFF3D7" stroke="#333E48" stroke-width="0.9901" stroke-miterlimit="10" d="M18.2,16.9"/>
			</g>
		</g>
		<g>
			<g>
				<g>
					<path fill="#FFF3D7" d="M12.2,30.6l-1.6,1.6c-1,1-1,2.6,0,3.6c1,1,2.7,1,3.7,0l1.6-1.6L12.2,30.6z"/>
					<path fill="#333E48" d="M12.4,37.1c-0.8,0-1.6-0.3-2.2-0.9c-0.6-0.6-0.9-1.3-0.9-2.1s0.3-1.6,0.9-2.1l2-2l4.4,4.3l-2,2
						C14,36.8,13.3,37.1,12.4,37.1z M12.2,31.3L11,32.6c-0.8,0.8-0.8,2.1,0,2.9c0.8,0.8,2.2,0.8,3,0l1.3-1.3L12.2,31.3z"/>
				</g>
			</g>
			<g>
				<polygon fill="#93989E" points="39.1,7.9 36.3,14.3 21.7,28.6 18,25 32.5,10.8 39.1,7.9 				"/>
				<path fill="#333E48" d="M21.7,29.3L17.3,25l15-14.6l7.8-3.5l-3.5,7.7L21.7,29.3z M18.7,25l3,2.9L35.8,14l2.3-5.2l-5.4,2.4
					L18.7,25z"/>
			</g>
			<g>
				<polygon fill="#FFC627" points="35.9,14.6 18.2,32 14.5,28.4 32.2,11 				"/>
				<path fill="#333E48" d="M18.2,32.7l-4.4-4.3l18.5-18.1l4.4,4.3L18.2,32.7z M15.2,28.4l3,2.9l17-16.7l-3-2.9L15.2,28.4z"/>
			</g>
			<g>
				<polygon fill="#D4D5D7" points="18.1,32.1 15.9,34.2 12.2,30.6 14.5,28.5 				"/>
				<path fill="#333E48" d="M15.9,34.9l-4.4-4.3l2.9-2.9l4.4,4.3L15.9,34.9z M12.9,30.6l3,2.9l1.5-1.5l-3-2.9L12.9,30.6z"/>
			</g>
			<g>
				<line fill="#FFF3D7" x1="16.3" y1="30.3" x2="33.9" y2="12.9"/>
				<polygon fill="#333E48" points="16.6,30.6 15.9,29.9 33.6,12.6 34.3,13.3 				"/>
			</g>
		</g>
	</g>
</g>
</svg>
