<?xml version="1.0" encoding="utf-8"?>
<!-- Generator: Adobe Illustrator 17.1.0, SVG Export Plug-In . SVG Version: 6.00 Build 0)  -->
<!DOCTYPE svg PUBLIC "-//W3C//DTD SVG 1.1 Basic//EN" "http://www.w3.org/Graphics/SVG/1.1/DTD/svg11-basic.dtd">
<svg version="1.1" baseProfile="basic" id="Layer_1"
	 xmlns="http://www.w3.org/2000/svg" xmlns:xlink="http://www.w3.org/1999/xlink" x="0px" y="0px" viewBox="0 0 48 50"
	 xml:space="preserve">
<g>
	<g>
		<g>
			<path fill="#FFA227" d="M48,42.2c0,4.3-3.6,7.8-8,7.8H8c-4.4,0-8-3.5-8-7.8V14.2c0-4.3,3.6-7.8,8-7.8h32c4.4,0,8,3.5,8,7.8V42.2z
				"/>
			<path fill="#333E48" d="M40,7.4c3.9,0,7,3.1,7,6.9v27.9c0,3.8-3.1,6.9-7,6.9H8c-3.9,0-7-3.1-7-6.9V14.2c0-3.8,3.1-6.9,7-6.9H40
				 M40,6.4H8c-4.4,0-8,3.5-8,7.8v27.9C0,46.5,3.6,50,8,50h32c4.4,0,8-3.5,8-7.8V14.2C48,9.9,44.4,6.4,40,6.4L40,6.4z"/>
		</g>
		<g>
			<path fill="#FFC627" d="M48,35.8c0,4.3-3.6,7.8-8,7.8H8c-4.4,0-8-3.5-8-7.8V7.8C0,3.5,3.6,0,8,0h32c4.4,0,8,3.5,8,7.8V35.8z"/>
			<path fill="#333E48" d="M40,1c3.9,0,7,3.1,7,6.9v27.9c0,3.8-3.1,6.9-7,6.9H8c-3.9,0-7-3.1-7-6.9V7.8C1,4.1,4.1,1,8,1H40 M40,0H8
				C3.6,0,0,3.5,0,7.8v27.9c0,4.3,3.6,7.8,8,7.8h32c4.4,0,8-3.5,8-7.8V7.8C48,3.5,44.4,0,40,0L40,0z"/>
		</g>
	</g>
	<g>
		<polygon fill="#FFFFFF" points="13.2,8 27.5,8 34.8,15.1 34.8,34.9 13.2,34.9 13.2,13.9 		"/>
		<g>
			<g>
				<path fill="#333E48" d="M24.8,26.8c-0.1,0.1-0.1,0.3-0.2,0.4c0.6,0.6,1.2,1,1.7,1.2c0.5,0.2,1.1,0.3,1.9,0.3c0.1,0,0.3,0,0.5,0
					c0.2,0,0.4,0,0.5,0c0.3,0,0.5,0.1,0.5,0.2c0,0.2-0.3,0.2-1,0.2c-1.1,0-1.9-0.1-2.5-0.3c-0.5-0.2-1.1-0.6-1.8-1.2
					c-0.5,0.7-1.1,1.1-1.7,1.4c-0.4,0.2-0.9,0.3-1.4,0.3c-1,0-1.8-0.3-2.4-0.8c-0.6-0.6-0.9-1.3-0.9-2.2c0-1,0.4-1.8,1.1-2.5
					c0.4-0.4,1-0.8,1.8-1.2c-0.6-1.1-0.9-2-0.9-2.7c0-0.6,0.2-1.1,0.6-1.4c0.4-0.4,0.9-0.6,1.5-0.6c0.6,0,1.1,0.2,1.4,0.5
					c0.4,0.4,0.6,0.8,0.6,1.3c0,0.8-0.4,1.4-1.2,2c-0.2,0.2-0.7,0.5-1.4,0.9c0.4,0.8,0.8,1.4,1.1,1.8c0.5,0.8,1.1,1.6,1.7,2.4
					c0.2-0.4,0.5-1.1,0.7-2.1c0.4-1.3,0.8-2.2,1.1-2.7c0.5-0.7,1.1-1,2-1c0.6,0,1.1,0.2,1.4,0.5c0.4,0.4,0.6,0.8,0.6,1.3
					c0,0.5-0.2,0.9-0.5,1.2c-0.3,0.3-0.7,0.5-1.1,0.5c-0.3,0-0.6-0.1-0.8-0.3c-0.2-0.2-0.3-0.4-0.3-0.6c0-0.4,0.2-0.5,0.5-0.5
					c0.2,0,0.3,0.1,0.3,0.3c0,0.1-0.1,0.2-0.2,0.3c-0.1,0-0.1,0.1-0.1,0.1c0,0.1,0.1,0.2,0.3,0.3c0.1,0,0.2,0,0.3,0
					c0.3,0,0.6-0.1,0.8-0.4c0.2-0.2,0.3-0.5,0.3-0.9c0-0.4-0.1-0.8-0.4-1.1s-0.7-0.4-1.2-0.4c-0.9,0-1.5,0.5-2,1.5
					c-0.2,0.4-0.3,0.8-0.5,1.5C25.2,25.7,24.9,26.5,24.8,26.8z M22.1,24.9c-0.3-0.5-0.7-1.1-1.1-1.9c-0.7,0.4-1.3,0.8-1.6,1.1
					c-0.6,0.6-0.9,1.3-0.9,2.2c0,0.8,0.3,1.4,0.8,1.9c0.5,0.5,1.2,0.8,2,0.8c1.1,0,2-0.5,2.7-1.6C23.3,26.5,22.7,25.7,22.1,24.9z
					 M20.5,19.8c0,0.6,0.3,1.5,0.8,2.5c1.5-0.8,2.3-1.7,2.3-2.7c0-0.4-0.1-0.8-0.4-1.1c-0.3-0.3-0.6-0.4-1.1-0.4
					c-0.5,0-0.9,0.1-1.2,0.4C20.6,19,20.5,19.3,20.5,19.8z"/>
				<path fill="#333E48" d="M21.2,29.6c-1,0-1.9-0.3-2.5-0.9c-0.7-0.6-1-1.4-1-2.3c0-1,0.4-1.9,1.2-2.7c0.4-0.4,0.9-0.7,1.6-1.1
					c-0.6-1.1-0.9-1.9-0.9-2.6c0-0.6,0.2-1.2,0.7-1.6c0.5-0.4,1-0.6,1.7-0.6c0.6,0,1.2,0.2,1.6,0.6c0.4,0.4,0.6,0.9,0.6,1.5
					c0,0.8-0.4,1.6-1.2,2.2c-0.2,0.2-0.6,0.4-1.2,0.8c0.4,0.7,0.7,1.2,0.9,1.6c0.4,0.7,0.9,1.3,1.5,2.1c0.2-0.4,0.4-1,0.6-1.7
					c0.4-1.4,0.8-2.3,1.1-2.8c0.5-0.8,1.3-1.1,2.2-1.1c0.6,0,1.2,0.2,1.6,0.6c0.4,0.4,0.6,0.9,0.6,1.5c0,0.5-0.2,1-0.5,1.3
					c-0.4,0.4-0.8,0.6-1.3,0.6c-0.4,0-0.7-0.1-0.9-0.3c-0.3-0.2-0.4-0.5-0.4-0.8c0-0.5,0.3-0.8,0.7-0.8c0.4,0,0.6,0.2,0.6,0.6
					c0,0.1,0,0.3-0.2,0.4c0,0,0,0,0,0c0.1,0,0.1,0,0.2,0c0.2,0,0.4-0.1,0.6-0.3c0.2-0.2,0.3-0.4,0.3-0.7c0-0.4-0.1-0.7-0.4-0.9
					c-0.3-0.2-0.6-0.3-1-0.3c-0.8,0-1.3,0.4-1.7,1.3c-0.1,0.3-0.3,0.8-0.5,1.4c-0.4,1.3-0.7,2.1-0.8,2.4c0,0.1-0.1,0.2-0.1,0.3
					c0.6,0.5,1.1,0.9,1.5,1c0.5,0.2,1.1,0.3,1.8,0.3h1.1c0.6,0,0.7,0.3,0.7,0.5c0,0.5-0.8,0.5-1.2,0.5c-1.1,0-2-0.1-2.6-0.3
					C25.6,29,25,28.6,24.3,28c-0.5,0.6-1,1-1.6,1.2C22.3,29.5,21.8,29.6,21.2,29.6z M20.9,23.3c-0.6,0.3-1,0.7-1.3,1
					c-0.6,0.6-0.8,1.2-0.8,2c0,0.7,0.2,1.3,0.7,1.8c0.5,0.5,1.1,0.7,1.8,0.7c1,0,1.8-0.4,2.4-1.3c-0.7-0.8-1.3-1.6-1.8-2.4
					C21.6,24.5,21.3,24,20.9,23.3z M18.4,25.1c-0.2,0.4-0.2,0.8-0.2,1.2c0,0.8,0.3,1.5,0.8,2c0,0,0,0,0,0c-0.5-0.5-0.8-1.2-0.8-2.1
					C18.2,25.9,18.3,25.5,18.4,25.1z M24.3,27.4l0.1,0.1c0.2,0.2,0.4,0.4,0.7,0.5C24.9,27.9,24.7,27.7,24.3,27.4L24.3,27.4
					L24.3,27.4z M21.2,22.7l0.1,0.1c0.4,0.8,0.8,1.4,1.1,1.9c0.2,0.3,0.4,0.7,0.7,1c-0.3-0.4-0.5-0.7-0.7-1.1
					C22,24.2,21.7,23.6,21.2,22.7L21.2,22.7L21.2,22.7l-0.1-0.3c-0.6-1.1-0.9-1.9-0.9-2.6c0-0.2,0-0.5,0.1-0.7
					c-0.1,0.2-0.1,0.5-0.1,0.7c0,0.6,0.3,1.5,0.9,2.6L21.2,22.7L21.2,22.7z M27.9,23.5c-0.1,0-0.2,0-0.2,0.3c0,0,0,0.1,0,0.1
					c0-0.1,0.1-0.2,0.2-0.2c0.1,0,0.1,0,0.1,0C28,23.5,28,23.5,27.9,23.5C28,23.5,28,23.5,27.9,23.5z M22.1,18.5
					c-0.4,0-0.8,0.1-1,0.4c-0.2,0.2-0.4,0.6-0.4,1c0,0.5,0.2,1.3,0.7,2.2c1.3-0.7,1.9-1.5,1.9-2.3c0-0.4-0.1-0.7-0.3-0.9
					C22.8,18.6,22.5,18.5,22.1,18.5z"/>
			</g>
		</g>
		<g>
			<polygon fill="#CFD1D3" points="34.9,16.1 26.6,16.1 26.6,9.7 34.3,14.9 			"/>
			<path fill="#CFD1D3" d="M34.9,16.6C34.9,16.6,34.9,16.6,34.9,16.6h-8.3c-0.3,0-0.5-0.2-0.5-0.5V9.7c0-0.2,0.1-0.3,0.3-0.4
				c0.2-0.1,0.4-0.1,0.5,0l7.8,5.1c0.1,0.1,0.1,0.1,0.2,0.2l0.5,1.1c0.1,0.1,0.1,0.2,0.1,0.3C35.4,16.4,35.2,16.6,34.9,16.6z
				 M27.1,15.6h7.1l-0.2-0.4l-6.9-4.5V15.6z"/>
		</g>
		<rect x="13.5" y="8.2" fill="#FFC627" width="14.2" height="4.8"/>
		<path fill="#333E48" d="M34.8,35.4H13.2c-0.3,0-0.5-0.2-0.5-0.5V8c0-0.3,0.2-0.5,0.5-0.5h14.3c0.1,0,0.3,0.1,0.4,0.1l7.3,7.1
			c0.1,0.1,0.1,0.2,0.1,0.3v19.8C35.3,35.1,35,35.4,34.8,35.4z M13.7,34.4h20.5V15.3l-7-6.8H13.7V34.4z"/>
		<polygon fill="#93989E" points="34.1,14.7 27.8,14.7 27.8,8.7 		"/>
		<path fill="#333E48" d="M34.8,15.5C34.8,15.5,34.7,15.5,34.8,15.5h-7.1c-0.3,0-0.5-0.2-0.5-0.5v-7c0-0.2,0.1-0.4,0.3-0.5
			c0.2-0.1,0.4,0,0.5,0.1l7,6.9c0.1,0.1,0.2,0.2,0.2,0.4C35.3,15.3,35,15.5,34.8,15.5z M28.1,14.6h5.4l-5.4-5.3V14.6z"/>
		<rect x="13.3" y="12.4" fill="#333E48" width="14.3" height="1"/>
	</g>
</g>
</svg>
