<?xml version="1.0" encoding="utf-8"?>
<!-- Generator: Adobe Illustrator 17.1.0, SVG Export Plug-In . SVG Version: 6.00 Build 0)  -->
<!DOCTYPE svg PUBLIC "-//W3C//DTD SVG 1.1 Basic//EN" "http://www.w3.org/Graphics/SVG/1.1/DTD/svg11-basic.dtd">
<svg version="1.1" baseProfile="basic" id="Layer_1"
	 xmlns="http://www.w3.org/2000/svg" xmlns:xlink="http://www.w3.org/1999/xlink" x="0px" y="0px" viewBox="0 0 48 50"
	 xml:space="preserve">
<g>
	<g>
		<g>
			<path fill="#FFA227" d="M48,42.2c0,4.3-3.6,7.8-8,7.8H8c-4.4,0-8-3.5-8-7.8V14.2c0-4.3,3.6-7.8,8-7.8h32c4.4,0,8,3.5,8,7.8V42.2z
				"/>
			<path fill="#333E48" d="M40,7.4c3.9,0,7,3.1,7,6.9v27.9c0,3.8-3.1,6.9-7,6.9H8c-3.9,0-7-3.1-7-6.9V14.2c0-3.8,3.1-6.9,7-6.9H40
				 M40,6.4H8c-4.4,0-8,3.5-8,7.8v27.9C0,46.5,3.6,50,8,50h32c4.4,0,8-3.5,8-7.8V14.2C48,9.9,44.4,6.4,40,6.4L40,6.4z"/>
		</g>
		<g>
			<path fill="#FFC627" d="M48,35.8c0,4.3-3.6,7.8-8,7.8H8c-4.4,0-8-3.5-8-7.8V7.8C0,3.5,3.6,0,8,0h32c4.4,0,8,3.5,8,7.8V35.8z"/>
			<path fill="#333E48" d="M40,1c3.9,0,7,3.1,7,6.9v27.9c0,3.8-3.1,6.9-7,6.9H8c-3.9,0-7-3.1-7-6.9V7.8C1,4.1,4.1,1,8,1H40 M40,0H8
				C3.6,0,0,3.5,0,7.8v27.9c0,4.3,3.6,7.8,8,7.8h32c4.4,0,8-3.5,8-7.8V7.8C48,3.5,44.4,0,40,0L40,0z"/>
		</g>
	</g>
	<g>
		<path fill="#D4D5D7" d="M30.7,15c1.4,1.3,1.4,3.5,0,4.8L14,36.1c-1.4,1.3-3.5,1.3-4.9,0l0,0c-1.4-1.3-1.4-3.5,0-4.8L25.8,15
			C27.1,13.7,29.3,13.7,30.7,15L30.7,15z"/>
		<path fill="#333E48" d="M11.6,37.6c-1.1,0-2.1-0.4-2.8-1.1c-0.7-0.7-1.2-1.7-1.2-2.7s0.4-2,1.2-2.7l16.6-16.3
			c1.5-1.5,4.1-1.5,5.6,0c0.7,0.7,1.2,1.7,1.2,2.7c0,1-0.4,2-1.2,2.7L14.4,36.5C13.6,37.2,12.6,37.6,11.6,37.6z M28.2,14.5
			c-0.8,0-1.5,0.3-2.1,0.9L9.5,31.7c-0.6,0.5-0.9,1.3-0.9,2.1s0.3,1.5,0.9,2.1c1.1,1.1,3.1,1.1,4.2,0l16.6-16.3
			c0.6-0.5,0.9-1.3,0.9-2.1c0-0.8-0.3-1.5-0.9-2.1C29.7,14.8,29,14.5,28.2,14.5z"/>
	</g>
	<g>
		<path fill="#93989E" d="M11.6,34.2c-0.1,0-0.2,0-0.3-0.1c-0.1-0.1-0.1-0.2-0.1-0.3s0-0.2,0.1-0.3l16.6-16.3
			c0.1-0.1,0.2-0.1,0.3-0.1s0.2,0,0.3,0.1c0.2,0.2,0.2,0.5,0,0.6L11.9,34C11.8,34.1,11.7,34.2,11.6,34.2z"/>
		<path fill="#333E48" d="M28.2,16.9c0.1,0,0.2,0,0.3,0.1c0.2,0.2,0.2,0.5,0,0.6L11.9,34c-0.1,0.1-0.2,0.1-0.3,0.1s-0.2,0-0.3-0.1
			c-0.1-0.1-0.1-0.2-0.1-0.3s0-0.2,0.1-0.3l16.6-16.3C28,17,28.1,16.9,28.2,16.9 M28.2,16c-0.4,0-0.8,0.1-1,0.4L10.5,32.7
			c-0.3,0.3-0.4,0.6-0.4,1c0,0.4,0.2,0.7,0.4,1c0.3,0.3,0.6,0.4,1,0.4s0.8-0.1,1-0.4l16.6-16.3c0.3-0.3,0.4-0.6,0.4-1
			c0-0.4-0.2-0.7-0.4-1C29,16.1,28.6,16,28.2,16L28.2,16z"/>
	</g>
	<g>
		<path fill="#D4D5D7" d="M34.9,15.4l-4.6-4.5l3.7-3.6C31.4,6.4,28.5,7,26.5,9c-2.8,2.8-2.8,7.3,0,10.1s7.4,2.8,10.3,0
			c2-2,2.6-4.8,1.8-7.3L34.9,15.4z"/>
		<path fill="#333E48" d="M31.7,21.6c-2.1,0-4-0.8-5.5-2.2c-3-3-3-7.8,0-10.8c1.5-1.4,3.4-2.2,5.5-2.2c0.8,0,1.6,0.1,2.4,0.4L34.9,7
			L31,10.8l3.9,3.9l3.9-3.8l0.3,0.8c0.9,2.7,0.2,5.7-1.9,7.8C35.7,20.8,33.8,21.6,31.7,21.6z M31.7,7.4c-1.8,0-3.5,0.7-4.8,1.9
			c-2.6,2.6-2.6,6.8,0,9.4c1.3,1.3,3,1.9,4.8,1.9s3.5-0.7,4.8-1.9c1.6-1.6,2.3-3.8,1.9-6l-3.4,3.3l-5.3-5.2L33,7.5
			C32.5,7.4,32.1,7.4,31.7,7.4z"/>
	</g>
	<g>
		<g>
			<line fill="#D4D5D7" x1="27.6" y1="13.7" x2="31.5" y2="17.6"/>
			<path fill="#333E48" d="M31.5,18.1c-0.1,0-0.3,0-0.4-0.1l-3.9-3.8c-0.2-0.2-0.2-0.5,0-0.7c0.2-0.2,0.5-0.2,0.7,0l3.9,3.8
				c0.2,0.2,0.2,0.5,0,0.7C31.8,18,31.7,18.1,31.5,18.1z"/>
		</g>
		<g>
			<g>
				<line fill="#D4D5D7" x1="27.6" y1="15.2" x2="29.1" y2="13.7"/>
				<path fill="#333E48" d="M27.6,15.7c-0.1,0-0.3,0-0.4-0.1c-0.2-0.2-0.2-0.5,0-0.7l1.5-1.5c0.2-0.2,0.5-0.2,0.7,0s0.2,0.5,0,0.7
					L28,15.6C27.9,15.6,27.7,15.7,27.6,15.7z"/>
			</g>
			<g>
				<line fill="#D4D5D7" x1="28.8" y1="16.4" x2="30.4" y2="14.9"/>
				<path fill="#333E48" d="M28.8,16.9c-0.1,0-0.3,0-0.4-0.1c-0.2-0.2-0.2-0.5,0-0.7l1.5-1.5c0.2-0.2,0.5-0.2,0.7,0
					c0.2,0.2,0.2,0.5,0,0.7l-1.5,1.5C29.1,16.8,29,16.9,28.8,16.9z"/>
			</g>
			<g>
				<line fill="#D4D5D7" x1="30" y1="17.6" x2="31.6" y2="16.1"/>
				<path fill="#333E48" d="M30,18.1c-0.1,0-0.3,0-0.4-0.1c-0.2-0.2-0.2-0.5,0-0.7l1.5-1.5c0.2-0.2,0.5-0.2,0.7,0
					c0.2,0.2,0.2,0.5,0,0.7l-1.5,1.5C30.3,18,30.2,18.1,30,18.1z"/>
			</g>
		</g>
	</g>
</g>
</svg>
