<?xml version="1.0" encoding="utf-8"?>
<!-- Generator: Adobe Illustrator 17.1.0, SVG Export Plug-In . SVG Version: 6.00 Build 0)  -->
<!DOCTYPE svg PUBLIC "-//W3C//DTD SVG 1.1 Basic//EN" "http://www.w3.org/Graphics/SVG/1.1/DTD/svg11-basic.dtd">
<svg version="1.1" baseProfile="basic" id="Layer_1"
	 xmlns="http://www.w3.org/2000/svg" xmlns:xlink="http://www.w3.org/1999/xlink" x="0px" y="0px" viewBox="0 0 48 50"
	 xml:space="preserve">
<g>
	<g>
		<g>
			<path fill="#FFA227" d="M48,42.2c0,4.3-3.6,7.8-8,7.8H8c-4.4,0-8-3.5-8-7.8V14.2c0-4.3,3.6-7.8,8-7.8h32c4.4,0,8,3.5,8,7.8V42.2z
				"/>
			<path fill="#333E48" d="M40,7.4c3.9,0,7,3.1,7,6.9v27.9c0,3.8-3.1,6.9-7,6.9H8c-3.9,0-7-3.1-7-6.9V14.2c0-3.8,3.1-6.9,7-6.9H40
				 M40,6.4H8c-4.4,0-8,3.5-8,7.8v27.9C0,46.5,3.6,50,8,50h32c4.4,0,8-3.5,8-7.8V14.2C48,9.9,44.4,6.4,40,6.4L40,6.4z"/>
		</g>
		<g>
			<path fill="#FFC627" d="M48,35.8c0,4.3-3.6,7.8-8,7.8H8c-4.4,0-8-3.5-8-7.8V7.8C0,3.5,3.6,0,8,0h32c4.4,0,8,3.5,8,7.8V35.8z"/>
			<path fill="#333E48" d="M40,1c3.9,0,7,3.1,7,6.9v27.9c0,3.8-3.1,6.9-7,6.9H8c-3.9,0-7-3.1-7-6.9V7.8C1,4.1,4.1,1,8,1H40 M40,0H8
				C3.6,0,0,3.5,0,7.8v27.9c0,4.3,3.6,7.8,8,7.8h32c4.4,0,8-3.5,8-7.8V7.8C48,3.5,44.4,0,40,0L40,0z"/>
		</g>
	</g>
	<path fill="#333E48" d="M33.4,28.7c0.7,0.7,0.7,1.8,0,2.5l0,0c-0.7,0.7-1.8,0.7-2.5,0L17.3,17.9c-0.7-0.7-0.7-1.8,0-2.5l0,0
		c0.7-0.7,1.8-0.7,2.5,0L33.4,28.7z"/>
	<g>
		<ellipse fill="#D4D5D7" cx="17.2" cy="15.3" rx="10.5" ry="10.3"/>
		<path fill="#333E48" d="M17.2,26.1c-6,0-11-4.8-11-10.7s4.9-10.7,11-10.7s11,4.8,11,10.7S23.3,26.1,17.2,26.1z M17.2,5.6
			c-5.5,0-10,4.4-10,9.8c0,5.4,4.5,9.8,10,9.8c5.5,0,10-4.4,10-9.8C27.2,10,22.7,5.6,17.2,5.6z"/>
	</g>
	<g>
		<path fill="#FFFFFF" d="M25.3,15.3c0,4.3-3.6,7.9-8,7.9s-8-3.5-8-7.9s3.6-7.9,8-7.9S25.3,11,25.3,15.3z"/>
		<path fill="#333E48" d="M17.2,23.6c-4.6,0-8.4-3.7-8.4-8.2s3.8-8.2,8.4-8.2s8.4,3.7,8.4,8.2S21.9,23.6,17.2,23.6z M17.2,7.8
			c-4.2,0-7.6,3.4-7.6,7.5s3.4,7.5,7.6,7.5s7.6-3.4,7.6-7.5S21.5,7.8,17.2,7.8z"/>
	</g>
	<g>
		<path fill="#93989E" d="M25.5,26.9l10.6,10.4c1,0.9,2.5,0.9,3.5,0c1-0.9,1-2.5,0-3.4L29,23.5L25.5,26.9z"/>
		<path fill="#333E48" d="M37.9,38.5c-0.8,0-1.5-0.3-2.1-0.8l-11-10.8l4.2-4.1l11,10.8c1.1,1.1,1.1,3,0,4.1
			C39.4,38.2,38.7,38.5,37.9,38.5z M26.2,26.9l10.3,10.1c0.7,0.7,2,0.7,2.8,0c0.8-0.7,0.8-2,0-2.7L29,24.2L26.2,26.9z"/>
	</g>
	<path fill="#333E48" d="M21.8,16.7h-4.8c-0.3,0-0.5-0.2-0.5-0.5V10c0-0.3,0.2-0.5,0.5-0.5s0.5,0.2,0.5,0.5v5.7h4.3
		c0.3,0,0.5,0.2,0.5,0.5S22.1,16.7,21.8,16.7z"/>
</g>
</svg>
