<?xml version="1.0" standalone="no"?>
<!DOCTYPE svg PUBLIC "-//W3C//DTD SVG 1.1//EN" "http://www.w3.org/Graphics/SVG/1.1/DTD/svg11.dtd" >
<svg xmlns="http://www.w3.org/2000/svg">
<metadata>
Created by FontPrep 20130207 at Tue Apr  8 15:31:36 2014
 By Vince Barbosa
Copyright 2013 Adobe Systems Incorporated. All rights reserved.
</metadata>
<defs>
<font id="19c04d428b2c8fb0409533f78cf63bfa" horiz-adv-x='1024' >
  <font-face 
    font-family="TheSkinnybold"
    font-weight="400"
    font-stretch="normal"
    units-per-em="1000"
    panose-1="0 0 0 0 0 0 0 0 0 0"
    ascent="800"
    descent="-200"
    x-height="815"
    cap-height="820"
    bbox="-20.5714 -228 372.571 834"
    underline-thickness="50"
    underline-position="-50"
    unicode-range="U+0020-007A"
  />
<missing-glyph horiz-adv-x="250" 
 />
    <glyph glyph-name=".notdef" horiz-adv-x="250" 
 />
    <glyph glyph-name=".null" horiz-adv-x="0" 
 />
    <glyph glyph-name="nonmarkingreturn" horiz-adv-x="333" 
 />
    <glyph glyph-name="space" unicode=" " horiz-adv-x="250" 
 />
    <glyph glyph-name="A" unicode="A" horiz-adv-x="431" 
d="M119 611l-55 -434l124 -6q-19 82 -39.5 235.5t-29.5 204.5zM298 -198q-6 -8 -13 -11q-2 -1 -4.5 -3t-8.5 -6l-15 -10q-6 9 -10 14.5t-6 8t-2 3.5q-8 8 -9 20q-1 11 -3.5 45.5t-4.5 53.5q-6 64 -22 179l-1 1l-2 1q-80 21 -138 8q0 -8 -1.5 -24.5t-2.5 -25.5
q-4 -103 -5 -152v-38t-1 -38q-1 -21 -16.5 -34t-52.5 -4v37.5v36v26.5q4 138 9 205q2 23 5 49t7 57t6 49q4 34 11 100.5t11 99.5q4 27 8.5 57.5t10 68t8.5 57.5q2 12 4 37t3 37q8 52 15 77q3 10 16 20q6 5 34 28q15 -30 23 -44q9 -16 10 -26q11 -57 27 -171l21 -168
q6 -34 18.5 -97t16.5 -88q23 -133 34 -208q3 -21 6 -45t6.5 -52.5t5.5 -44.5q3 -19 9 -55q0 -1 0.5 -5t0.5 -6q0 -13 -8 -20z" />
    <glyph glyph-name="B" unicode="B" horiz-adv-x="353" 
d="M137 202q-23 65 -78 81v-401q44 40 55 65q3 8 10.5 22.5t10.5 20.5q10 19 15 38q18 85 -13 174zM59 727v-346l2 1q76 39 71 132q-1 24 -8 50q-1 6 -4 17t-5 20t-3 17q-12 66 -53 109zM218 21q-18 -101 -120 -209q-17 -19 -61 -30q-25 -7 -38 7.5t-12 36.5q4 107 5 164
q0 20 -1.5 73t-0.5 81q0 24 2.5 69.5t2.5 63.5q1 9 -1 25.5t-2 23.5q-3 248 -1 286q1 33 -11 169q-2 12 8 24.5t23 13.5q40 4 74.5 -18t51.5 -59q3 -7 10 -19t9 -17q13 -22 18 -41q37 -131 22 -208q-13 -68 -79 -123q21 -16 24 -17q31 -15 49 -51q6 -12 20 -55
q15 -45 15 -76q2 -61 -7 -114z" />
    <glyph glyph-name="C" unicode="C" horiz-adv-x="364" 
d="M228 -83q-13 -50 -30 -84q-15 -27 -40.5 -42.5t-53.5 -8.5q-50 12 -76 68q-6 12 -10.5 26t-7.5 24t-6 27.5t-4.5 24.5t-3.5 28t-2.5 25t-2 28.5t-1.5 26.5q-1 11 -5 64t-5 82q0 20 1 43t2.5 51t2.5 43q0 12 -0.5 54.5t1.5 54.5q12 153 20 192q4 21 11.5 42.5t20 52
t16.5 41.5q10 25 38.5 34t58.5 4q40 -7 58 -59q11 -31 15 -88q1 -6 -1 -13.5t-8 -17t-19 -10.5t-34 5q-2 12 -5.5 36.5t-5.5 35.5q-3 15 -7 19l-12 12q-2 5 -3 4q-15 -3 -19 -16q-23 -55 -31 -104q-14 -76 -22 -165q-2 -13 -1.5 -62.5t0.5 -63.5q0 -18 -2 -54t-2 -54
q0 -19 5 -107q0 -3 4.5 -63.5t7.5 -90.5q7 -63 36 -95q24 -27 44 43q14 49 19 99q5 41 44 38q20 -1 30 -15.5t5 -32.5q-4 -14 -10.5 -41.5t-9.5 -40.5z" />
    <glyph glyph-name="D" unicode="D" horiz-adv-x="381" 
d="M70 730l-11 -840q48 44 76 133q9 31 31 167q7 43 9 89q1 23 1 86.5t2 98.5q4 82 -25 176q-20 61 -83 90zM235 209q-9 -73 -28 -175q-2 -11 -6 -22t-9.5 -24t-8.5 -20q-4 -11 -5 -19q-10 -45 -42 -80q-37 -42 -73 -75q-32 -31 -66 8q-17 18 -17 41q0 5 1 15t1 15
q6 129 7 191q3 118 3 236v151t1 151q0 18 2.5 54t3.5 55q0 8 -0.5 17t-1.5 20t-1 18q-1 34 17.5 47t50.5 1q117 -43 152 -142q39 -108 31 -180q5 -87 4 -108q-4 -74 -16 -175z" />
    <glyph glyph-name="E" unicode="E" 
d="M54 -136q29 0 75 -12q11 -2 21 -17q1 -4 4 -8q0 -2 14 -21q-9 -6 -14.5 -10t-8 -6t-3.5 -2q-16 -8 -22 -8q-10 0 -58 5q-3 1 -8.5 2t-8.5 1q-22 2 -30 4q-32 7 -35 41q0 18 1 32q2 44 4 134q0 16 2 63t2 73v102t1 102q0 32 3 98t4 99q1 41 0 115t-1 98q0 2 -1 7.5t-1 8.5
q-2 17 6 28q22 24 47 25q21 2 60.5 2h48.5q44 0 45 -37q0 -20 -12.5 -31t-31.5 -11h-91v-229q44 5 53 7q18 4 31 -4.5t15 -24.5q1 -9 -0.5 -18.5t-10.5 -19t-25 -9.5l-66 -3q-1 -32 -2 -94.5t-2 -94.5q-1 -50 -2.5 -150t-2.5 -150v-87z" />
    <glyph glyph-name="F" unicode="F" horiz-adv-x="314" 
d="M64 413q-1 -29 -3.5 -85.5t-3.5 -84.5q0 -9 -2 -36t-2 -42q0 -19 2.5 -59t3.5 -60q1 -29 -2 -174q0 -42 -3 -56q-2 -12 -12 -22t-21 -13q-23 -5 -32.5 9t-8.5 31q1 16 5 66.5t5 78.5q1 18 -0.5 50.5t-1.5 44.5q0 20 1 58.5t1 57.5q0 15 -1 47t-0.5 56t2.5 46
q5 28 3 101.5t0 101.5l12 192q0 6 -0.5 13.5t-1.5 16.5t-1 14q-4 38 38 46q6 1 22 4t24 4q46 2 69 -1q13 -1 24 -12.5t13 -23.5q3 -20 -10.5 -31.5t-29.5 -12.5q-4 -1 -11.5 0t-9.5 1q-3 0 -8.5 0.5t-8.5 0.5q-21 1 -41 0l-11 -253q6 -1 16.5 -3t15.5 -3q16 -2 23 -5
q23 -11 19 -36q-3 -23 -20.5 -28.5t-35.5 -1.5q-1 0 -17 3z" />
    <glyph glyph-name="G" unicode="G" horiz-adv-x="378" 
d="M238 67q-11 -69 -36 -194q-6 -30 -24 -58q-26 -37 -67.5 -35t-69.5 38q-15 18 -23 53q-3 13 -7.5 43t-8.5 45q-6 19 -9.5 42t-5 37t-3 44.5t-2.5 39.5q-4 49 3 198q3 99 13 186q7 70 29 178q4 18 31 89q12 34 58.5 44.5t73.5 -13.5q22 -12 46.5 -41.5t16.5 -48.5
q-6 -13 -19 -16q-22 -8 -42 10l-10 10l-3 3q-4 1 -14 8q-2 1 -4 3t-4 3q-17 11 -26 7.5t-14 -23.5q-24 -89 -39 -171q-7 -38 -13 -116q-10 -104 -12 -156q-1 -20 1 -58t1 -58q-3 -78 22 -217q5 -30 26 -76q5 -10 9 -10q6 0 9 10q5 22 15 63t17.5 74.5t12.5 63.5q3 15 13 142
q-30 0 -44 3q-12 2 -28.5 14t-15.5 22q2 20 14.5 33.5t37.5 10.5q11 -2 36.5 -3.5t39.5 -4.5q13 -2 25 -16t11 -28q-7 -104 -17 -174z" />
    <glyph glyph-name="H" unicode="H" horiz-adv-x="367" 
d="M229 -171q-13 -34 -35 -38t-32 11.5t-10 32.5q2 115 0 173q-1 29 -3 61.5t-5 72t-4 61.5v17q1 3 -0.5 3.5t-6.5 0.5q-26 -1 -85 -5v-35q4 -114 5 -171q1 -19 0.5 -55.5t-0.5 -54.5q0 -13 2 -39t2 -39q0 -23 -14 -36q-7 -7 -20.5 -8.5t-24.5 4.5q-18 13 -18 37
q0 22 1.5 66t1.5 66q-3 237 -2 267l15 294q1 18 0 51t-1 44q-1 51 -1 169q0 11 8 22t20 14t23 -4.5t15 -15.5q7 -12 7 -33q-3 -126 -4 -157q-4 -151 -7 -230q-1 -25 -3 -77h87v38q0 122 -1 184q0 50 -2 146q0 12 -2 50t-2 59q0 43 36 45q16 1 26 -7.5t12 -17t2 -17.5
q0 -17 -0.5 -51.5t-0.5 -51.5q0 -23 0.5 -69t0.5 -69q0 -14 -2.5 -76t-1.5 -95q2 -61 7 -174t6 -148q1 -30 5 -91t5 -92q0 -1 1 -2q4 -21 0 -30z" />
    <glyph glyph-name="I" unicode="I" horiz-adv-x="210" 
d="M71 687l-48 -4l46 48q-9 -199 -11 -263q-1 -38 -1.5 -107.5t-0.5 -91.5q0 -29 -2 -88t-3 -89q0 -15 2 -42t2 -37q3 -160 2 -193q0 -12 -11.5 -26t-26.5 -14q-19 1 -29.5 13t-9.5 32q3 100 3 202q0 38 -0.5 112.5t-0.5 111.5q0 108 1 162q1 25 4 87.5t4 96.5q1 39 -4 175
q0 48 40 48q25 0 33 -21q0 -1 3 -23q4 -46 8 -89z" />
    <glyph glyph-name="J" unicode="J" horiz-adv-x="376" 
d="M79 -136q10 10 10 26q-1 17 2.5 49t3.5 44l6 267q2 140 2 211q1 42 1 126t1 126q0 1 -0.5 2.5t-0.5 2.5q0 16 -1 22q0 4 -1 5q0 -1 -2 -1q-5 1 -23 1q-18 1 -36 13.5t-15 30.5q5 33 63 31h88q22 0 42 -8q6 -1 14 -6q16 -11 12 -37q-4 -27 -31 -31h-14q-1 0 -3.5 0.5
t-3.5 0.5q-7 -1 -20 -1l1 -45l1 -29q1 -17 1 -51v-51q0 -11 -5 -61q-1 -16 -1 -47v-94l3 -93q-1 -31 -2.5 -93.5t-1.5 -93.5q-2 -108 -4 -162q-2 -53 -11 -74q-20 -51 -74 -63q-27 -6 -47 10t-26 43q-11 46 -15 96q-8 80 -12 160q-1 12 8.5 26.5t21.5 18.5q22 8 33 -5.5
t12 -32.5q1 -14 3 -50t4 -55q5 -55 17 -128z" />
    <glyph glyph-name="K" unicode="K" horiz-adv-x="402" 
d="M59 454l-1 -7q4 11 13.5 30.5t13.5 27.5q20 45 58 135l60 150q7 16 10 20q16 18 39 6q34 -18 18 -57q-10 -23 -27.5 -70t-27.5 -70q-18 -40 -55 -119t-55 -119q-14 -30 -20 -45l2 -4q6 -14 42 -94q13 -28 21 -50q12 -33 34 -99q40 -128 59 -192q12 -37 8 -69
q-1 -12 -9.5 -25.5t-24.5 -16.5q-17 -4 -28.5 8t-14.5 25q-7 26 -19.5 86.5t-18.5 85.5q-3 10 -10.5 32t-10.5 34q-24 94 -59 152q0 -5 -0.5 -15t-0.5 -14q-1 -28 -1 -84q1 -44 2.5 -132t2.5 -132q0 -25 -9 -35q-17 -20 -39 -17q-13 2 -22 14.5t-9 23.5q0 24 1.5 71t1.5 70
q1 42 1 126v126q0 118 4 213q1 29 6 87t6 87q0 1 3 164l-3 9q-6 19 9 31q12 20 33 17q17 -2 26.5 -47t7.5 -79q-2 -32 -8.5 -113.5t-8.5 -125.5z" />
    <glyph glyph-name="L" unicode="L" horiz-adv-x="284" 
d="M61 -137v-2q45 3 46 3q25 0 41 -11t12 -36q-3 -21 -60.5 -30t-87.5 -2q-34 8 -32 44q2 48 2 73q4 233 7 347q0 25 2.5 91.5t2.5 102.5t-5 216q-3 95 -2 114q0 41 33 47q25 4 35 -23q3 -7 3 -23q2 -93 4 -279l1 -109q1 -110 -1 -110q0 -31 -3.5 -101t-3.5 -108
q0 -37 2.5 -105.5t2.5 -95.5v-1q1 -1 1 -2z" />
    <glyph glyph-name="M" unicode="M" horiz-adv-x="451" 
d="M132 589l48 158q10 34 13 41q4 10 18 20.5t23 7.5q31 -12 37 -30q8 -21 8 -53q1 -19 0 -58.5t-1 -58.5q3 -112 9 -223q3 -69 11 -196q1 -12 6.5 -73t6.5 -94q2 -41 2 -186v-9v-1q8 -21 -3 -36.5t-29 -17.5q-21 -2 -32.5 12t-10.5 34q5 69 5 78q0 30 -8 191q0 9 -1.5 28.5
t-2.5 29.5q-2 58 -1 75q1 12 -4 70q-1 13 -4 40t-4 41q-4 47 -10 141q-2 46 -2 70l-4 -13q-6 -20 -13.5 -58.5t-9.5 -46.5q-10 -41 -45 -43q-37 -3 -47 42q-12 64 -20 96q-3 12 -7 19q-1 4 -5 12q2 -88 2 -132q0 -46 -0.5 -138t0.5 -139q0 -95 3 -190q1 -22 5 -72.5t5 -76.5
q1 -14 -10 -27t-23 -16q-23 -7 -34 7.5t-11 30.5q0 1 -3 214q0 16 -1 46t-1.5 54.5t-0.5 45.5q0 31 1 91t1 90q0 40 -2 120l-3 120q-1 19 0 55t1 47q0 3 -1 9.5t-1 9.5q-3 19 -2 26q3 34 25 42q7 7 28 4t29 -26q11 -32 53 -149q10 -31 17 -55z" />
    <glyph glyph-name="N" unicode="N" horiz-adv-x="458" 
d="M237 131q0 5 1 13.5t1.5 15.5t0.5 13q0 14 -2 40.5t-2 39.5q-1 59 -1 177q-1 78 1 230q0 67 4 120q1 13 17 29q1 0 21 25q16 -24 18 -26q13 -17 13 -28q0 -38 -2 -113t-2 -112q-2 -116 0 -230q0 -28 2.5 -80.5t2.5 -72.5v-146v-195q0 -26 -13.5 -39.5t-33.5 -11.5
q-18 2 -33 16t-17 35q-14 129 -20 163q-7 42 -37 189q-2 11 -8.5 32t-9.5 31q-6 26 -16 78q-33 154 -43 196q-5 21 -11.5 44.5t-14.5 51.5t-13 44q-4 12 -11 26l18 9q7 -15 9 -39q1 -14 1 -43q1 -20 1.5 -59t0.5 -59q2 -40 2 -60q0 -152 1 -227q1 -31 4 -86.5t4 -77.5t2 -62
t2 -72.5t2 -61.5q1 -21 -10.5 -33t-30.5 -12q-11 0 -25.5 11.5t-11.5 26.5q6 29 4 89q-5 78 -5 92q0 18 -1.5 122.5t-2.5 120.5q-1 33 -1 194q0 11 1 44.5t0 51.5q0 14 -3 38.5t-3 34.5l-3 114v7t-1 6q-3 9 -3.5 18t6.5 20.5t23 15.5q45 10 59 -28q39 -102 41 -111
q8 -30 16.5 -64.5t18.5 -77t16 -65.5q59 -245 68 -288q1 -7 4 -21.5t5 -22.5z" />
    <glyph glyph-name="O" unicode="O" horiz-adv-x="384" 
d="M170 678q-2 38 -25 57q-4 4 -7 6q-5 5 -7 9q0 1 -1 -1l-2 -2q-31 -29 -44 -98q-24 -142 -34 -262q-2 -30 -2 -221q5 -36 17 -114.5t18 -120.5q7 -42 19 -62q7 -11 25 -16l-2 2q2 2 4 7t3 6q4 8 7 22q3 8 7 24q15 50 21 143q1 13 4.5 66t6.5 82q3 25 3.5 57t0 58t0.5 58
q3 149 2 168q-1 24 -7 69t-7 63zM253 327q-3 -65 -11 -184q-9 -128 -14 -166q-4 -35 -26 -127q-13 -60 -65 -69q-26 -5 -54.5 8t-42.5 38q-13 21 -18 49q-3 16 -11.5 64t-15.5 83h4q-12 73 -13 92q-6 97 -6 196t7 184q3 41 19 118q13 69 28 107q12 32 47 82q17 20 52 18.5
t51 -16.5q54 -48 57 -111q1 -15 6.5 -48.5t6.5 -51.5v-165q0 -67 -1 -101z" />
    <glyph glyph-name="P" unicode="P" 
d="M110 708q-5 17 -24 28l-17 -238q7 1 21 5q23 4 31 31q21 66 -11 174zM76 424q-1 0 -4 -1t-4 -2q0 -52 -1 -77q-1 -23 -3.5 -91t-3.5 -105q-1 -39 -1 -231v-100q-1 -11 -11.5 -23.5t-23.5 -13.5q-11 -1 -24.5 8t-16.5 22q-3 14 -3 55q1 46 5 138q1 29 4 87.5t4 87.5
q1 31 3 93.5t3 93.5q1 35 4.5 106t4.5 106q1 24 4 73t4 74q1 18 -2 37q-8 33 8 48t50 8q85 -20 108 -90q30 -93 18 -175q-14 -104 -122 -128z" />
    <glyph glyph-name="Q" unicode="Q" horiz-adv-x="415" 
d="M164 -8q13 66 17 88v17q-2 17 0 26q11 65 22 226q10 186 2 268q-7 59 -12 72q-12 37 -40 56q-16 10 -20 3q-16 -24 -22 -50q-29 -127 -39 -186q0 -1 -9 -101q-19 -184 -8 -270q7 -55 12 -111q5 -77 44 -173l2 -2q0 1 1.5 3.5t2.5 3.5q3 4 10 21l6 9q6 10 -2 21l-39 60
q-7 11 -3 25q2 8 5 37q10 -4 17 -6.5t10.5 -3.5t6.5 -1.5t4 -1.5q12 -3 21 -13q10 -15 11 -17zM176 -183q-2 -2 -4 -6q-37 -54 -93 -18q-31 19 -45 57q-3 8 -19 60q-8 29 -16 89q-16 140 -17 154q-7 122 14 296q18 150 31 225q14 79 56 127q14 17 45 19t47 -6q49 -18 71 -62
q9 -17 25 -79q9 -37 10 -86t-1 -87q-5 -175 -8 -226q-8 -105 -22 -195q-4 -30 -16 -86t-16 -80q0 -8 2 -16l9 -24q0 -1 1.5 -3t2.5 -3q13 -18 12 -38q0 -1 -0.5 -4t-1 -11t-0.5 -19q-11 2 -19 3t-11.5 1.5t-5.5 0.5q-20 1 -31 17z" />
    <glyph glyph-name="R" unicode="R" horiz-adv-x="383" 
d="M63 712l-8 -199q19 16 35.5 41t17.5 45q6 74 -45 113zM230 -220q-41 -4 -46 37q-12 79 -18 103q-9 38 -29 108t-23 83q-7 25 -26 93.5t-30 105.5q-4 12 -6 17v-75q0 -90 1 -135q0 -10 2 -30t2 -30q0 -13 -2 -44.5t-1 -49.5q1 -44 9 -134q1 -4 1 -12q0 -9 -2 -14
q-7 -21 -33 -21q-43 0 -43 45q1 52 -3 160q0 16 -1 45t-1.5 53t-0.5 45q0 30 1.5 91t1.5 91q0 25 -2 85t-1 92q0 21 4 58.5t5 50.5q1 30 2 90.5t2 90.5q0 8 5 18q0 2 1 4t4 9.5t7 16.5q16 -7 27.5 -12.5t13.5 -6.5l18 -12q21 -17 65 -51q21 -17 31 -44q3 -8 13 -44
q24 -96 -63 -194q-3 -4 -12 -10l-8 -4q4 -14 11.5 -39.5t10.5 -34.5q9 -33 28 -97.5t28 -97.5q10 -36 25.5 -102t21.5 -88q12 -48 36 -142q1 -4 2 -11.5t1 -8.5q10 -44 -29 -48z" />
    <glyph glyph-name="S" unicode="S" horiz-adv-x="383" 
d="M253 -35q-10 -90 -44 -132q-51 -66 -114 -50q-8 2 -41 26q-41 30 -62 108q-3 10 -5.5 30.5t-5.5 30.5q-8 39 29 46q20 3 30 -7.5t12 -25.5q0 -1 4 -30t8 -43q9 -40 50 -64q15 -8 34 16q33 41 38 122q9 118 -11 225q-5 22 -15 44l-21 48q-6 15 -16 31.5t-18 26.5
t-22.5 28.5t-20.5 25.5q-59 76 -76 141q-4 14 0 32q4 17 5 28q17 108 19 118q14 51 39 70q18 11 39.5 10t37.5 -9q60 -27 65 -104q0 -3 3 -11q4 -11 5 -19q3 -16 0 -30q-4 -15 -22.5 -18t-25.5 6t-12 25q-3 6 -5.5 13t-5 15.5t-4.5 13.5q-7 22 -15 37q-9 17 -23 -2
q-13 -16 -18 -42q-2 -8 -3 -24.5t-3 -24.5q-4 -33 -6 -66q-2 -26 22 -62q2 -4 7 -11.5t8 -10.5q10 -15 30.5 -42.5t28.5 -38.5q38 -54 56 -90q55 -118 47 -267q-1 -14 -0.5 -47t-1.5 -46z" />
    <glyph glyph-name="T" unicode="T" horiz-adv-x="380" 
d="M79 747q-17 2 -52 2q-26 1 -37 10.5t-10 30.5q1 8 22 17.5t49 10.5h28.5h33h24.5q45 0 68 2q47 3 48 -37q2 -41 -47 -41q-8 0 -24.5 0.5t-24.5 1.5v-275q0 -29 5 -167q1 -16 2.5 -44t2.5 -51.5t1 -44.5q1 -50 1.5 -141.5t0.5 -120.5q0 -11 1.5 -38t0.5 -41
q-1 -12 -10.5 -24t-20.5 -15q-21 -6 -34 6t-13 32q1 32 1 95q2 173 1 260q-1 43 -5 123t-5 99q-4 84 -4 127q0 29 1 87.5t1 88.5q0 20 -5 47z" />
    <glyph glyph-name="U" unicode="U" horiz-adv-x="362" 
d="M135 196h-3q1 27 3.5 66t4 67t2.5 53q0 17 -1 53t0 53q0 2 6 115q4 106 5 159q1 13 3 22t11.5 16t26.5 6q40 -3 37 -50q0 -3 -9 -158q-8 -156 -11 -233q-1 -31 -3.5 -87t-4.5 -102t-4 -87q-3 -48 -11 -112q-9 -72 -14 -93q-8 -33 -25 -74q-13 -30 -54 -30t-56 24
q-14 21 -22.5 47.5t-11 43t-6.5 51.5q-14 100 -18 201q-1 27 0 58t3 68.5t3 57.5v80.5t1 80.5q0 8 1.5 25t1.5 26q1 63 3 187q0 4 -0.5 11t-0.5 10v27v6q0 8 2 13q6 23 31 23q35 0 35 -42q0 -39 -0.5 -83t-1.5 -98t-1 -83q0 -98 -1 -147q0 -25 -2 -74.5t-2.5 -74.5t1.5 -74
q1 -10 2.5 -38.5t2.5 -41.5t3 -38t4.5 -41.5t6.5 -37.5t9 -40q2 -6 3 -16.5t2 -13.5q0 -2 0.5 -5t1.5 -5q3 8 7.5 22.5t6.5 21.5q8 24 13 57q3 25 19 212q1 5 1 16z" />
    <glyph glyph-name="V" unicode="V" horiz-adv-x="412" 
d="M217 791q0 3 2 7q5 20 31 22q28 2 34 -23q1 -5 1 -13q0 -1 -0.5 -3t-0.5 -3q-2 -37 -12 -109q-6 -49 -19 -142.5t-19 -138.5q-34 -250 -50 -375q-12 -92 -21 -188q-2 -20 -16 -33t-33 -12q-34 1 -38 46q-12 173 -21 256q-3 31 -12 95.5t-13 97.5q-3 34 -13 187
q-1 4 -1.5 13t-0.5 13l-24 228q-1 11 -5.5 30t-5.5 27q-1 6 2 17q0 2 5 21q59 13 66 -34q1 -12 9 -65t10 -82q4 -42 9.5 -125t9.5 -124q4 -40 13 -113.5t12 -98.5q1 -13 4 -39t4 -39l5 41q3 29 11.5 82t11.5 72q18 118 26 178q7 47 22 163q4 29 9 84t6 62q-2 10 2 18z" />
    <glyph glyph-name="W" unicode="W" horiz-adv-x="500" 
d="M213 30l12 108q5 36 17.5 110.5t18.5 112.5q6 41 28 233q2 18 3.5 39t3 46t2.5 39q1 6 2 26t3 31q1 9 15.5 21t27.5 5q26 -17 26 -33q2 -38 -3 -76q-8 -78 -28 -232q-5 -39 -15 -109t-13 -94q-14 -108 -20 -161q-17 -140 -23 -196q-5 -36 -3 -73q1 -20 -9 -34t-35 -13
q-30 1 -36 31q0 2 -0.5 6t-0.5 6q-1 11 -7 31q-2 6 -5.5 18t-4.5 18q-3 15 -9.5 42.5t-9.5 39.5q-24 -104 -34 -156q-8 -38 -44 -30q-11 3 -20 13.5t-10 22.5q-5 68 -13 206q-8 117 -13 169q-18 211 -18 214q-2 31 -3.5 87t-2.5 80q-3 68 -11 202q-4 19 12 32
q13 14 23.5 9.5t15.5 -12t7 -15.5q11 -38 12 -64q2 -32 4 -97t4 -98q4 -93 12 -191q6 -98 15 -190q2 -19 5 -57.5t5 -58.5q3 13 8.5 39.5t9.5 39.5q4 22 25 29q23 7 38 -12q12 -15 18 -34q3 -12 9 -35t9 -35z" />
    <glyph glyph-name="X" unicode="X" horiz-adv-x="467" 
d="M315 -219q-9 -3 -22.5 8.5t-19.5 31.5q-6 19 -11 46q-8 33 -23 98.5t-23 98.5q-3 14 -11 38l-11 33q-4 12 -13.5 46.5t-15.5 53.5q-10 32 -32 96q-3 -22 -10 -65t-10 -65q-5 -31 -14.5 -93.5t-14.5 -93.5q-4 -30 -12 -89t-12 -89q0 -8 -4 -20q-3 -16 -16.5 -28.5
t-33.5 -4.5q-13 5 -20.5 20.5t-5.5 27.5q8 47 25.5 142t25.5 142q4 25 9.5 72.5t8.5 67.5q3 19 10 52.5t9 45.5q21 112 23 126q1 11 -10 44q-13 44 -39.5 125.5t-37.5 118.5q-3 11 0.5 26.5t15.5 21.5q21 9 35.5 0.5t20.5 -27.5q5 -17 16.5 -57.5t17.5 -63.5q12 -40 17 -60
l9 36q28 102 44 153q4 12 17.5 18t24.5 3q10 -3 19.5 -15t6.5 -24q-2 -10 -5 -21.5t-7 -25.5t-6 -22q-20 -78 -31 -117q-15 -57 -27 -88q-7 -22 -2 -40q8 -28 22 -83t22 -82q4 -15 15 -42.5t15 -41.5q11 -39 30.5 -111.5t25.5 -95.5q3 -11 19.5 -69.5t25.5 -90.5
q4 -16 -4 -39t-26 -28z" />
    <glyph glyph-name="Y" unicode="Y" horiz-adv-x="382" 
d="M248 764q-50 -167 -67 -217q-21 -62 -14 -156q2 -27 3.5 -77t1.5 -61q6 -136 10 -205q1 -24 3.5 -72.5t3.5 -72.5q3 -52 4 -59q5 -25 -9 -41t-53 -29q-3 12 -5 20.5t-3.5 12.5t-1.5 6q-4 14 -4 23q-1 27 -2 112.5t-3 131.5q-1 28 -6 79.5t-6 73.5q-9 117 -9 155
q0 59 -28 156q-6 20 -68 190l-3.5 7t-3.5 8q-5 10 -8 23q-2 10 3 23.5t16 19.5q33 20 51 -24q25 -65 58 -154q8 -19 15 -42q6 20 18.5 60.5t18.5 61.5q15 50 23 69q4 11 15 20t28 6q25 -4 25 -29q0 -4 -3 -19z" />
    <glyph glyph-name="Z" unicode="Z" horiz-adv-x="332" 
d="M116 743q-15 1 -44.5 2.5t-44.5 2.5q-20 2 -28 9l-1 1q-2 0 -2 1l-6 6q-10 10 -10 25q0 22 21 28q7 2 18 2q21 -1 61.5 -3.5t60.5 -3.5q60 -2 50 -58l-27 -156q-17 -93 -49 -279q-22 -120 -30 -180q-5 -35 -22 -203q-7 -59 -10 -83h70q36 0 53 -2q13 -2 21.5 -13t9.5 -21
q2 -12 -8.5 -25t-23.5 -13q-86 0 -154 4q-46 3 -40 54q3 29 10 102t12 112q11 89 29 194q5 29 18 96.5t18 103.5q6 35 13.5 99t11.5 89q2 14 8 39.5t8 34.5q1 5 3.5 16.5t3.5 18.5z" />
    <glyph glyph-name="a" unicode="a" horiz-adv-x="431" 
d="M119 611l-55 -434l124 -6q-19 82 -39.5 235.5t-29.5 204.5zM298 -198q-6 -8 -13 -11q-2 -1 -4.5 -3t-8.5 -6l-15 -10q-6 9 -10 14.5t-6 8t-2 3.5q-8 8 -9 20q-1 11 -3.5 45.5t-4.5 53.5q-6 64 -22 179l-1 1l-2 1q-80 21 -138 8q0 -8 -1.5 -24.5t-2.5 -25.5
q-4 -103 -5 -152v-38t-1 -38q-1 -21 -16.5 -34t-52.5 -4v37.5v36v26.5q4 138 9 205q2 23 5 49t7 57t6 49q4 34 11 100.5t11 99.5q4 27 8.5 57.5t10 68t8.5 57.5q2 12 4 37t3 37q8 52 15 77q3 10 16 20q6 5 34 28q15 -30 23 -44q9 -16 10 -26q11 -57 27 -171l21 -168
q6 -34 18.5 -97t16.5 -88q23 -133 34 -208q3 -21 6 -45t6.5 -52.5t5.5 -44.5q3 -19 9 -55q0 -1 0.5 -5t0.5 -6q0 -13 -8 -20z" />
    <glyph glyph-name="b" unicode="b" horiz-adv-x="353" 
d="M137 202q-23 65 -78 81v-401q44 40 55 65q3 8 10.5 22.5t10.5 20.5q10 19 15 38q18 85 -13 174zM59 727v-346l2 1q76 39 71 132q-1 24 -8 50q-1 6 -4 17t-5 20t-3 17q-12 66 -53 109zM218 21q-18 -101 -120 -209q-17 -19 -61 -30q-25 -7 -38 7.5t-12 36.5q4 107 5 164
q0 20 -1.5 73t-0.5 81q0 24 2.5 69.5t2.5 63.5q1 9 -1 25.5t-2 23.5q-3 248 -1 286q1 33 -11 169q-2 12 8 24.5t23 13.5q40 4 74.5 -18t51.5 -59q3 -7 10 -19t9 -17q13 -22 18 -41q37 -131 22 -208q-13 -68 -79 -123q21 -16 24 -17q31 -15 49 -51q6 -12 20 -55
q15 -45 15 -76q2 -61 -7 -114z" />
    <glyph glyph-name="c" unicode="c" horiz-adv-x="364" 
d="M228 -83q-13 -50 -30 -84q-15 -27 -40.5 -42.5t-53.5 -8.5q-50 12 -76 68q-6 12 -10.5 26t-7.5 24t-6 27.5t-4.5 24.5t-3.5 28t-2.5 25t-2 28.5t-1.5 26.5q-1 11 -5 64t-5 82q0 20 1 43t2.5 51t2.5 43q0 12 -0.5 54.5t1.5 54.5q12 153 20 192q4 21 11.5 42.5t20 52
t16.5 41.5q10 25 38.5 34t58.5 4q40 -7 58 -59q11 -31 15 -88q1 -6 -1 -13.5t-8 -17t-19 -10.5t-34 5q-2 12 -5.5 36.5t-5.5 35.5q-3 15 -7 19l-12 12q-2 5 -3 4q-15 -3 -19 -16q-23 -55 -31 -104q-14 -76 -22 -165q-2 -13 -1.5 -62.5t0.5 -63.5q0 -18 -2 -54t-2 -54
q0 -19 5 -107q0 -3 4.5 -63.5t7.5 -90.5q7 -63 36 -95q24 -27 44 43q14 49 19 99q5 41 44 38q20 -1 30 -15.5t5 -32.5q-4 -14 -10.5 -41.5t-9.5 -40.5z" />
    <glyph glyph-name="d" unicode="d" horiz-adv-x="381" 
d="M70 730l-11 -840q48 44 76 133q9 31 31 167q7 43 9 89q1 23 1 86.5t2 98.5q4 82 -25 176q-20 61 -83 90zM235 209q-9 -73 -28 -175q-2 -11 -6 -22t-9.5 -24t-8.5 -20q-4 -11 -5 -19q-10 -45 -42 -80q-37 -42 -73 -75q-32 -31 -66 8q-17 18 -17 41q0 5 1 15t1 15
q6 129 7 191q3 118 3 236v151t1 151q0 18 2.5 54t3.5 55q0 8 -0.5 17t-1.5 20t-1 18q-1 34 17.5 47t50.5 1q117 -43 152 -142q39 -108 31 -180q5 -87 4 -108q-4 -74 -16 -175z" />
    <glyph glyph-name="e" unicode="e" 
d="M54 -136q29 0 75 -12q11 -2 21 -17q1 -4 4 -8q0 -2 14 -21q-9 -6 -14.5 -10t-8 -6t-3.5 -2q-16 -8 -22 -8q-10 0 -58 5q-3 1 -8.5 2t-8.5 1q-22 2 -30 4q-32 7 -35 41q0 18 1 32q2 44 4 134q0 16 2 63t2 73v102t1 102q0 32 3 98t4 99q1 41 0 115t-1 98q0 2 -1 7.5t-1 8.5
q-2 17 6 28q22 24 47 25q21 2 60.5 2h48.5q44 0 45 -37q0 -20 -12.5 -31t-31.5 -11h-91v-229q44 5 53 7q18 4 31 -4.5t15 -24.5q1 -9 -0.5 -18.5t-10.5 -19t-25 -9.5l-66 -3q-1 -32 -2 -94.5t-2 -94.5q-1 -50 -2.5 -150t-2.5 -150v-87z" />
    <glyph glyph-name="f" unicode="f" horiz-adv-x="314" 
d="M64 413q-1 -29 -3.5 -85.5t-3.5 -84.5q0 -9 -2 -36t-2 -42q0 -19 2.5 -59t3.5 -60q1 -29 -2 -174q0 -42 -3 -56q-2 -12 -12 -22t-21 -13q-23 -5 -32.5 9t-8.5 31q1 16 5 66.5t5 78.5q1 18 -0.5 50.5t-1.5 44.5q0 20 1 58.5t1 57.5q0 15 -1 47t-0.5 56t2.5 46
q5 28 3 101.5t0 101.5l12 192q0 6 -0.5 13.5t-1.5 16.5t-1 14q-4 38 38 46q6 1 22 4t24 4q46 2 69 -1q13 -1 24 -12.5t13 -23.5q3 -20 -10.5 -31.5t-29.5 -12.5q-4 -1 -11.5 0t-9.5 1q-3 0 -8.5 0.5t-8.5 0.5q-21 1 -41 0l-11 -253q6 -1 16.5 -3t15.5 -3q16 -2 23 -5
q23 -11 19 -36q-3 -23 -20.5 -28.5t-35.5 -1.5q-1 0 -17 3z" />
    <glyph glyph-name="g" unicode="g" horiz-adv-x="378" 
d="M238 67q-11 -69 -36 -194q-6 -30 -24 -58q-26 -37 -67.5 -35t-69.5 38q-15 18 -23 53q-3 13 -7.5 43t-8.5 45q-6 19 -9.5 42t-5 37t-3 44.5t-2.5 39.5q-4 49 3 198q3 99 13 186q7 70 29 178q4 18 31 89q12 34 58.5 44.5t73.5 -13.5q22 -12 46.5 -41.5t16.5 -48.5
q-6 -13 -19 -16q-22 -8 -42 10l-10 10l-3 3q-4 1 -14 8q-2 1 -4 3t-4 3q-17 11 -26 7.5t-14 -23.5q-24 -89 -39 -171q-7 -38 -13 -116q-10 -104 -12 -156q-1 -20 1 -58t1 -58q-3 -78 22 -217q5 -30 26 -76q5 -10 9 -10q6 0 9 10q5 22 15 63t17.5 74.5t12.5 63.5q3 15 13 142
q-30 0 -44 3q-12 2 -28.5 14t-15.5 22q2 20 14.5 33.5t37.5 10.5q11 -2 36.5 -3.5t39.5 -4.5q13 -2 25 -16t11 -28q-7 -104 -17 -174z" />
    <glyph glyph-name="h" unicode="h" horiz-adv-x="367" 
d="M229 -171q-13 -34 -35 -38t-32 11.5t-10 32.5q2 115 0 173q-1 29 -3 61.5t-5 72t-4 61.5v17q1 3 -0.5 3.5t-6.5 0.5q-26 -1 -85 -5v-35q4 -114 5 -171q1 -19 0.5 -55.5t-0.5 -54.5q0 -13 2 -39t2 -39q0 -23 -14 -36q-7 -7 -20.5 -8.5t-24.5 4.5q-18 13 -18 37
q0 22 1.5 66t1.5 66q-3 237 -2 267l15 294q1 18 0 51t-1 44q-1 51 -1 169q0 11 8 22t20 14t23 -4.5t15 -15.5q7 -12 7 -33q-3 -126 -4 -157q-4 -151 -7 -230q-1 -25 -3 -77h87v38q0 122 -1 184q0 50 -2 146q0 12 -2 50t-2 59q0 43 36 45q16 1 26 -7.5t12 -17t2 -17.5
q0 -17 -0.5 -51.5t-0.5 -51.5q0 -23 0.5 -69t0.5 -69q0 -14 -2.5 -76t-1.5 -95q2 -61 7 -174t6 -148q1 -30 5 -91t5 -92q0 -1 1 -2q4 -21 0 -30z" />
    <glyph glyph-name="i" unicode="i" horiz-adv-x="210" 
d="M71 687l-48 -4l46 48q-9 -199 -11 -263q-1 -38 -1.5 -107.5t-0.5 -91.5q0 -29 -2 -88t-3 -89q0 -15 2 -42t2 -37q3 -160 2 -193q0 -12 -11.5 -26t-26.5 -14q-19 1 -29.5 13t-9.5 32q3 100 3 202q0 38 -0.5 112.5t-0.5 111.5q0 108 1 162q1 25 4 87.5t4 96.5q1 39 -4 175
q0 48 40 48q25 0 33 -21q0 -1 3 -23q4 -46 8 -89z" />
    <glyph glyph-name="j" unicode="j" horiz-adv-x="376" 
d="M79 -136q10 10 10 26q-1 17 2.5 49t3.5 44l6 267q2 140 2 211q1 42 1 126t1 126q0 1 -0.5 2.5t-0.5 2.5q0 16 -1 22q0 4 -1 5q0 -1 -2 -1q-5 1 -23 1q-18 1 -36 13.5t-15 30.5q5 33 63 31h88q22 0 42 -8q6 -1 14 -6q16 -11 12 -37q-4 -27 -31 -31h-14q-1 0 -3.5 0.5
t-3.5 0.5q-7 -1 -20 -1l1 -45l1 -29q1 -17 1 -51v-51q0 -11 -5 -61q-1 -16 -1 -47v-94l3 -93q-1 -31 -2.5 -93.5t-1.5 -93.5q-2 -108 -4 -162q-2 -53 -11 -74q-20 -51 -74 -63q-27 -6 -47 10t-26 43q-11 46 -15 96q-8 80 -12 160q-1 12 8.5 26.5t21.5 18.5q22 8 33 -5.5
t12 -32.5q1 -14 3 -50t4 -55q5 -55 17 -128z" />
    <glyph glyph-name="k" unicode="k" horiz-adv-x="402" 
d="M59 454l-1 -7q4 11 13.5 30.5t13.5 27.5q20 45 58 135l60 150q7 16 10 20q16 18 39 6q34 -18 18 -57q-10 -23 -27.5 -70t-27.5 -70q-18 -40 -55 -119t-55 -119q-14 -30 -20 -45l2 -4q6 -14 42 -94q13 -28 21 -50q12 -33 34 -99q40 -128 59 -192q12 -37 8 -69
q-1 -12 -9.5 -25.5t-24.5 -16.5q-17 -4 -28.5 8t-14.5 25q-7 26 -19.5 86.5t-18.5 85.5q-3 10 -10.5 32t-10.5 34q-24 94 -59 152q0 -5 -0.5 -15t-0.5 -14q-1 -28 -1 -84q1 -44 2.5 -132t2.5 -132q0 -25 -9 -35q-17 -20 -39 -17q-13 2 -22 14.5t-9 23.5q0 24 1.5 71t1.5 70
q1 42 1 126v126q0 118 4 213q1 29 6 87t6 87q0 1 3 164l-3 9q-6 19 9 31q12 20 33 17q17 -2 26.5 -47t7.5 -79q-2 -32 -8.5 -113.5t-8.5 -125.5z" />
    <glyph glyph-name="l" unicode="l" horiz-adv-x="284" 
d="M61 -137v-2q45 3 46 3q25 0 41 -11t12 -36q-3 -21 -60.5 -30t-87.5 -2q-34 8 -32 44q2 48 2 73q4 233 7 347q0 25 2.5 91.5t2.5 102.5t-5 216q-3 95 -2 114q0 41 33 47q25 4 35 -23q3 -7 3 -23q2 -93 4 -279l1 -109q1 -110 -1 -110q0 -31 -3.5 -101t-3.5 -108
q0 -37 2.5 -105.5t2.5 -95.5v-1q1 -1 1 -2z" />
    <glyph glyph-name="m" unicode="m" horiz-adv-x="451" 
d="M132 589l48 158q10 34 13 41q4 10 18 20.5t23 7.5q31 -12 37 -30q8 -21 8 -53q1 -19 0 -58.5t-1 -58.5q3 -112 9 -223q3 -69 11 -196q1 -12 6.5 -73t6.5 -94q2 -41 2 -186v-9v-1q8 -21 -3 -36.5t-29 -17.5q-21 -2 -32.5 12t-10.5 34q5 69 5 78q0 30 -8 191q0 9 -1.5 28.5
t-2.5 29.5q-2 58 -1 75q1 12 -4 70q-1 13 -4 40t-4 41q-4 47 -10 141q-2 46 -2 70l-4 -13q-6 -20 -13.5 -58.5t-9.5 -46.5q-10 -41 -45 -43q-37 -3 -47 42q-12 64 -20 96q-3 12 -7 19q-1 4 -5 12q2 -88 2 -132q0 -46 -0.5 -138t0.5 -139q0 -95 3 -190q1 -22 5 -72.5t5 -76.5
q1 -14 -10 -27t-23 -16q-23 -7 -34 7.5t-11 30.5q0 1 -3 214q0 16 -1 46t-1.5 54.5t-0.5 45.5q0 31 1 91t1 90q0 40 -2 120l-3 120q-1 19 0 55t1 47q0 3 -1 9.5t-1 9.5q-3 19 -2 26q3 34 25 42q7 7 28 4t29 -26q11 -32 53 -149q10 -31 17 -55z" />
    <glyph glyph-name="n" unicode="n" horiz-adv-x="458" 
d="M237 131q0 5 1 13.5t1.5 15.5t0.5 13q0 14 -2 40.5t-2 39.5q-1 59 -1 177q-1 78 1 230q0 67 4 120q1 13 17 29q1 0 21 25q16 -24 18 -26q13 -17 13 -28q0 -38 -2 -113t-2 -112q-2 -116 0 -230q0 -28 2.5 -80.5t2.5 -72.5v-146v-195q0 -26 -13.5 -39.5t-33.5 -11.5
q-18 2 -33 16t-17 35q-14 129 -20 163q-7 42 -37 189q-2 11 -8.5 32t-9.5 31q-6 26 -16 78q-33 154 -43 196q-5 21 -11.5 44.5t-14.5 51.5t-13 44q-4 12 -11 26l18 9q7 -15 9 -39q1 -14 1 -43q1 -20 1.5 -59t0.5 -59q2 -40 2 -60q0 -152 1 -227q1 -31 4 -86.5t4 -77.5t2 -62
t2 -72.5t2 -61.5q1 -21 -10.5 -33t-30.5 -12q-11 0 -25.5 11.5t-11.5 26.5q6 29 4 89q-5 78 -5 92q0 18 -1.5 122.5t-2.5 120.5q-1 33 -1 194q0 11 1 44.5t0 51.5q0 14 -3 38.5t-3 34.5l-3 114v7t-1 6q-3 9 -3.5 18t6.5 20.5t23 15.5q45 10 59 -28q39 -102 41 -111
q8 -30 16.5 -64.5t18.5 -77t16 -65.5q59 -245 68 -288q1 -7 4 -21.5t5 -22.5z" />
    <glyph glyph-name="o" unicode="o" horiz-adv-x="384" 
d="M170 678q-2 38 -25 57q-4 4 -7 6q-5 5 -7 9q0 1 -1 -1l-2 -2q-31 -29 -44 -98q-24 -142 -34 -262q-2 -30 -2 -221q5 -36 17 -114.5t18 -120.5q7 -42 19 -62q7 -11 25 -16l-2 2q2 2 4 7t3 6q4 8 7 22q3 8 7 24q15 50 21 143q1 13 4.5 66t6.5 82q3 25 3.5 57t0 58t0.5 58
q3 149 2 168q-1 24 -7 69t-7 63zM253 327q-3 -65 -11 -184q-9 -128 -14 -166q-4 -35 -26 -127q-13 -60 -65 -69q-26 -5 -54.5 8t-42.5 38q-13 21 -18 49q-3 16 -11.5 64t-15.5 83h4q-12 73 -13 92q-6 97 -6 196t7 184q3 41 19 118q13 69 28 107q12 32 47 82q17 20 52 18.5
t51 -16.5q54 -48 57 -111q1 -15 6.5 -48.5t6.5 -51.5v-165q0 -67 -1 -101z" />
    <glyph glyph-name="p" unicode="p" 
d="M110 708q-5 17 -24 28l-17 -238q7 1 21 5q23 4 31 31q21 66 -11 174zM76 424q-1 0 -4 -1t-4 -2q0 -52 -1 -77q-1 -23 -3.5 -91t-3.5 -105q-1 -39 -1 -231v-100q-1 -11 -11.5 -23.5t-23.5 -13.5q-11 -1 -24.5 8t-16.5 22q-3 14 -3 55q1 46 5 138q1 29 4 87.5t4 87.5
q1 31 3 93.5t3 93.5q1 35 4.5 106t4.5 106q1 24 4 73t4 74q1 18 -2 37q-8 33 8 48t50 8q85 -20 108 -90q30 -93 18 -175q-14 -104 -122 -128z" />
    <glyph glyph-name="q" unicode="q" horiz-adv-x="415" 
d="M164 -8q13 66 17 88v17q-2 17 0 26q11 65 22 226q10 186 2 268q-7 59 -12 72q-12 37 -40 56q-16 10 -20 3q-16 -24 -22 -50q-29 -127 -39 -186q0 -1 -9 -101q-19 -184 -8 -270q7 -55 12 -111q5 -77 44 -173l2 -2q0 1 1.5 3.5t2.5 3.5q3 4 10 21l6 9q6 10 -2 21l-39 60
q-7 11 -3 25q2 8 5 37q10 -4 17 -6.5t10.5 -3.5t6.5 -1.5t4 -1.5q12 -3 21 -13q10 -15 11 -17zM176 -183q-2 -2 -4 -6q-37 -54 -93 -18q-31 19 -45 57q-3 8 -19 60q-8 29 -16 89q-16 140 -17 154q-7 122 14 296q18 150 31 225q14 79 56 127q14 17 45 19t47 -6q49 -18 71 -62
q9 -17 25 -79q9 -37 10 -86t-1 -87q-5 -175 -8 -226q-8 -105 -22 -195q-4 -30 -16 -86t-16 -80q0 -8 2 -16l9 -24q0 -1 1.5 -3t2.5 -3q13 -18 12 -38q0 -1 -0.5 -4t-1 -11t-0.5 -19q-11 2 -19 3t-11.5 1.5t-5.5 0.5q-20 1 -31 17z" />
    <glyph glyph-name="r" unicode="r" horiz-adv-x="383" 
d="M63 712l-8 -199q19 16 35.5 41t17.5 45q6 74 -45 113zM230 -220q-41 -4 -46 37q-12 79 -18 103q-9 38 -29 108t-23 83q-7 25 -26 93.5t-30 105.5q-4 12 -6 17v-75q0 -90 1 -135q0 -10 2 -30t2 -30q0 -13 -2 -44.5t-1 -49.5q1 -44 9 -134q1 -4 1 -12q0 -9 -2 -14
q-7 -21 -33 -21q-43 0 -43 45q1 52 -3 160q0 16 -1 45t-1.5 53t-0.5 45q0 30 1.5 91t1.5 91q0 25 -2 85t-1 92q0 21 4 58.5t5 50.5q1 30 2 90.5t2 90.5q0 8 5 18q0 2 1 4t4 9.5t7 16.5q16 -7 27.5 -12.5t13.5 -6.5l18 -12q21 -17 65 -51q21 -17 31 -44q3 -8 13 -44
q24 -96 -63 -194q-3 -4 -12 -10l-8 -4q4 -14 11.5 -39.5t10.5 -34.5q9 -33 28 -97.5t28 -97.5q10 -36 25.5 -102t21.5 -88q12 -48 36 -142q1 -4 2 -11.5t1 -8.5q10 -44 -29 -48z" />
    <glyph glyph-name="s" unicode="s" horiz-adv-x="383" 
d="M253 -35q-10 -90 -44 -132q-51 -66 -114 -50q-8 2 -41 26q-41 30 -62 108q-3 10 -5.5 30.5t-5.5 30.5q-8 39 29 46q20 3 30 -7.5t12 -25.5q0 -1 4 -30t8 -43q9 -40 50 -64q15 -8 34 16q33 41 38 122q9 118 -11 225q-5 22 -15 44l-21 48q-6 15 -16 31.5t-18 26.5
t-22.5 28.5t-20.5 25.5q-59 76 -76 141q-4 14 0 32q4 17 5 28q17 108 19 118q14 51 39 70q18 11 39.5 10t37.5 -9q60 -27 65 -104q0 -3 3 -11q4 -11 5 -19q3 -16 0 -30q-4 -15 -22.5 -18t-25.5 6t-12 25q-3 6 -5.5 13t-5 15.5t-4.5 13.5q-7 22 -15 37q-9 17 -23 -2
q-13 -16 -18 -42q-2 -8 -3 -24.5t-3 -24.5q-4 -33 -6 -66q-2 -26 22 -62q2 -4 7 -11.5t8 -10.5q10 -15 30.5 -42.5t28.5 -38.5q38 -54 56 -90q55 -118 47 -267q-1 -14 -0.5 -47t-1.5 -46z" />
    <glyph glyph-name="t" unicode="t" horiz-adv-x="380" 
d="M79 747q-17 2 -52 2q-26 1 -37 10.5t-10 30.5q1 8 22 17.5t49 10.5h28.5h33h24.5q45 0 68 2q47 3 48 -37q2 -41 -47 -41q-8 0 -24.5 0.5t-24.5 1.5v-275q0 -29 5 -167q1 -16 2.5 -44t2.5 -51.5t1 -44.5q1 -50 1.5 -141.5t0.5 -120.5q0 -11 1.5 -38t0.5 -41
q-1 -12 -10.5 -24t-20.5 -15q-21 -6 -34 6t-13 32q1 32 1 95q2 173 1 260q-1 43 -5 123t-5 99q-4 84 -4 127q0 29 1 87.5t1 88.5q0 20 -5 47z" />
    <glyph glyph-name="u" unicode="u" horiz-adv-x="362" 
d="M135 196h-3q1 27 3.5 66t4 67t2.5 53q0 17 -1 53t0 53q0 2 6 115q4 106 5 159q1 13 3 22t11.5 16t26.5 6q40 -3 37 -50q0 -3 -9 -158q-8 -156 -11 -233q-1 -31 -3.5 -87t-4.5 -102t-4 -87q-3 -48 -11 -112q-9 -72 -14 -93q-8 -33 -25 -74q-13 -30 -54 -30t-56 24
q-14 21 -22.5 47.5t-11 43t-6.5 51.5q-14 100 -18 201q-1 27 0 58t3 68.5t3 57.5v80.5t1 80.5q0 8 1.5 25t1.5 26q1 63 3 187q0 4 -0.5 11t-0.5 10v27v6q0 8 2 13q6 23 31 23q35 0 35 -42q0 -39 -0.5 -83t-1.5 -98t-1 -83q0 -98 -1 -147q0 -25 -2 -74.5t-2.5 -74.5t1.5 -74
q1 -10 2.5 -38.5t2.5 -41.5t3 -38t4.5 -41.5t6.5 -37.5t9 -40q2 -6 3 -16.5t2 -13.5q0 -2 0.5 -5t1.5 -5q3 8 7.5 22.5t6.5 21.5q8 24 13 57q3 25 19 212q1 5 1 16z" />
    <glyph glyph-name="v" unicode="v" horiz-adv-x="412" 
d="M217 791q0 3 2 7q5 20 31 22q28 2 34 -23q1 -5 1 -13q0 -1 -0.5 -3t-0.5 -3q-2 -37 -12 -109q-6 -49 -19 -142.5t-19 -138.5q-34 -250 -50 -375q-12 -92 -21 -188q-2 -20 -16 -33t-33 -12q-34 1 -38 46q-12 173 -21 256q-3 31 -12 95.5t-13 97.5q-3 34 -13 187
q-1 4 -1.5 13t-0.5 13l-24 228q-1 11 -5.5 30t-5.5 27q-1 6 2 17q0 2 5 21q59 13 66 -34q1 -12 9 -65t10 -82q4 -42 9.5 -125t9.5 -124q4 -40 13 -113.5t12 -98.5q1 -13 4 -39t4 -39l5 41q3 29 11.5 82t11.5 72q18 118 26 178q7 47 22 163q4 29 9 84t6 62q-2 10 2 18z" />
    <glyph glyph-name="w" unicode="w" horiz-adv-x="500" 
d="M213 30l12 108q5 36 17.5 110.5t18.5 112.5q6 41 28 233q2 18 3.5 39t3 46t2.5 39q1 6 2 26t3 31q1 9 15.5 21t27.5 5q26 -17 26 -33q2 -38 -3 -76q-8 -78 -28 -232q-5 -39 -15 -109t-13 -94q-14 -108 -20 -161q-17 -140 -23 -196q-5 -36 -3 -73q1 -20 -9 -34t-35 -13
q-30 1 -36 31q0 2 -0.5 6t-0.5 6q-1 11 -7 31q-2 6 -5.5 18t-4.5 18q-3 15 -9.5 42.5t-9.5 39.5q-24 -104 -34 -156q-8 -38 -44 -30q-11 3 -20 13.5t-10 22.5q-5 68 -13 206q-8 117 -13 169q-18 211 -18 214q-2 31 -3.5 87t-2.5 80q-3 68 -11 202q-4 19 12 32
q13 14 23.5 9.5t15.5 -12t7 -15.5q11 -38 12 -64q2 -32 4 -97t4 -98q4 -93 12 -191q6 -98 15 -190q2 -19 5 -57.5t5 -58.5q3 13 8.5 39.5t9.5 39.5q4 22 25 29q23 7 38 -12q12 -15 18 -34q3 -12 9 -35t9 -35z" />
    <glyph glyph-name="x" unicode="x" horiz-adv-x="467" 
d="M315 -219q-9 -3 -22.5 8.5t-19.5 31.5q-6 19 -11 46q-8 33 -23 98.5t-23 98.5q-3 14 -11 38l-11 33q-4 12 -13.5 46.5t-15.5 53.5q-10 32 -32 96q-3 -22 -10 -65t-10 -65q-5 -31 -14.5 -93.5t-14.5 -93.5q-4 -30 -12 -89t-12 -89q0 -8 -4 -20q-3 -16 -16.5 -28.5
t-33.5 -4.5q-13 5 -20.5 20.5t-5.5 27.5q8 47 25.5 142t25.5 142q4 25 9.5 72.5t8.5 67.5q3 19 10 52.5t9 45.5q21 112 23 126q1 11 -10 44q-13 44 -39.5 125.5t-37.5 118.5q-3 11 0.5 26.5t15.5 21.5q21 9 35.5 0.5t20.5 -27.5q5 -17 16.5 -57.5t17.5 -63.5q12 -40 17 -60
l9 36q28 102 44 153q4 12 17.5 18t24.5 3q10 -3 19.5 -15t6.5 -24q-2 -10 -5 -21.5t-7 -25.5t-6 -22q-20 -78 -31 -117q-15 -57 -27 -88q-7 -22 -2 -40q8 -28 22 -83t22 -82q4 -15 15 -42.5t15 -41.5q11 -39 30.5 -111.5t25.5 -95.5q3 -11 19.5 -69.5t25.5 -90.5
q4 -16 -4 -39t-26 -28z" />
    <glyph glyph-name="y" unicode="y" horiz-adv-x="382" 
d="M248 764q-50 -167 -67 -217q-21 -62 -14 -156q2 -27 3.5 -77t1.5 -61q6 -136 10 -205q1 -24 3.5 -72.5t3.5 -72.5q3 -52 4 -59q5 -25 -9 -41t-53 -29q-3 12 -5 20.5t-3.5 12.5t-1.5 6q-4 14 -4 23q-1 27 -2 112.5t-3 131.5q-1 28 -6 79.5t-6 73.5q-9 117 -9 155
q0 59 -28 156q-6 20 -68 190l-3.5 7t-3.5 8q-5 10 -8 23q-2 10 3 23.5t16 19.5q33 20 51 -24q25 -65 58 -154q8 -19 15 -42q6 20 18.5 60.5t18.5 61.5q15 50 23 69q4 11 15 20t28 6q25 -4 25 -29q0 -4 -3 -19z" />
    <glyph glyph-name="z" unicode="z" horiz-adv-x="332" 
d="M116 743q-15 1 -44.5 2.5t-44.5 2.5q-20 2 -28 9l-1 1q-2 0 -2 1l-6 6q-10 10 -10 25q0 22 21 28q7 2 18 2q21 -1 61.5 -3.5t60.5 -3.5q60 -2 50 -58l-27 -156q-17 -93 -49 -279q-22 -120 -30 -180q-5 -35 -22 -203q-7 -59 -10 -83h70q36 0 53 -2q13 -2 21.5 -13t9.5 -21
q2 -12 -8.5 -25t-23.5 -13q-86 0 -154 4q-46 3 -40 54q3 29 10 102t12 112q11 89 29 194q5 29 18 96.5t18 103.5q6 35 13.5 99t11.5 89q2 14 8 39.5t8 34.5q1 5 3.5 16.5t3.5 18.5z" />
    <glyph glyph-name="_106" horiz-adv-x="1000" 
 />
  </font>
</defs>
</svg>
