<?xml version="1.0" encoding="utf-8"?>
<!-- Generator: Adobe Illustrator 18.1.0, SVG Export Plug-In . SVG Version: 6.00 Build 0)  -->
<!DOCTYPE svg PUBLIC "-//W3C//DTD SVG 1.1//EN" "http://www.w3.org/Graphics/SVG/1.1/DTD/svg11.dtd">
<svg version="1.1" id="Layer_1" xmlns="http://www.w3.org/2000/svg" xmlns:xlink="http://www.w3.org/1999/xlink" x="0px" y="0px"
	 viewBox="0 0 75 15" enable-background="new 0 0 75 15" xml:space="preserve">
<g>
	<g>
		<path fill="#333F48" d="M1.9,4.1l0,0.9l0,0c0.2-0.4,0.5-0.6,0.9-0.8C3.2,4,3.6,3.9,4,3.9c0.4,0,0.8,0.1,1.2,0.2
			C5.6,4.4,5.9,4.6,6,5.1c0.2-0.3,0.5-0.6,0.8-0.8C7.2,4,7.6,3.9,8.1,3.9c0.4,0,0.7,0,1,0.1c0.3,0.1,0.6,0.2,0.8,0.4
			c0.2,0.2,0.4,0.4,0.5,0.8c0.1,0.3,0.2,0.7,0.2,1.1l0,4.6l-1.9,0l0-3.9c0-0.2,0-0.4,0-0.7c0-0.2-0.1-0.4-0.1-0.5
			C8.5,5.8,8.4,5.6,8.2,5.5C8.1,5.5,7.9,5.4,7.6,5.4c-0.3,0-0.5,0.1-0.6,0.2C6.8,5.7,6.7,5.8,6.6,6S6.4,6.3,6.4,6.5
			c0,0.2,0,0.4,0,0.6l0,3.8l-1.9,0l0-3.9c0-0.2,0-0.4,0-0.6c0-0.2,0-0.4-0.1-0.6C4.2,5.8,4.1,5.7,4,5.6C3.8,5.5,3.6,5.4,3.3,5.4
			c-0.1,0-0.2,0-0.4,0.1c-0.1,0-0.3,0.1-0.4,0.2C2.4,5.8,2.3,6,2.2,6.2C2.1,6.4,2,6.7,2,7l0,4l-1.9,0l0-6.9L1.9,4.1z"/>
		<path fill="#333F48" d="M12,5.1c0.2-0.3,0.4-0.5,0.7-0.7c0.3-0.2,0.6-0.3,1-0.4c0.4-0.1,0.8-0.1,1.1-0.1c0.3,0,0.7,0,1.1,0.1
			c0.4,0,0.7,0.1,1,0.3c0.3,0.1,0.5,0.3,0.7,0.6c0.2,0.3,0.3,0.6,0.3,1l0,3.6c0,0.3,0,0.6,0.1,0.9c0,0.3,0.1,0.5,0.2,0.6l-1.9,0
			c0-0.1-0.1-0.2-0.1-0.3c0-0.1,0-0.2,0-0.3c-0.3,0.3-0.7,0.5-1.1,0.7c-0.4,0.1-0.8,0.2-1.3,0.2c-0.3,0-0.6,0-0.9-0.1
			s-0.5-0.2-0.7-0.4c-0.2-0.2-0.4-0.4-0.5-0.6c-0.1-0.3-0.2-0.6-0.2-0.9c0-0.4,0.1-0.7,0.2-1c0.1-0.3,0.3-0.5,0.5-0.6
			c0.2-0.2,0.5-0.3,0.7-0.3c0.3-0.1,0.6-0.1,0.8-0.2c0.3,0,0.6-0.1,0.8-0.1c0.3,0,0.5-0.1,0.7-0.1s0.4-0.1,0.5-0.2
			C16,6.4,16.1,6.3,16,6.1c0-0.2,0-0.4-0.1-0.5c-0.1-0.1-0.2-0.2-0.3-0.3c-0.1-0.1-0.2-0.1-0.4-0.1c-0.1,0-0.3,0-0.5,0
			c-0.4,0-0.7,0.1-0.9,0.2c-0.2,0.2-0.3,0.4-0.4,0.8l-1.9,0C11.7,5.8,11.8,5.4,12,5.1z M15.8,7.8c-0.1,0-0.2,0.1-0.4,0.1
			c-0.1,0-0.3,0-0.4,0.1c-0.2,0-0.3,0-0.5,0.1c-0.1,0-0.3,0.1-0.4,0.1c-0.1,0-0.3,0.1-0.4,0.2c-0.1,0.1-0.2,0.2-0.2,0.3
			c-0.1,0.1-0.1,0.3-0.1,0.4c0,0.2,0,0.3,0.1,0.4c0.1,0.1,0.1,0.2,0.3,0.3c0.1,0.1,0.2,0.1,0.4,0.1c0.1,0,0.3,0,0.4,0
			c0.4,0,0.7-0.1,0.9-0.2c0.2-0.1,0.4-0.3,0.5-0.4C15.9,9.1,16,8.9,16,8.7c0-0.2,0-0.3,0-0.4l0-0.7C16,7.7,15.9,7.7,15.8,7.8z"/>
		<path fill="#333F48" d="M23.9,10.1c-0.2,0.4-0.5,0.6-0.9,0.8c-0.4,0.2-0.8,0.2-1.2,0.3c-0.5,0-1-0.1-1.4-0.3
			c-0.4-0.2-0.7-0.5-1-0.8c-0.3-0.3-0.4-0.7-0.6-1.2s-0.2-0.9-0.2-1.4c0-0.5,0.1-0.9,0.2-1.3C19,5.7,19.2,5.3,19.5,5
			c0.3-0.3,0.6-0.6,0.9-0.8c0.4-0.2,0.8-0.3,1.3-0.3c0.4,0,0.8,0.1,1.2,0.3c0.4,0.2,0.7,0.4,0.9,0.8l0,0l0-3.5l1.9,0l0,9.5l-1.8,0
			L23.9,10.1L23.9,10.1z M23.8,6.7c-0.1-0.3-0.1-0.5-0.3-0.7c-0.1-0.2-0.3-0.4-0.5-0.5c-0.2-0.1-0.5-0.2-0.8-0.2
			c-0.3,0-0.6,0.1-0.8,0.2C21.3,5.6,21.1,5.8,21,6c-0.1,0.2-0.2,0.4-0.3,0.7c-0.1,0.3-0.1,0.5-0.1,0.8c0,0.3,0,0.5,0.1,0.8
			C20.8,8.6,20.9,8.8,21,9c0.1,0.2,0.3,0.4,0.5,0.5c0.2,0.1,0.5,0.2,0.8,0.2c0.3,0,0.6-0.1,0.8-0.2c0.2-0.1,0.4-0.3,0.5-0.5
			c0.1-0.2,0.2-0.4,0.3-0.7c0.1-0.3,0.1-0.5,0.1-0.8S23.9,6.9,23.8,6.7z"/>
	</g>
	<g>
		<path fill="#333F48" d="M32.8,5.1c0.2-0.3,0.4-0.5,0.7-0.7s0.6-0.3,1-0.4c0.4-0.1,0.8-0.1,1.1-0.1c0.3,0,0.7,0,1.1,0.1
			c0.4,0,0.7,0.1,1,0.3c0.3,0.1,0.5,0.3,0.7,0.6c0.2,0.3,0.3,0.6,0.3,1l0,3.6c0,0.3,0,0.6,0.1,0.9c0,0.3,0.1,0.5,0.2,0.6L37,11
			c0-0.1-0.1-0.2-0.1-0.3c0-0.1,0-0.2,0-0.3c-0.3,0.3-0.7,0.5-1.1,0.7c-0.4,0.1-0.8,0.2-1.3,0.2c-0.3,0-0.6,0-0.9-0.1
			c-0.3-0.1-0.5-0.2-0.7-0.4c-0.2-0.2-0.4-0.4-0.5-0.6c-0.1-0.3-0.2-0.6-0.2-0.9c0-0.4,0.1-0.7,0.2-1c0.1-0.3,0.3-0.5,0.5-0.6
			c0.2-0.2,0.5-0.3,0.7-0.3C34,7.1,34.3,7.1,34.5,7c0.3,0,0.6-0.1,0.8-0.1c0.3,0,0.5-0.1,0.7-0.1c0.2-0.1,0.4-0.1,0.5-0.2
			c0.1-0.1,0.2-0.3,0.2-0.4c0-0.2,0-0.4-0.1-0.5c-0.1-0.1-0.2-0.2-0.3-0.3c-0.1-0.1-0.2-0.1-0.4-0.1c-0.1,0-0.3,0-0.5,0
			c-0.4,0-0.7,0.1-0.9,0.2c-0.2,0.2-0.3,0.4-0.4,0.8l-1.9,0C32.4,5.8,32.6,5.4,32.8,5.1z M36.5,7.8c-0.1,0-0.2,0.1-0.4,0.1
			c-0.1,0-0.3,0-0.4,0.1c-0.2,0-0.3,0-0.5,0.1c-0.1,0-0.3,0.1-0.4,0.1c-0.1,0-0.3,0.1-0.4,0.2c-0.1,0.1-0.2,0.2-0.2,0.3
			c-0.1,0.1-0.1,0.3-0.1,0.4c0,0.2,0,0.3,0.1,0.4c0.1,0.1,0.1,0.2,0.3,0.3c0.1,0.1,0.2,0.1,0.4,0.1c0.1,0,0.3,0,0.4,0
			c0.4,0,0.7-0.1,0.9-0.2c0.2-0.1,0.4-0.3,0.5-0.4c0.1-0.2,0.2-0.3,0.2-0.5c0-0.2,0-0.3,0-0.4l0-0.7C36.7,7.7,36.6,7.7,36.5,7.8z"/>
		<path fill="#333F48" d="M46.1,11.5c-0.1,0.4-0.2,0.7-0.5,1c-0.2,0.3-0.6,0.6-1.1,0.8c-0.5,0.2-1.1,0.3-1.9,0.3c-0.3,0-0.7,0-1-0.1
			c-0.4-0.1-0.7-0.2-1-0.4c-0.3-0.2-0.5-0.4-0.7-0.7c-0.2-0.3-0.3-0.6-0.3-1l1.9,0c0.1,0.4,0.3,0.6,0.5,0.7c0.3,0.1,0.6,0.2,0.9,0.2
			c0.5,0,0.9-0.2,1.2-0.5c0.2-0.3,0.4-0.7,0.4-1.2l0-0.9l0,0c-0.2,0.4-0.5,0.6-0.9,0.8c-0.4,0.2-0.8,0.3-1.2,0.3
			c-0.5,0-1-0.1-1.3-0.3c-0.4-0.2-0.7-0.4-0.9-0.7c-0.2-0.3-0.4-0.7-0.5-1.1c-0.1-0.4-0.2-0.9-0.2-1.3c0-0.4,0.1-0.9,0.2-1.3
			s0.3-0.8,0.6-1.1c0.2-0.3,0.6-0.6,0.9-0.8c0.4-0.2,0.8-0.3,1.3-0.3c0.5,0,0.9,0.1,1.2,0.3c0.3,0.2,0.6,0.5,0.9,0.9l0,0l0-0.9
			l1.8,0l0,6.4C46.2,10.8,46.2,11.1,46.1,11.5z M43.5,9.2c0.2-0.1,0.4-0.2,0.5-0.4c0.1-0.2,0.2-0.4,0.3-0.6c0.1-0.2,0.1-0.5,0.1-0.7
			c0-0.3,0-0.6-0.1-0.8S44.2,6.2,44.1,6c-0.1-0.2-0.3-0.4-0.5-0.5c-0.2-0.1-0.5-0.2-0.8-0.2c-0.3,0-0.5,0.1-0.7,0.2
			c-0.2,0.1-0.4,0.3-0.5,0.4c-0.1,0.2-0.2,0.4-0.3,0.6c-0.1,0.2-0.1,0.5-0.1,0.7c0,0.2,0,0.5,0.1,0.7c0,0.2,0.1,0.5,0.3,0.7
			c0.1,0.2,0.3,0.4,0.5,0.5c0.2,0.1,0.4,0.2,0.7,0.2C43.1,9.4,43.3,9.3,43.5,9.2z"/>
		<path fill="#333F48" d="M49.3,9.3c0.3,0.3,0.7,0.4,1.2,0.4c0.4,0,0.7-0.1,1-0.3c0.3-0.2,0.4-0.4,0.5-0.6l1.7,0
			c-0.3,0.8-0.7,1.4-1.2,1.8c-0.6,0.4-1.2,0.5-2,0.5c-0.5,0-1-0.1-1.5-0.3c-0.4-0.2-0.8-0.4-1.1-0.7c-0.3-0.3-0.5-0.7-0.7-1.1
			c-0.2-0.4-0.2-0.9-0.2-1.5c0-0.5,0.1-1,0.3-1.4c0.2-0.4,0.4-0.8,0.7-1.2c0.3-0.3,0.7-0.6,1.1-0.8c0.4-0.2,0.9-0.3,1.4-0.3
			c0.6,0,1.1,0.1,1.5,0.3c0.4,0.2,0.8,0.5,1.1,0.9c0.3,0.4,0.5,0.8,0.6,1.3c0.1,0.5,0.2,1,0.1,1.5l-5,0C48.8,8.6,49,9.1,49.3,9.3z
			 M51.4,5.7c-0.2-0.2-0.6-0.4-1-0.4c-0.3,0-0.6,0.1-0.8,0.2c-0.2,0.1-0.4,0.2-0.5,0.4C49,6,48.9,6.2,48.9,6.3
			c0,0.2-0.1,0.3-0.1,0.5l3.1,0C51.8,6.3,51.6,6,51.4,5.7z"/>
		<path fill="#333F48" d="M56.1,4.1l0,1l0,0c0.2-0.4,0.6-0.7,0.9-0.9c0.4-0.2,0.8-0.3,1.2-0.3c0.5,0,0.9,0.1,1.2,0.2
			c0.3,0.1,0.6,0.3,0.8,0.6c0.2,0.2,0.3,0.5,0.4,0.9c0.1,0.4,0.1,0.7,0.1,1.2l0,4.2l-1.9,0l0-3.9c0-0.6-0.1-1-0.3-1.3
			s-0.5-0.4-0.9-0.4c-0.5,0-0.9,0.2-1.1,0.5c-0.2,0.3-0.3,0.8-0.3,1.5l0,3.6l-1.9,0l0-6.9L56.1,4.1z"/>
		<path fill="#333F48" d="M64.8,5.3c-0.3,0-0.6,0.1-0.8,0.2s-0.4,0.3-0.5,0.5c-0.1,0.2-0.2,0.5-0.3,0.7c-0.1,0.3-0.1,0.5-0.1,0.8
			c0,0.2,0,0.5,0.1,0.8c0.1,0.3,0.1,0.5,0.3,0.7c0.1,0.2,0.3,0.4,0.5,0.5c0.2,0.1,0.5,0.2,0.7,0.2c0.5,0,0.8-0.1,1-0.4
			c0.2-0.3,0.4-0.6,0.5-1l1.8,0C68,9.2,67.6,9.9,67,10.4c-0.6,0.5-1.3,0.7-2.3,0.7c-0.5,0-1-0.1-1.4-0.3c-0.4-0.2-0.8-0.4-1.1-0.7
			c-0.3-0.3-0.5-0.7-0.7-1.1c-0.2-0.4-0.3-0.9-0.3-1.4c0-0.5,0.1-1,0.2-1.5c0.2-0.5,0.4-0.9,0.7-1.2s0.7-0.6,1.1-0.8
			c0.4-0.2,0.9-0.3,1.5-0.3c0.4,0,0.8,0.1,1.2,0.2c0.4,0.1,0.7,0.3,1,0.5c0.3,0.2,0.5,0.5,0.7,0.8C67.9,5.7,68,6.1,68,6.5l-1.9,0
			C66.1,5.7,65.6,5.3,64.8,5.3z"/>
		<path fill="#333F48" d="M71.2,13c-0.4,0.2-0.9,0.4-1.5,0.4c-0.2,0-0.4,0-0.6,0c-0.2,0-0.4,0-0.6,0l0-1.6c0.2,0,0.4,0,0.5,0.1
			c0.2,0,0.4,0,0.6,0c0.2,0,0.4-0.1,0.6-0.3c0.1-0.2,0.2-0.4,0.2-0.6c0-0.2,0-0.3-0.1-0.4l-2.4-6.5l2,0l1.6,4.7l0,0l1.5-4.7l2,0
			L72,11.8C71.8,12.4,71.5,12.8,71.2,13z"/>
	</g>
</g>
</svg>
