<?xml version="1.0" encoding="utf-8"?>
<!-- Generator: Adobe Illustrator 17.1.0, SVG Export Plug-In . SVG Version: 6.00 Build 0)  -->
<!DOCTYPE svg PUBLIC "-//W3C//DTD SVG 1.1 Basic//EN" "http://www.w3.org/Graphics/SVG/1.1/DTD/svg11-basic.dtd">
<svg version="1.1" baseProfile="basic" id="Layer_1"
	 xmlns="http://www.w3.org/2000/svg" xmlns:xlink="http://www.w3.org/1999/xlink" x="0px" y="0px" viewBox="0 0 30.2 85.3"
	 xml:space="preserve">
<g>
	<polygon fill="#C5C5C5" points="28.5,23.3 15.6,23.3 13.8,20.3 1.7,20.3 1.7,6.3 13.7,6.3 15.5,9.3 28.5,9.3 24.5,16.6 	"/>
	<path fill="#333E48" d="M1.7,41.3c-0.6,0-1-0.4-1-1v-38c0-0.6,0.4-1,1-1s1,0.4,1,1v38C2.7,40.9,2.3,41.3,1.7,41.3z"/>
	<circle fill="#333E48" cx="1.7" cy="1.7" r="1.7"/>
	<polygon fill="#545152" points="14.1,6.2 14.2,19.3 16.2,22.4 16.1,9.7 	"/>
	<path fill="#333E48" d="M30.2,24.3H15.1l-1.9-3H0.7v-16h14.4l1.9,3h13.1l-4.5,8.3L30.2,24.3z M16.2,22.3h10.6l-3.3-5.7l3.4-6.3H16
		l-1.9-3H2.7v12h11.5L16.2,22.3z"/>
</g>
<g>
	<polygon fill="#FFFFFF" points="28.5,67.3 15.6,67.3 13.8,64.3 1.7,64.3 1.7,50.3 13.7,50.3 15.5,53.3 28.5,53.3 24.5,60.6 	"/>
	<path fill="#333E48" d="M1.7,85.3c-0.6,0-1-0.4-1-1v-38c0-0.6,0.4-1,1-1s1,0.4,1,1v38C2.7,84.9,2.3,85.3,1.7,85.3z"/>
	<circle fill="#333E48" cx="1.7" cy="45.7" r="1.7"/>
	<polygon fill="#C5C5C5" points="14.1,50.2 14.2,63.3 16.2,66.4 16.1,53.7 	"/>
	<path fill="#333E48" d="M30.2,68.3H15.1l-1.9-3H0.7v-16h14.4l1.9,3h13.1l-4.5,8.3L30.2,68.3z M16.2,66.3h10.6l-3.3-5.7l3.4-6.3H16
		l-1.9-3H2.7v12h11.5L16.2,66.3z"/>
</g>
</svg>
