<?xml version="1.0" encoding="utf-8"?>
<!-- Generator: Adobe Illustrator 17.1.0, SVG Export Plug-In . SVG Version: 6.00 Build 0)  -->
<!DOCTYPE svg PUBLIC "-//W3C//DTD SVG 1.1 Basic//EN" "http://www.w3.org/Graphics/SVG/1.1/DTD/svg11-basic.dtd">
<svg version="1.1" baseProfile="basic" id="Layer_1"
	 xmlns="http://www.w3.org/2000/svg" xmlns:xlink="http://www.w3.org/1999/xlink" x="0px" y="0px" viewBox="0 0 15 15"
	 xml:space="preserve">
<g>
	<path fill="#FFC627" d="M12.1,0H2.9C1.3,0,0,1.3,0,2.9V6v6.1C0,13.7,1.3,15,2.9,15h9.2c1.6,0,2.9-1.3,2.9-2.9V6V2.9
		C15,1.3,13.7,0,12.1,0z M12.9,1.7l0.3,0v0.3v2.2l-2.5,0l0-2.5L12.9,1.7z M5.4,6c0.5-0.7,1.3-1.1,2.1-1.1S9.2,5.3,9.6,6
		c0.3,0.4,0.5,1,0.5,1.5c0,1.5-1.2,2.6-2.6,2.6S4.9,9,4.9,7.5C4.9,6.9,5,6.4,5.4,6z M13.5,12.1c0,0.8-0.6,1.4-1.4,1.4H2.9
		c-0.8,0-1.4-0.6-1.4-1.4V6h2.2C3.5,6.4,3.4,7,3.4,7.5c0,2.3,1.8,4.1,4.1,4.1c2.3,0,4.1-1.8,4.1-4.1c0-0.5-0.1-1.1-0.3-1.5h2.2V12.1
		z"/>
</g>
</svg>
