<?xml version="1.0" encoding="utf-8"?>
<!-- Generator: Adobe Illustrator 17.1.0, SVG Export Plug-In . SVG Version: 6.00 Build 0)  -->
<!DOCTYPE svg PUBLIC "-//W3C//DTD SVG 1.1 Basic//EN" "http://www.w3.org/Graphics/SVG/1.1/DTD/svg11-basic.dtd">
<svg version="1.1" baseProfile="basic" id="Layer_1"
	 xmlns="http://www.w3.org/2000/svg" xmlns:xlink="http://www.w3.org/1999/xlink" x="0px" y="0px" viewBox="0 0 210 225"
	 xml:space="preserve">
<g>
	<path fill="#555252" d="M210,106.2c0-0.1,0-0.2,0-0.3c0-13.8-5.9-26.9-16.1-36.1c0-0.1,0-0.1,0-0.2c0-0.2,0-0.4,0-0.5
		c0-0.2,0-0.4,0-0.5c0-0.2,0-0.4,0-0.5c0-0.2,0-0.4,0-0.5c0-0.2,0-0.4,0-0.5c0-0.2,0-0.4,0-0.5c0-0.2,0-0.4,0-0.5c0-0.2,0-0.4,0-0.5
		c0-0.2,0-0.4,0-0.5c-0.2-12.6-5.1-24.6-14.1-33.5c-9.1-9.1-21.2-14.2-34.1-14.2c-1,0-2,0-3,0.1C133.5,6.3,120.1,0,105.9,0
		C92.1,0,79,5.9,69.8,16.3c-1.4-0.1-2.8-0.2-4.1-0.2c-12.9,0-25,5-34.1,14.2c-9.2,9.2-14.2,21.8-14.1,34.8c0,0.2,0,0.4,0,0.5
		c0,0.2,0,0.4,0,0.5c0,0.2,0,0.4,0,0.5c0,0.2,0,0.4,0,0.5c0,0.1,0,0.2,0,0.3c-10.9,9.2-17.1,22.7-17.1,37c0,0.1,0,0.2,0,0.3
		c0,0.1,0,0.2,0,0.3c0,0.1,0,0.2,0,0.3c0,0.1,0,0.2,0,0.3c0,0.1,0,0.2,0,0.3c0,0.1,0,0.2,0,0.3c0,0.1,0,0.2,0,0.3c0,0.1,0,0.2,0,0.3
		c0,0.1,0,0.2,0,0.3c0,0.1,0,0.2,0,0.3c0,0.1,0,0.2,0,0.3c0,0.1,0,0.2,0,0.3c0,0.1,0,0.2,0,0.3c0,0.1,0,0.2,0,0.3c0,0.1,0,0.2,0,0.3
		c0,0.1,0,0.2,0,0.3c0,0.1,0,0.2,0,0.3c0,0.1,0,0.2,0,0.3c0,0.1,0,0.2,0,0.3c0,0.1,0,0.2,0,0.3c0,0.1,0,0.2,0,0.3c0,0.1,0,0.2,0,0.3
		c0,0.1,0,0.2,0,0.3c0,0.1,0,0.2,0,0.3c0,0.1,0,0.2,0,0.3c0,0.1,0,0.2,0,0.3c0,0.1,0,0.2,0,0.3c0,0.1,0,0.2,0,0.3c0,0.1,0,0.2,0,0.3
		c0,0.1,0,0.2,0,0.3c0,0.1,0,0.2,0,0.3c0,0.1,0,0.2,0,0.3c0,0.1,0,0.2,0,0.3c0,0.1,0,0.2,0,0.3c0,0.1,0,0.2,0,0.3c0,0.1,0,0.2,0,0.3
		c0,0.1,0,0.2,0,0.3c0,0.1,0,0.2,0,0.3c0,0.1,0,0.2,0,0.3c0,0.1,0,0.2,0,0.3c0,0.1,0,0.2,0,0.3c0,0.1,0,0.2,0,0.3c0,0.1,0,0.2,0,0.3
		c0,0.1,0,0.2,0,0.3c0,0.1,0,0.2,0,0.3c0,0.1,0,0.2,0,0.3c0,0.1,0,0.2,0,0.3c0,0.1,0,0.2,0,0.3c0,0.1,0,0.2,0,0.3c0,0.1,0,0.2,0,0.3
		c0,0.1,0,0.2,0,0.3c0,0.1,0,0.2,0,0.3c0,0.1,0,0.2,0,0.3c0,0.1,0,0.2,0,0.3c0,13.8,5.9,26.9,16.1,36.1c0,0,0,0,0,0
		c0,0.1,0,0.2,0,0.3c0,0.1,0,0.2,0,0.3c0,0.1,0,0.2,0,0.3c0,0.1,0,0.2,0,0.3c0,0.1,0,0.2,0,0.3c0,0.1,0,0.2,0,0.3c0,0.1,0,0.2,0,0.3
		c0,0.1,0,0.2,0,0.3c0,0.1,0,0.2,0,0.3c0,0.1,0,0.2,0,0.3c0,0.1,0,0.2,0,0.3c0,0.1,0,0.2,0,0.3c0,0.1,0,0.2,0,0.3c0,0.1,0,0.2,0,0.3
		c0,0.1,0,0.2,0,0.3c0,0.1,0,0.2,0,0.3c0,12.9,5,25.1,14.1,34.2c9.1,9.1,21.2,14.2,34.1,14.2c1,0,2,0,2.9-0.1c0.9,1.1,1.8,2.1,2.8,3
		c9.1,9.1,21.2,14.2,34.1,14.2c13.8,0,26.9-5.9,36.1-16.3c1.4,0.1,2.8,0.2,4.1,0.2c12.9,0,25-5,34.1-14.2
		c9.1-9.1,14.1-21.3,14.1-34.2c0-0.1,0-0.2,0-0.2c0-0.1,0-0.2,0-0.3c0-0.1,0-0.2,0-0.2c0-0.1,0-0.2,0-0.3c0-0.1,0-0.2,0-0.2
		c0-0.1,0-0.2,0-0.3c0-0.1,0-0.2,0-0.2c0-0.1,0-0.2,0-0.3c0-0.1,0-0.2,0-0.2c0-0.1,0-0.2,0-0.3c0-0.1,0-0.2,0-0.2c0,0,0-0.1,0-0.1
		c10.9-9.2,17.1-22.6,17.1-36.9c0-0.1,0-0.2,0-0.3c0-0.1,0-0.2,0-0.3c0-0.1,0-0.2,0-0.3c0-0.1,0-0.2,0-0.3c0-0.1,0-0.2,0-0.3
		c0-0.1,0-0.2,0-0.3c0-0.1,0-0.2,0-0.3c0-0.1,0-0.2,0-0.3c0-0.1,0-0.2,0-0.3c0-0.1,0-0.2,0-0.3c0-0.1,0-0.2,0-0.3c0-0.1,0-0.2,0-0.3
		c0-0.1,0-0.2,0-0.3c0-0.1,0-0.2,0-0.3c0-0.1,0-0.2,0-0.3c0-0.1,0-0.2,0-0.3c0-0.1,0-0.2,0-0.3c0-0.1,0-0.2,0-0.3c0-0.1,0-0.2,0-0.3
		c0-0.1,0-0.2,0-0.3c0-0.1,0-0.2,0-0.3c0-0.1,0-0.2,0-0.3c0-0.1,0-0.2,0-0.3c0-0.1,0-0.2,0-0.3c0-0.1,0-0.2,0-0.3c0-0.1,0-0.2,0-0.3
		c0-0.1,0-0.2,0-0.3c0-0.1,0-0.2,0-0.3c0-0.1,0-0.2,0-0.3c0-0.1,0-0.2,0-0.3c0-0.1,0-0.2,0-0.3c0-0.1,0-0.2,0-0.3c0-0.1,0-0.2,0-0.3
		c0-0.1,0-0.2,0-0.3c0-0.1,0-0.2,0-0.3c0-0.1,0-0.2,0-0.3c0-0.1,0-0.2,0-0.3c0-0.1,0-0.2,0-0.3c0-0.1,0-0.2,0-0.3c0-0.1,0-0.2,0-0.3
		c0-0.1,0-0.2,0-0.3c0-0.1,0-0.2,0-0.3c0-0.1,0-0.2,0-0.3c0-0.1,0-0.2,0-0.3c0-0.1,0-0.2,0-0.3c0-0.1,0-0.2,0-0.3c0-0.1,0-0.2,0-0.3
		c0-0.1,0-0.2,0-0.3c0-0.1,0-0.2,0-0.3c0-0.1,0-0.2,0-0.3c0-0.1,0-0.2,0-0.3c0-0.1,0-0.2,0-0.3C210,106.4,210,106.3,210,106.2z"/>
	<path fill="#FFA227" d="M104.1,209.4c-12.5,0-24.3-4.9-33.1-13.8c-1.1-1.1-2.2-2.3-3.1-3.5c-1.2,0.1-2.4,0.1-3.5,0.1
		c-12.5,0-24.3-4.9-33.1-13.8c-8.8-8.9-13.7-20.7-13.7-33.3c0-1.6,0.1-3.2,0.2-4.7c-10.3-8.9-16.3-21.9-16.3-35.6
		c0-14.2,6.4-27.5,17.2-36.4c-1-13.6,3.9-27.1,13.6-36.8c8.8-8.9,20.6-13.8,33.1-13.8c1.6,0,3.1,0.1,4.7,0.2
		C78.9,7.7,91.8,1.7,105.5,1.7c14.1,0,27.4,6.4,36.2,17.3c1.2-0.1,2.4-0.1,3.6-0.1c12.5,0,24.3,4.9,33.1,13.8c10,10,14.9,24,13.5,38
		c10.3,8.9,16.3,21.9,16.3,35.7c0,14.2-6.4,27.5-17.2,36.4c0.1,1.2,0.1,2.4,0.1,3.6c0,12.6-4.9,24.4-13.7,33.3
		c-8.8,8.9-20.6,13.8-33.1,13.8c-1.6,0-3.1-0.1-4.7-0.2C130.8,203.3,117.8,209.4,104.1,209.4z M201.3,106.2
		c0-13.5-6.7-25.4-16.8-32.7c2.4-12.6-1.2-26.3-10.9-36c-7.5-7.6-17.6-11.7-28.2-11.7c-2.3,0-4.5,0.2-6.7,0.6
		c-7.2-10.7-19.3-17.7-33.1-17.7c-13.4,0-25.3,6.7-32.5,16.9c-2.5-0.5-5.1-0.7-7.7-0.7c-10.7,0-20.7,4.2-28.2,11.7
		C27.6,46.1,23.9,59.2,26,71.6C15.3,78.8,8.3,91,8.3,104.9c0,13.5,6.7,25.4,16.8,32.7c-0.5,2.5-0.7,5.1-0.7,7.7
		c0,10.7,4.2,20.8,11.7,28.3c7.5,7.6,17.6,11.7,28.2,11.7c2.3,0,4.5-0.2,6.7-0.6c1.4,2.1,3.1,4.1,4.9,6c7.5,7.6,17.6,11.7,28.2,11.7
		c13.4,0,25.3-6.7,32.5-16.9c2.5,0.5,5.1,0.7,7.7,0.7c10.7,0,20.7-4.2,28.2-11.7c7.5-7.6,11.7-17.6,11.7-28.3c0-2.3-0.2-4.5-0.6-6.8
		C194.3,132.2,201.3,120,201.3,106.2z"/>
	<path fill="#FFFFFF" d="M201.2,106.3c0-13.5-6.7-25.4-16.9-32.7c2.5-12.6-1.2-26.3-10.9-36c-7.5-7.6-17.6-11.7-28.2-11.7
		c-2.3,0-4.5,0.2-6.7,0.6c-7.2-10.7-19.3-17.7-33.1-17.7c-13.4,0-25.3,6.7-32.5,16.9c-2.5-0.5-5.1-0.7-7.7-0.7
		C54.5,24.9,44.5,29,37,36.6c-9.5,9.5-13.2,22.7-11.1,35.1C15.3,78.9,8.2,91.1,8.2,104.9c0,13.5,6.7,25.4,16.8,32.7
		c-0.5,2.5-0.7,5.1-0.7,7.7c0,10.7,4.2,20.8,11.7,28.3c7.5,7.6,17.6,11.7,28.2,11.7c2.3,0,4.5-0.2,6.7-0.6c1.4,2.1,3.1,4.1,4.9,6
		c7.5,7.6,17.6,11.7,28.2,11.7c13.4,0,25.3-6.7,32.5-16.9c2.5,0.5,5.1,0.7,7.7,0.7c10.7,0,20.7-4.2,28.2-11.7
		c7.5-7.6,11.7-17.6,11.7-28.3c0-2.3-0.2-4.5-0.6-6.8C194.2,132.3,201.2,120.1,201.2,106.3z"/>
	<g>
		<g>
			<path fill="#464546" d="M79,132.9l-0.9,0l-1.4,0l-1.2,0h-0.7h-0.3c-0.1,0-0.1,0-0.2,0c-0.1,0-0.2,0-0.3,0l-0.3,0c0,0,0,0,0,0
				c-0.2,0-0.3-0.1-0.3-0.2c0-0.1,0.1-0.2,0.3-0.2c0,0,0.1,0,0.1,0l0.3,0c0.1,0,0.3,0,0.4,0c0.2,0,0.4-0.1,0.4-0.3
				c0-0.1,0-0.3,0-0.6v-0.1c0,0,0-0.3,0-0.7v-0.8v-2.1v-0.8v-0.8c0-0.3,0-0.5,0-0.6c-0.1-0.2-0.2-0.3-0.4-0.3c-0.1,0-0.2,0-0.4,0
				l-0.3,0h-0.1c-0.2,0-0.3-0.1-0.3-0.2c0-0.1,0.1-0.2,0.3-0.2c0,0,0.1,0,0.1,0c0.4,0,0.7,0.1,0.8,0.1h3.6l0.9-0.1h0.1
				c0.2,0,0.4,0.1,0.4,0.3c0,0.1,0,0.2,0,0.4c0,0.2,0,0.5,0,0.7c0,0.4,0,0.8,0,1v0.1c0,0.3-0.1,0.4-0.2,0.4c-0.1,0-0.2-0.1-0.2-0.3
				v-0.1c0-0.2,0-0.3,0-0.5v-0.4l0-0.4v-0.1c0-0.4-0.1-0.6-0.2-0.7c-0.1-0.1-0.4-0.1-0.9-0.1h-2.4c-0.3,0-0.5,0.1-0.6,0.2
				c-0.1,0.1-0.1,0.4-0.1,0.9v1.8c0,0.2,0,0.3,0.1,0.3c0,0,0.2,0.1,0.4,0.1h1.1c0.6,0,0.9-0.2,0.9-0.6v0v-0.3l-0.1-0.4
				c0-0.2,0.1-0.3,0.2-0.3c0.1,0,0.2,0.1,0.2,0.3c0,0.1,0,0.2,0,0.4c0,0.4-0.1,0.7-0.1,1c0,0.6,0,1.2,0.1,1.7v0.1
				c0,0.2-0.1,0.3-0.2,0.3c-0.1,0-0.2-0.1-0.2-0.4c0,0,0,0,0-0.1l0.1-0.4v-0.4v-0.1c0-0.3-0.1-0.5-0.2-0.6c-0.1-0.1-0.3-0.1-0.7-0.1
				h-1.2c-0.2,0-0.3,0-0.3,0.1c0,0-0.1,0.2-0.1,0.4v2.4c0,0.2,0,0.3,0,0.4c0,0.1,0.1,0.2,0.2,0.3c0.1,0,0.3,0,0.6,0h2
				c0.7,0,1-0.1,1.2-0.2c0.1-0.1,0.2-0.5,0.2-1c0-0.2,0-0.3,0-0.5l0-0.5c0-0.2,0.1-0.3,0.2-0.3c0.1,0,0.1,0.1,0.1,0.3v0l0,0.3
				c0,0.1,0,0.3,0,0.5s0,0.4,0,0.5v0.6c0,0.2,0,0.4-0.1,0.4C79.3,132.9,79.2,132.9,79,132.9z"/>
			<path fill="#555252" d="M79.1,133.2L79.1,133.2l-1,0l-3.6-0.1c0,0-0.1,0-0.2,0c-0.1,0-0.2,0-0.3,0l-0.3,0c-0.5,0-0.5-0.3-0.5-0.4
				c0-0.2,0.1-0.4,0.5-0.4c0,0,0.1,0,0.1,0l0.3,0c0.1,0,0.2,0,0.3,0c0.2,0,0.2-0.1,0.2-0.1c0,0,0-0.1,0-0.5v-5.3c0-0.4,0-0.5,0-0.5
				c0-0.1,0-0.1-0.2-0.1c-0.1,0-0.2,0-0.3,0l-0.4,0c-0.5,0-0.5-0.4-0.5-0.4c0-0.1,0-0.4,0.5-0.4l0,0.3l0-0.3l0,0.2l0-0.2
				c0.5,0.1,0.7,0.1,0.8,0.1h3.6l1-0.1c0.4,0,0.6,0.2,0.6,0.6c0,0.1,0,0.2,0,0.4c0,0.2,0,0.5,0,0.7c0,0.4,0,0.8,0,1l0,0.1
				c0,0.6-0.3,0.6-0.4,0.6c-0.1,0-0.4-0.1-0.4-0.6v-0.1c0-0.2,0-0.3,0-0.5v-0.4l0-0.5c0-0.4-0.1-0.5-0.1-0.5c0,0-0.1-0.1-0.8-0.1
				h-2.4c-0.3,0-0.4,0.1-0.4,0.1c0,0,0,0.1,0,0.8v1.8c0,0,0,0.1,0,0.1c0,0,0.1,0,0.2,0h1.1c0.6,0,0.6-0.2,0.6-0.3v-0.3l-0.1-0.4
				c0-0.5,0.3-0.6,0.4-0.6c0.1,0,0.4,0,0.4,0.6c0,0.1,0,0.2,0,0.5c0,0.4-0.1,0.7-0.1,1c0,0.6,0,1.2,0.1,1.7l0,0.1
				c0,0.5-0.3,0.6-0.4,0.6c-0.1,0-0.4-0.1-0.4-0.6l0-0.1l0.1-0.4l0-0.4c0-0.2,0-0.3-0.1-0.4c0,0-0.2-0.1-0.5-0.1h-1.2
				c-0.1,0-0.1,0-0.1,0c0,0,0,0.1,0,0.2v2.4c0,0.2,0,0.3,0,0.3c0,0,0,0.1,0,0.1c0,0,0.1,0,0.5,0h2c0.9,0,1-0.1,1-0.1
				c0,0,0.1-0.1,0.1-0.8c0-0.2,0-0.3,0-0.5l0-0.5c0-0.5,0.3-0.6,0.4-0.6c0.1,0,0.4,0,0.4,0.5l0,0.1l0,0.3c0,0.1,0,0.2,0,0.5
				c0,0.2,0,0.3,0,0.4v0.6c0,0.3-0.1,0.5-0.2,0.6C79.5,133.1,79.3,133.2,79.1,133.2z"/>
		</g>
		<g>
			<path fill="#464546" d="M82.2,131.9L82.2,131.9l0,0.1l0,0.3c0,0.2,0,0.3,0,0.3v0c0,0.2,0,0.2-0.1,0.2c-0.1,0-0.2-0.1-0.2-0.3
				v-0.1c0-0.5,0-0.9,0-1.3c0-0.4,0-0.7,0-0.9c0-0.2,0-0.3,0-0.4c0-0.1,0.1-0.2,0.2-0.2c0.1,0,0.1,0.1,0.1,0.2c0,0.1,0,0.2,0,0.3
				c0,0.1,0,0.2,0,0.3c0,0.7,0.2,1.3,0.6,1.6c0.4,0.4,1,0.6,1.7,0.6c0.7,0,1.2-0.2,1.6-0.5c0.4-0.4,0.6-0.8,0.6-1.4
				c0-0.8-0.4-1.3-1.1-1.5c-0.3-0.1-0.6-0.1-1-0.1c-1.6-0.1-2.4-0.8-2.4-1.9c0-0.6,0.2-1.1,0.7-1.5c0.4-0.4,1-0.6,1.6-0.6
				c0.8,0,1.4,0.3,1.8,0.8c0.1,0.1,0.2,0.3,0.2,0.5c0-0.1,0-0.2,0-0.3c0-0.1,0-0.2,0-0.3l0-0.2v0c0-0.2,0.1-0.3,0.2-0.3
				s0.2,0.1,0.2,0.2c0,0,0,0.1,0,0.4c0,0.3,0,0.6,0,1c0,0.3,0,0.5,0,0.7c0,0.2,0,0.4,0,0.4c0,0.1,0,0.2-0.1,0.2
				c-0.1,0-0.2-0.1-0.2-0.2c0-0.1,0-0.1,0-0.2c0-0.1,0-0.2,0-0.2c0-0.7-0.2-1.2-0.5-1.6c-0.4-0.4-0.8-0.6-1.5-0.6
				c-0.6,0-1.1,0.2-1.4,0.5c-0.4,0.3-0.5,0.8-0.5,1.3c0,0.5,0.2,0.9,0.5,1.2c0.3,0.3,0.9,0.4,1.6,0.5c0.6,0.1,1.1,0.1,1.4,0.2
				c0.3,0.1,0.5,0.3,0.7,0.5c0.2,0.3,0.3,0.7,0.3,1.2c0,0.7-0.2,1.2-0.7,1.6c-0.4,0.4-1,0.6-1.8,0.6c-0.5,0-1-0.1-1.4-0.3
				c-0.4-0.2-0.7-0.4-0.9-0.8L82.2,131.9z"/>
			<path fill="#555252" d="M84.5,133.3c-0.5,0-1-0.1-1.5-0.3c-0.2-0.1-0.5-0.3-0.6-0.4c0,0,0,0,0,0c0,0.5-0.3,0.5-0.4,0.5
				c-0.1,0-0.4,0-0.4-0.5v-0.1c0-0.5,0-0.9,0-1.3c0-0.4,0-0.6,0-0.9c0-0.2,0-0.4,0-0.4c0-0.3,0.2-0.5,0.4-0.5c0.2,0,0.4,0.1,0.4,0.4
				c0,0.1,0,0.2,0,0.3c0,0.1,0,0.2,0,0.3c0,0.6,0.2,1.1,0.5,1.5c0.4,0.4,0.9,0.5,1.5,0.5c0.6,0,1.1-0.2,1.4-0.5
				c0.3-0.3,0.5-0.7,0.5-1.2c0-0.7-0.3-1.1-0.9-1.3c-0.2-0.1-0.6-0.1-1-0.1c-1.8-0.1-2.7-0.9-2.7-2.2c0-0.7,0.2-1.2,0.7-1.7
				c0.5-0.4,1.1-0.7,1.8-0.7c0.7,0,1.3,0.2,1.8,0.6c0-0.4,0.3-0.5,0.4-0.5c0.2,0,0.4,0.1,0.4,0.4l0,0.1c0,0.1,0,0.2,0,0.3
				c0,0.3,0,0.6,0,1c0,0.3,0,0.5,0,0.7c0,0.2,0,0.4,0,0.4c0,0.3-0.2,0.5-0.4,0.5c-0.2,0-0.4-0.1-0.4-0.5c0-0.1,0-0.1,0-0.3
				c0-0.1,0-0.2,0-0.2c0-0.6-0.2-1.1-0.5-1.4c-0.3-0.3-0.7-0.5-1.3-0.5c-0.5,0-1,0.1-1.3,0.4c-0.3,0.3-0.5,0.7-0.5,1.1
				c0,0.4,0.1,0.8,0.4,1c0.3,0.2,0.8,0.4,1.5,0.4c0.7,0.1,1.2,0.1,1.5,0.3c0.3,0.1,0.6,0.3,0.8,0.6c0.3,0.3,0.4,0.8,0.4,1.3
				c0,0.7-0.3,1.3-0.8,1.8C86,133.1,85.3,133.3,84.5,133.3z"/>
		</g>
		<g>
			<path fill="#464546" d="M93,125.4l1.5,0c0.2,0,0.3,0.1,0.3,0.3v0.5c0,0.1,0,0.4,0,0.8c0,0.1,0,0.3,0,0.5v0.6
				c0,0.2-0.1,0.2-0.2,0.2c-0.1,0-0.2-0.1-0.2-0.2l0,0l0-0.6c0-0.2,0-0.5,0-0.8c0-0.4,0-0.7-0.1-0.8c-0.1-0.1-0.3-0.1-0.7-0.1h-1.4
				c-0.2,0-0.3,0-0.4,0.1c0,0-0.1,0.2-0.1,0.4l0,5.8c0,0.3,0,0.5,0.1,0.6c0.1,0.1,0.2,0.2,0.5,0.2c0.1,0,0.2,0,0.3,0
				c0.1,0,0.1,0,0.3,0c0.2,0,0.2,0,0.2,0.1s-0.1,0.1-0.2,0.1h0l-0.3,0c-0.1,0-0.2,0-0.3,0c-0.3,0-0.5,0-0.6,0h-0.3
				c-0.1,0-0.2,0-0.3,0l-0.3,0c-0.2,0-0.3,0-0.3,0l-0.2,0h0c-0.2,0-0.2,0-0.2-0.1c0-0.1,0.1-0.2,0.2-0.2c0.1,0,0.2,0,0.3,0
				c0.1,0,0.2,0,0.3,0c0.2,0,0.4-0.1,0.4-0.2c0-0.1,0.1-0.3,0.1-0.5l0-0.8v-4.9c0-0.2,0-0.4-0.1-0.4s-0.2-0.1-0.4-0.1H90
				c-0.3,0-0.5,0-0.6,0.1c-0.1,0.1-0.2,0.3-0.2,0.5c0,0.2,0,0.5,0,0.8c0,0.1,0,0.2,0,0.3l0,0.6c0,0.2,0,0.3-0.1,0.3
				c-0.1,0-0.2-0.1-0.2-0.3v0l0-0.6v-1.3l0-0.4c0-0.2,0.1-0.3,0.4-0.3c0.1,0,0.3,0,0.6,0c0.6,0,1.4,0,2.5,0H93z"/>
			<path fill="#555252" d="M93.2,133.2l-0.3,0c-0.1,0-0.2,0-0.3,0c-0.3,0-0.5,0-0.6,0h-0.3c-0.1,0-0.2,0-0.3,0l-0.3,0
				c-0.2,0-0.3,0-0.3,0l-0.3,0c-0.4,0-0.5-0.3-0.5-0.4c0-0.2,0.1-0.4,0.5-0.4c0.1,0,0.2,0,0.3,0c0.1,0,0.2,0,0.3,0
				c0.2,0,0.2-0.1,0.2-0.1c0,0,0-0.1,0-0.4l0-0.8v-4.9c0-0.1,0-0.2,0-0.2c0,0-0.1,0-0.2,0H90c-0.4,0-0.4,0-0.4,0
				c0,0-0.1,0.1-0.1,0.3c0,0.2,0,0.5,0,0.8c0,0.1,0,0.2,0,0.3l0,0.6c0,0.5-0.3,0.5-0.4,0.5c-0.1,0-0.4,0-0.4-0.5l0-0.7v-1.2l0-0.4
				c0-0.4,0.2-0.6,0.6-0.6c0.1,0,0.3,0,0.6,0c0.6,0,1.4,0,2.5,0H93l1.5,0h0c0.3,0,0.6,0.2,0.6,0.5v0.5c0,0.1,0,0.3,0,0.8
				c0,0.1,0,0.3,0,0.4l0,0.6c0,0.5-0.3,0.5-0.4,0.5c-0.2,0-0.4-0.1-0.4-0.5l0-0.1l0-0.6c0-0.2,0-0.5,0-0.8c0-0.5,0-0.6-0.1-0.6
				c0,0-0.1,0-0.5,0h-1.4c-0.1,0-0.1,0-0.2,0c0,0,0,0.1,0,0.2l0,5.8c0,0.3,0,0.4,0.1,0.4c0,0.1,0.2,0.1,0.2,0.1c0.1,0,0.2,0,0.3,0
				c0.1,0,0.2,0,0.3,0c0.3,0,0.5,0.2,0.5,0.4S93.5,133.2,93.2,133.2z"/>
		</g>
		<g>
			<path fill="#464546" d="M97.6,130h-0.2c-0.1,0-0.2,0-0.4,0c-0.2,0-0.3,0-0.3,0h0c-0.1,0-0.1,0-0.1-0.1c0-0.1,0-0.1,0.1-0.1
				c0,0,0.1,0,0.2,0c0.1,0,0.2,0,0.2,0c0.1,0,0.2,0,0.3-0.1c0-0.1,0-0.2,0.1-0.3v-0.5V126c0-0.2,0-0.3-0.1-0.3
				c0-0.1-0.1-0.1-0.3-0.1c0,0-0.1,0-0.2,0s-0.1,0-0.2,0c-0.1,0-0.1,0-0.1-0.1c0-0.1,0-0.1,0.1-0.1h0l0.2,0c0.3,0,0.5,0,0.6,0h0.2
				c0.1,0,0.2,0,0.6,0c0.2,0,0.4,0,0.6,0c0.4,0,0.7,0,1,0.1c0.3,0.1,0.5,0.2,0.6,0.4c0.4,0.5,0.6,1,0.6,1.8c0,0.6-0.1,1.1-0.4,1.5
				s-0.6,0.7-1,0.8c-0.2,0.1-0.5,0.1-0.9,0.1c-0.1,0-0.3,0-0.6,0C97.9,130.1,97.7,130,97.6,130z M98.7,125.6c-0.2,0-0.3,0-0.4,0
				l-0.4,0c-0.1,0-0.2,0-0.2,0.1c0,0-0.1,0.1-0.1,0.2c0,0.2,0,0.4,0,0.6v3.1c0,0.2,0.1,0.3,0.2,0.4c0.1,0,0.4,0.1,0.9,0.1
				c0.4,0,0.7,0,0.9-0.1c0.3-0.1,0.6-0.3,0.8-0.6c0.2-0.4,0.4-0.8,0.4-1.4c0-0.6-0.1-1-0.3-1.4c-0.2-0.4-0.5-0.6-0.8-0.7
				C99.4,125.6,99,125.6,98.7,125.6z"/>
			<path fill="#555252" d="M98.7,130.3c-0.1,0-0.3,0-0.6,0c-0.2,0-0.4,0-0.5,0h-0.2c-0.1,0-0.2,0-0.3,0c-0.2,0-0.3,0-0.4,0
				c-0.3,0-0.4-0.2-0.4-0.3c0-0.2,0.1-0.3,0.4-0.3c0,0,0.1,0,0.2,0c0.2,0,0.2,0,0.2,0l0,0c0,0,0-0.1,0-0.2V126c0-0.2,0-0.2,0-0.2
				c0,0-0.1,0-0.2,0c-0.1,0-0.2,0-0.2,0c-0.3,0-0.4-0.2-0.4-0.3c0-0.2,0.1-0.3,0.4-0.3l0.2,0c0.3,0,0.5,0,0.5,0h0.2c0,0,0.2,0,0.6,0
				c0.7-0.1,1.3,0,1.6,0.1c0.3,0.1,0.5,0.3,0.7,0.5c0.4,0.5,0.6,1.2,0.6,2c0,0.6-0.1,1.2-0.4,1.6c-0.3,0.5-0.7,0.8-1.1,0.9
				C99.4,130.3,99.1,130.3,98.7,130.3z M97.9,125.9c0,0.2,0,0.4,0,0.6v3.1c0,0.1,0,0.1,0,0.1c0,0,0.2,0.1,0.8,0.1
				c0.4,0,0.7,0,0.9-0.1c0.3-0.1,0.5-0.2,0.6-0.5c0.2-0.3,0.3-0.8,0.3-1.3c0-0.5-0.1-1-0.3-1.3c-0.2-0.3-0.4-0.5-0.7-0.6
				c-0.3-0.1-0.6-0.1-0.9-0.1c-0.2,0-0.3,0-0.3,0L97.9,125.9C97.9,125.9,97.9,125.9,97.9,125.9z"/>
		</g>
		<g>
			<path fill="#464546" d="M108.7,132.1c0,0,0,0.1,0,0.2c0.3-0.6,0.7-0.9,1.4-0.9c0.4,0,0.9,0.2,1.3,0.6c0.3,0.3,0.5,0.5,0.6,0.5
				c0.2,0.2,0.4,0.3,0.7,0.3c0.3,0,0.5-0.1,0.8-0.4c0.2-0.2,0.3-0.5,0.3-0.8c0-0.2-0.1-0.4-0.2-0.6c0-0.1-0.1-0.1-0.1-0.1
				c0,0-0.1,0-0.1,0.1c-0.1,0.1-0.1,0.1-0.2,0.1c-0.2,0-0.3-0.1-0.3-0.3c0-0.1,0-0.2,0.1-0.2c0.1-0.1,0.2-0.1,0.3-0.1
				c0.2,0,0.3,0.1,0.5,0.3c0.1,0.2,0.2,0.4,0.2,0.7c0,0.4-0.1,0.7-0.4,1c-0.3,0.3-0.6,0.4-0.9,0.4c-0.2,0-0.4,0-0.6-0.1
				c-0.2-0.1-0.4-0.3-0.8-0.6c-0.4-0.4-0.9-0.6-1.3-0.6c-0.6,0-1,0.2-1.2,0.6c0,0.1,0,0.1,0,0.1c0,0,0,0.1,0,0.1c0,0,0,0,0,0
				c0,0,0,0,0.1,0c0.2,0,0.3,0.1,0.3,0.3c0,0.2-0.1,0.3-0.3,0.3c-0.3,0-0.5-0.3-0.5-0.9c0-0.8,0.3-1.4,0.8-1.9
				c0.4-0.4,1-0.7,1.9-0.9c0.7-0.2,1.1-0.4,1.3-0.5c0.2-0.1,0.4-0.3,0.6-0.5c0.2-0.3,0.3-0.6,0.3-1c0-0.6-0.2-1.1-0.6-1.4
				c-0.4-0.3-0.9-0.5-1.6-0.5c-1.2,0-1.9,0.4-2.3,1.3c-0.1,0.2-0.1,0.3-0.1,0.5c0,0.2,0,0.2,0.1,0.2c0,0,0.1,0,0.1,0
				c0.1,0,0.1-0.1,0.1-0.1c0.2,0,0.3,0.1,0.3,0.4c0,0.1,0,0.2-0.1,0.3c-0.1,0.1-0.2,0.1-0.3,0.1c-0.4,0-0.5-0.2-0.5-0.7
				c0-0.6,0.2-1.1,0.8-1.5c0.5-0.4,1.1-0.6,1.9-0.6c0.7,0,1.3,0.2,1.8,0.6s0.7,0.9,0.7,1.5c0,0.9-0.4,1.6-1.3,1.9
				c-0.3,0.1-0.7,0.3-1.2,0.4c-0.7,0.2-1.2,0.5-1.6,0.8s-0.6,0.7-0.8,1.2C108.7,131.8,108.7,131.9,108.7,132.1z"/>
			<path fill="#555252" d="M112.8,133.3c-0.3,0-0.5-0.1-0.7-0.2c-0.2-0.1-0.5-0.3-0.8-0.7c-0.4-0.3-0.8-0.5-1.1-0.5
				c-0.4,0-0.7,0.1-0.9,0.3c0.2,0.1,0.3,0.2,0.3,0.5c0,0.3-0.2,0.5-0.5,0.5c-0.1,0-0.3,0-0.4-0.1l0,0l0,0c-0.2-0.1-0.3-0.4-0.3-1
				c0-0.8,0.3-1.5,0.9-2c0.4-0.4,1.1-0.7,2-1c0.6-0.2,1.1-0.3,1.3-0.5c0.2-0.1,0.3-0.2,0.5-0.4c0.2-0.2,0.2-0.5,0.2-0.9
				c0-0.5-0.2-0.9-0.5-1.2c-0.3-0.3-0.8-0.4-1.4-0.4c-1.1,0-1.8,0.4-2,1.1c0,0.1-0.1,0.2-0.1,0.3c0,0,0.1,0,0.1,0
				c0.3,0,0.6,0.2,0.6,0.6c0,0.2-0.1,0.3-0.2,0.5c-0.1,0.1-0.3,0.2-0.5,0.2c-0.2,0-0.8-0.1-0.8-1c0-0.7,0.3-1.3,0.8-1.7
				c0.5-0.4,1.2-0.7,2.1-0.7c0.8,0,1.4,0.2,1.9,0.6c0.5,0.4,0.7,1,0.7,1.7c0,1-0.5,1.8-1.4,2.1c-0.3,0.1-0.7,0.3-1.2,0.4
				c-0.7,0.2-1.2,0.4-1.5,0.7c-0.3,0.2-0.5,0.5-0.7,0.9c0.3-0.2,0.6-0.3,1.1-0.3c0.5,0,1,0.2,1.5,0.7c0.4,0.4,0.6,0.5,0.6,0.5
				c0.4,0.3,0.8,0.3,1.1-0.1c0.2-0.2,0.3-0.4,0.3-0.7c0-0.1,0-0.2,0-0.3c-0.1,0.1-0.2,0.1-0.3,0.1c-0.3,0-0.5-0.2-0.5-0.5
				c0-0.2,0.1-0.3,0.2-0.4c0.1-0.1,0.3-0.1,0.4-0.1c0.2,0,0.5,0.1,0.7,0.4c0.2,0.2,0.2,0.5,0.2,0.8c0,0.5-0.2,0.9-0.5,1.2
				C113.6,133.2,113.2,133.3,112.8,133.3z"/>
		</g>
		<g>
			<path fill="#464546" d="M118.7,125.2c0.9,0,1.6,0.4,2.1,1.1c0.5,0.7,0.8,1.7,0.8,2.9c0,1.2-0.3,2.1-0.8,2.8c-0.5,0.7-1.2,1-2.1,1
				c-0.9,0-1.6-0.3-2.1-1c-0.5-0.7-0.8-1.7-0.8-2.9c0-1.2,0.3-2.2,0.8-2.9C117.1,125.6,117.8,125.2,118.7,125.2z M118.7,132.8
				c0.8,0,1.5-0.3,1.9-1c0.5-0.6,0.7-1.6,0.7-2.8c0-1.2-0.2-2-0.7-2.7c-0.5-0.6-1.1-1-1.9-1c-0.8,0-1.4,0.3-1.9,1
				c-0.5,0.7-0.7,1.6-0.7,2.7c0,1.1,0.2,2,0.7,2.7C117.2,132.5,117.9,132.8,118.7,132.8z"/>
			<path fill="#555252" d="M118.7,133.3c-1,0-1.7-0.4-2.3-1.1c-0.5-0.7-0.8-1.8-0.8-3c0-1.3,0.3-2.3,0.8-3c0.6-0.8,1.4-1.2,2.3-1.2
				c1,0,1.7,0.4,2.3,1.2c0.5,0.7,0.8,1.8,0.8,3.1c0,1.2-0.3,2.3-0.8,3C120.4,132.9,119.7,133.3,118.7,133.3z M118.7,125.7
				c-0.7,0-1.3,0.3-1.7,0.9c-0.4,0.6-0.6,1.5-0.6,2.6c0,1.1,0.2,1.9,0.6,2.5c0.4,0.6,1,0.9,1.7,0.9c0.7,0,1.3-0.3,1.7-0.9
				c0.4-0.6,0.6-1.5,0.6-2.6c0-1.1-0.2-1.9-0.6-2.5C120,126,119.4,125.7,118.7,125.7z"/>
		</g>
		<g>
			<path fill="#464546" d="M126.1,125.2c0.9,0,1.6,0.4,2.1,1.1c0.5,0.7,0.8,1.7,0.8,2.9c0,1.2-0.3,2.1-0.8,2.8c-0.5,0.7-1.2,1-2.1,1
				c-0.9,0-1.6-0.3-2.1-1c-0.5-0.7-0.8-1.7-0.8-2.9c0-1.2,0.3-2.2,0.8-2.9C124.5,125.6,125.2,125.2,126.1,125.2z M126.1,132.8
				c0.8,0,1.5-0.3,1.9-1c0.5-0.6,0.7-1.6,0.7-2.8c0-1.2-0.2-2-0.7-2.7c-0.5-0.6-1.1-1-1.9-1c-0.8,0-1.4,0.3-1.9,1
				c-0.5,0.7-0.7,1.6-0.7,2.7c0,1.1,0.2,2,0.7,2.7C124.6,132.5,125.3,132.8,126.1,132.8z"/>
			<path fill="#555252" d="M126.1,133.3c-1,0-1.7-0.4-2.3-1.1c-0.5-0.7-0.8-1.8-0.8-3c0-1.3,0.3-2.3,0.8-3c0.6-0.8,1.4-1.2,2.3-1.2
				c1,0,1.7,0.4,2.3,1.2c0.5,0.7,0.8,1.8,0.8,3.1c0,1.2-0.3,2.3-0.8,3C127.8,132.9,127,133.3,126.1,133.3z M126.1,125.7
				c-0.7,0-1.3,0.3-1.7,0.9c-0.4,0.6-0.6,1.5-0.6,2.6c0,1.1,0.2,1.9,0.6,2.5c0.4,0.6,1,0.9,1.7,0.9c0.7,0,1.3-0.3,1.7-0.9
				c0.4-0.6,0.6-1.5,0.6-2.6c0-1.1-0.2-1.9-0.6-2.5C127.4,126,126.8,125.7,126.1,125.7z"/>
		</g>
		<g>
			<path fill="#464546" d="M133.5,125.2c0.9,0,1.6,0.4,2.1,1.1c0.5,0.7,0.8,1.7,0.8,2.9c0,1.2-0.3,2.1-0.8,2.8c-0.5,0.7-1.2,1-2.1,1
				c-0.9,0-1.6-0.3-2.1-1c-0.5-0.7-0.8-1.7-0.8-2.9c0-1.2,0.3-2.2,0.8-2.9C131.9,125.6,132.6,125.2,133.5,125.2z M133.5,132.8
				c0.8,0,1.5-0.3,1.9-1c0.5-0.6,0.7-1.6,0.7-2.8c0-1.2-0.2-2-0.7-2.7c-0.5-0.6-1.1-1-1.9-1c-0.8,0-1.4,0.3-1.9,1
				c-0.5,0.7-0.7,1.6-0.7,2.7c0,1.1,0.2,2,0.7,2.7C132,132.5,132.7,132.8,133.5,132.8z"/>
			<path fill="#555252" d="M133.5,133.3c-1,0-1.7-0.4-2.3-1.1c-0.5-0.7-0.8-1.8-0.8-3c0-1.3,0.3-2.3,0.8-3c0.6-0.8,1.4-1.2,2.3-1.2
				c1,0,1.7,0.4,2.3,1.2c0.5,0.7,0.8,1.8,0.8,3.1c0,1.2-0.3,2.3-0.8,3C135.2,132.9,134.4,133.3,133.5,133.3z M133.4,125.7
				c-0.7,0-1.3,0.3-1.7,0.9c-0.4,0.6-0.6,1.5-0.6,2.6c0,1.1,0.2,1.9,0.6,2.5c0.4,0.6,1,0.9,1.7,0.9c0.7,0,1.3-0.3,1.7-0.9
				c0.4-0.6,0.6-1.5,0.6-2.6c0-1.1-0.2-1.9-0.6-2.5C134.8,126,134.2,125.7,133.4,125.7z"/>
		</g>
	</g>
	<path fill="#555252" d="M100.4,132.7h-3.6c-0.2,0-0.3-0.2-0.3-0.3s0.2-0.3,0.3-0.3h3.6c0.2,0,0.3,0.2,0.3,0.3
		S100.6,132.7,100.4,132.7z"/>
	<g>
		<path fill="#555252" d="M67.3,79.9H36.2c-0.4,0-0.7-0.3-0.7-0.7s0.3-0.7,0.7-0.7h31.1c0.4,0,0.7,0.3,0.7,0.7S67.6,79.9,67.3,79.9z
			"/>
		<path fill="#555252" d="M40.5,79.7c-0.2,0-0.4-0.1-0.5-0.2l-4.2-4.3c-0.3-0.3-0.3-0.7,0-1c0.3-0.3,0.7-0.3,1,0l4.2,4.3
			c0.3,0.3,0.3,0.7,0,1C40.8,79.6,40.6,79.7,40.5,79.7z"/>
		<path fill="#555252" d="M45.4,79.7c-0.2,0-0.4-0.1-0.5-0.2l-4.2-4.3c-0.3-0.3-0.3-0.7,0-1c0.3-0.3,0.7-0.3,1,0l4.2,4.3
			c0.3,0.3,0.3,0.7,0,1C45.7,79.6,45.6,79.7,45.4,79.7z"/>
		<path fill="#555252" d="M50.3,79.7c-0.2,0-0.4-0.1-0.5-0.2l-4.2-4.3c-0.3-0.3-0.3-0.7,0-1c0.3-0.3,0.7-0.3,1,0l4.2,4.3
			c0.3,0.3,0.3,0.7,0,1C50.7,79.6,50.5,79.7,50.3,79.7z"/>
		<path fill="#555252" d="M55.2,79.7c-0.2,0-0.4-0.1-0.5-0.2l-4.2-4.3c-0.3-0.3-0.3-0.7,0-1c0.3-0.3,0.7-0.3,1,0l4.2,4.3
			c0.3,0.3,0.3,0.7,0,1C55.6,79.6,55.4,79.7,55.2,79.7z"/>
		<path fill="#555252" d="M60.1,79.7c-0.2,0-0.4-0.1-0.5-0.2l-4.2-4.3c-0.3-0.3-0.3-0.7,0-1c0.3-0.3,0.7-0.3,1,0l4.2,4.3
			c0.3,0.3,0.3,0.7,0,1C60.5,79.6,60.3,79.7,60.1,79.7z"/>
		<path fill="#555252" d="M65.1,79.7c-0.2,0-0.4-0.1-0.5-0.2l-4.2-4.3c-0.3-0.3-0.3-0.7,0-1c0.3-0.3,0.7-0.3,1,0l4.2,4.3
			c0.3,0.3,0.3,0.7,0,1C65.4,79.6,65.2,79.7,65.1,79.7z"/>
	</g>
	<g>
		<path fill="#555252" d="M175.5,79.9h-31.1c-0.4,0-0.7-0.3-0.7-0.7s0.3-0.7,0.7-0.7h31.1c0.4,0,0.7,0.3,0.7,0.7
			S175.9,79.9,175.5,79.9z"/>
		<path fill="#555252" d="M171.2,79.7c-0.2,0-0.4-0.1-0.5-0.2c-0.3-0.3-0.3-0.7,0-1l4.2-4.3c0.3-0.3,0.7-0.3,1,0
			c0.3,0.3,0.3,0.7,0,1l-4.2,4.3C171.6,79.6,171.4,79.7,171.2,79.7z"/>
		<path fill="#555252" d="M166.3,79.7c-0.2,0-0.4-0.1-0.5-0.2c-0.3-0.3-0.3-0.7,0-1l4.2-4.3c0.3-0.3,0.7-0.3,1,0
			c0.3,0.3,0.3,0.7,0,1l-4.2,4.3C166.6,79.6,166.5,79.7,166.3,79.7z"/>
		<path fill="#555252" d="M161.4,79.7c-0.2,0-0.4-0.1-0.5-0.2c-0.3-0.3-0.3-0.7,0-1l4.2-4.3c0.3-0.3,0.7-0.3,1,0
			c0.3,0.3,0.3,0.7,0,1l-4.2,4.3C161.7,79.6,161.5,79.7,161.4,79.7z"/>
		<path fill="#555252" d="M156.4,79.7c-0.2,0-0.4-0.1-0.5-0.2c-0.3-0.3-0.3-0.7,0-1l4.2-4.3c0.3-0.3,0.7-0.3,1,0
			c0.3,0.3,0.3,0.7,0,1l-4.2,4.3C156.8,79.6,156.6,79.7,156.4,79.7z"/>
		<path fill="#555252" d="M151.5,79.7c-0.2,0-0.4-0.1-0.5-0.2c-0.3-0.3-0.3-0.7,0-1l4.2-4.3c0.3-0.3,0.7-0.3,1,0
			c0.3,0.3,0.3,0.7,0,1l-4.2,4.3C151.9,79.6,151.7,79.7,151.5,79.7z"/>
		<path fill="#555252" d="M146.6,79.7c-0.2,0-0.4-0.1-0.5-0.2c-0.3-0.3-0.3-0.7,0-1l4.2-4.3c0.3-0.3,0.7-0.3,1,0
			c0.3,0.3,0.3,0.7,0,1l-4.2,4.3C147,79.6,146.8,79.7,146.6,79.7z"/>
	</g>
	<g>
		<path fill="#555252" d="M175.5,128.2h-31.1c-0.4,0-0.7-0.3-0.7-0.7s0.3-0.7,0.7-0.7h31.1c0.4,0,0.7,0.3,0.7,0.7
			S175.9,128.2,175.5,128.2z"/>
		<path fill="#555252" d="M175.5,132.6c-0.2,0-0.4-0.1-0.5-0.2l-4.2-4.3c-0.3-0.3-0.3-0.7,0-1c0.3-0.3,0.7-0.3,1,0l4.2,4.3
			c0.3,0.3,0.3,0.7,0,1C175.8,132.5,175.6,132.6,175.5,132.6z"/>
		<path fill="#555252" d="M170.5,132.6c-0.2,0-0.4-0.1-0.5-0.2l-4.2-4.3c-0.3-0.3-0.3-0.7,0-1c0.3-0.3,0.7-0.3,1,0l4.2,4.3
			c0.3,0.3,0.3,0.7,0,1C170.9,132.5,170.7,132.6,170.5,132.6z"/>
		<path fill="#555252" d="M165.6,132.6c-0.2,0-0.4-0.1-0.5-0.2l-4.2-4.3c-0.3-0.3-0.3-0.7,0-1s0.7-0.3,1,0l4.2,4.3
			c0.3,0.3,0.3,0.7,0,1C166,132.5,165.8,132.6,165.6,132.6z"/>
		<path fill="#555252" d="M160.7,132.6c-0.2,0-0.4-0.1-0.5-0.2l-4.2-4.3c-0.3-0.3-0.3-0.7,0-1s0.7-0.3,1,0l4.2,4.3
			c0.3,0.3,0.3,0.7,0,1C161.1,132.5,160.9,132.6,160.7,132.6z"/>
		<path fill="#555252" d="M155.8,132.6c-0.2,0-0.4-0.1-0.5-0.2l-4.2-4.3c-0.3-0.3-0.3-0.7,0-1s0.7-0.3,1,0l4.2,4.3
			c0.3,0.3,0.3,0.7,0,1C156.1,132.5,156,132.6,155.8,132.6z"/>
		<path fill="#555252" d="M150.9,132.6c-0.2,0-0.4-0.1-0.5-0.2l-4.2-4.3c-0.3-0.3-0.3-0.7,0-1s0.7-0.3,1,0l4.2,4.3
			c0.3,0.3,0.3,0.7,0,1C151.2,132.5,151,132.6,150.9,132.6z"/>
	</g>
	<g>
		<path fill="#555252" d="M67.3,128.2H36.2c-0.4,0-0.7-0.3-0.7-0.7s0.3-0.7,0.7-0.7h31.1c0.4,0,0.7,0.3,0.7,0.7
			S67.6,128.2,67.3,128.2z"/>
		<path fill="#555252" d="M36.2,132.6c-0.2,0-0.4-0.1-0.5-0.2c-0.3-0.3-0.3-0.7,0-1l4.2-4.3c0.3-0.3,0.7-0.3,1,0
			c0.3,0.3,0.3,0.7,0,1l-4.2,4.3C36.6,132.5,36.4,132.6,36.2,132.6z"/>
		<path fill="#555252" d="M41.1,132.6c-0.2,0-0.4-0.1-0.5-0.2c-0.3-0.3-0.3-0.7,0-1l4.2-4.3c0.3-0.3,0.7-0.3,1,0
			c0.3,0.3,0.3,0.7,0,1l-4.2,4.3C41.5,132.5,41.3,132.6,41.1,132.6z"/>
		<path fill="#555252" d="M46.1,132.6c-0.2,0-0.4-0.1-0.5-0.2c-0.3-0.3-0.3-0.7,0-1l4.2-4.3c0.3-0.3,0.7-0.3,1,0s0.3,0.7,0,1
			l-4.2,4.3C46.4,132.5,46.2,132.6,46.1,132.6z"/>
		<path fill="#555252" d="M51,132.6c-0.2,0-0.4-0.1-0.5-0.2c-0.3-0.3-0.3-0.7,0-1l4.2-4.3c0.3-0.3,0.7-0.3,1,0c0.3,0.3,0.3,0.7,0,1
			l-4.2,4.3C51.3,132.5,51.2,132.6,51,132.6z"/>
		<path fill="#555252" d="M55.9,132.6c-0.2,0-0.4-0.1-0.5-0.2c-0.3-0.3-0.3-0.7,0-1l4.2-4.3c0.3-0.3,0.7-0.3,1,0
			c0.3,0.3,0.3,0.7,0,1l-4.2,4.3C56.3,132.5,56.1,132.6,55.9,132.6z"/>
		<path fill="#555252" d="M60.8,132.6c-0.2,0-0.4-0.1-0.5-0.2c-0.3-0.3-0.3-0.7,0-1l4.2-4.3c0.3-0.3,0.7-0.3,1,0
			c0.3,0.3,0.3,0.7,0,1l-4.2,4.3C61.2,132.5,61,132.6,60.8,132.6z"/>
	</g>
	<g>
		<path fill="#555252" d="M110.2,153c-0.2,0-0.4-0.1-0.5-0.2l-9.7-9.8c-0.3-0.3-0.3-0.7,0-1s0.7-0.3,1,0l9.7,9.8
			c0.3,0.3,0.3,0.7,0,1C110.5,152.9,110.4,153,110.2,153z"/>
		<path fill="#555252" d="M100.5,153c-0.2,0-0.4-0.1-0.5-0.2c-0.3-0.3-0.3-0.7,0-1l9.7-9.8c0.3-0.3,0.7-0.3,1,0c0.3,0.3,0.3,0.7,0,1
			l-9.7,9.8C100.8,152.9,100.6,153,100.5,153z"/>
	</g>
	<g>
		<g>
			<path fill="#343234" d="M82.7,66.3c2.7,0,4.9,1,6.6,3.1c1.7,2.1,2.5,4.8,2.5,8.2c0,3.4-0.8,6.1-2.4,8.2c-1.6,2.1-3.8,3.1-6.4,3.1
				c-2.8,0-5-1-6.7-3.1c-1.7-2.1-2.5-4.8-2.5-8.2c0-3.4,0.8-6.1,2.5-8.2C77.9,67.4,80.1,66.3,82.7,66.3z M82.8,88.2
				c2.4,0,4.4-1,5.8-2.9c1.5-1.9,2.2-4.5,2.2-7.6c0-3.1-0.8-5.7-2.3-7.6c-1.5-2-3.5-3-5.9-3c-2.3,0-4.2,1-5.7,2.9
				c-1.5,2-2.2,4.5-2.2,7.6c0,3.2,0.7,5.8,2.2,7.7C78.4,87.2,80.4,88.2,82.8,88.2z"/>
			<path fill="#4A4849" d="M83,89.6c-3,0-5.4-1.1-7.2-3.3c-1.8-2.2-2.7-5.1-2.7-8.6c0-3.5,0.9-6.4,2.6-8.6c1.8-2.3,4.1-3.4,7-3.4
				c2.9,0,5.3,1.1,7.1,3.4c1.8,2.2,2.7,5.1,2.7,8.6c0,3.5-0.9,6.4-2.6,8.6C88.2,88.5,85.8,89.6,83,89.6z M82.6,67.8
				c-2.1,0-3.8,0.9-5.1,2.7c-1.4,1.8-2.1,4.2-2.1,7.2c0,3.1,0.7,5.5,2.1,7.3c1.3,1.8,3.1,2.6,5.3,2.6c2.2,0,3.9-0.9,5.3-2.6
				c1.4-1.8,2.1-4.2,2.1-7.2c0-2.9-0.7-5.4-2.2-7.2C86.6,68.6,84.8,67.8,82.6,67.8z"/>
		</g>
		<g>
			<path fill="#343234" d="M111.7,72.1v9.6c0,1.4-0.1,2.5-0.3,3.2c-0.2,0.7-0.6,1.4-1.3,2c-1.5,1.4-3.4,2.1-5.7,2.1
				c-2.3,0-4.1-0.7-5.6-2.1c-1.2-1.1-1.8-2.9-1.8-5.3L97,69.7c0-0.7-0.1-1.3-0.3-1.5c-0.2-0.4-0.6-0.6-1.3-0.6c-0.2,0-0.5,0-1,0.1
				c-0.2,0-0.5,0-0.8,0c-0.4,0-0.7-0.1-0.7-0.4s0.2-0.4,0.7-0.4h0.1l0.7,0.1c0.3,0,0.7,0,1.3,0.1c0.6,0.1,1,0.1,1.3,0.1h0.9
				c0.3,0,0.7,0,1.3-0.1c0.6-0.1,1-0.1,1.3-0.1l0.7-0.1h0.1c0.4,0,0.7,0.1,0.7,0.4c0,0.3-0.2,0.4-0.7,0.4c-0.3,0-0.5,0-0.8,0
				c-0.5,0-0.8-0.1-1-0.1c-0.7,0-1.1,0.2-1.3,0.6c-0.2,0.3-0.3,0.8-0.3,1.6v4.6V81c0,1.3,0,2.2,0.1,2.7c0.2,0.9,0.6,1.7,1.2,2.4
				c1.3,1.4,3,2.1,5.1,2.1c1.3,0,2.4-0.3,3.5-0.8c1.3-0.6,2.1-1.4,2.6-2.5c0.3-0.6,0.4-1.7,0.4-3.2v-7.4c0-0.7,0-1.5,0-2.2l-0.1-2.4
				c0-0.8-0.1-1.4-0.3-1.7c-0.2-0.3-0.6-0.5-1.2-0.5c-0.1,0-0.5,0-0.9,0.1c-0.2,0-0.5,0-0.8,0c-0.4,0-0.7-0.1-0.7-0.4
				s0.2-0.4,0.6-0.4h0.1l0.7,0.1c0.3,0,0.7,0,1.3,0.1c0.6,0.1,1,0.1,1.3,0.1h0.9c0.3,0,1.1-0.1,2.5-0.2l0.7-0.1h0.1
				c0.4,0,0.7,0.1,0.7,0.4c0,0.3-0.2,0.4-0.7,0.4c-0.3,0-0.5,0-0.8,0c-0.5,0-0.9-0.1-1-0.1c-0.6,0-1.1,0.2-1.3,0.6
				c-0.1,0.3-0.2,0.8-0.2,1.5V72.1z"/>
			<path fill="#4A4849" d="M104.4,89.6c-2.4,0-4.5-0.8-6.1-2.3c-1.3-1.3-2-3.2-2-5.8l-0.1-11.8c0-0.9-0.1-1.2-0.2-1.2
				c0-0.1-0.1-0.3-0.7-0.3c-0.2,0-0.5,0-0.9,0.1c-0.2,0-0.5,0-0.8,0c-1,0-1.4-0.6-1.4-1.1c0-0.5,0.4-1.1,1.4-1.1l0.8,0.1
				c0.3,0,0.7,0,1.3,0.1c0.5,0.1,0.9,0.1,1.2,0.1h0.9c0.3,0,0.7,0,1.2-0.1c0.6-0.1,1.1-0.1,1.3-0.1l0.8-0.1c1.3,0,1.4,0.9,1.4,1.1
				c0,0.5-0.4,1.1-1.4,1.1c-0.3,0-0.6,0-0.9,0c-0.5,0-0.8-0.1-0.9-0.1c-0.4,0-0.6,0.1-0.7,0.2c0,0.1-0.2,0.3-0.2,1.2V81
				c0,1.6,0.1,2.3,0.1,2.6c0.1,0.7,0.5,1.4,1,2.1c1.1,1.3,2.6,1.9,4.6,1.9c1.1,0,2.2-0.2,3.2-0.7c1.1-0.5,1.9-1.2,2.2-2.1
				c0.2-0.4,0.4-1.2,0.4-2.9v-9.6l-0.1-2.3c0-0.9-0.2-1.3-0.2-1.3c-0.1-0.2-0.5-0.2-0.7-0.2c-0.1,0-0.4,0-0.9,0.1
				c-0.2,0-0.5,0-0.8,0c-1,0-1.4-0.6-1.4-1.1c0-0.5,0.3-1.1,1.3-1.1l0.9,0.1c0.2,0,0.7,0,1.3,0.1c0.5,0.1,0.9,0.1,1.2,0.1h0.9
				c0.1,0,0.6,0,2.5-0.2l0.9-0.1c1.3,0,1.4,0.9,1.4,1.1c0,0.5-0.4,1.1-1.4,1.1c-0.3,0-0.6,0-0.9,0c-0.5,0-0.8-0.1-1-0.1
				c-0.5,0-0.7,0.2-0.7,0.3c0,0-0.1,0.3-0.1,1.2v11.9c0,1.5-0.1,2.6-0.4,3.4c-0.3,0.8-0.7,1.6-1.5,2.3
				C109,88.8,106.9,89.6,104.4,89.6z"/>
		</g>
		<g>
			<path fill="#343234" d="M133.1,76.8c-0.5,0.3-1.1,0.5-1.8,0.6c0.9,0.3,1.6,0.8,2,1.3c0.8,1,1.2,2.6,1.2,4.7v1.9
				c0,1.8,0.6,2.7,1.8,2.7c0.8,0,1.3-0.3,1.7-0.9c0.3-0.6,0.5-1.7,0.5-3.2v-0.8l-0.1-2.2l0-0.1c0-0.5,0.1-0.8,0.4-0.8
				s0.4,0.3,0.4,0.8v4.4c0,1.1-0.3,1.9-0.8,2.6c-0.5,0.6-1.2,1-2,1c-1.8,0-2.7-1.3-2.7-3.8v-2c0-2.1-0.4-3.5-1.2-4.2
				c-0.8-0.7-2.3-1.1-4.6-1.1h-3.9c-0.6,0-1,0.1-1.1,0.2c-0.1,0.2-0.2,0.4-0.2,0.8v2.2v4.6c0,0.8,0.1,1.3,0.3,1.6
				c0.2,0.4,0.7,0.6,1.3,0.6c0.2,0,0.5,0,1-0.1c0.5,0,0.7-0.1,0.8-0.1c0.4,0,0.7,0.1,0.7,0.4c0,0.3-0.2,0.4-0.6,0.4
				c-0.3,0-0.9,0-1.7-0.1c-1-0.1-1.6-0.2-1.7-0.2h-0.9c-0.1,0-0.6,0.1-1.6,0.2c-0.8,0.1-1.4,0.1-1.7,0.1c-0.5,0-0.7-0.1-0.7-0.4
				c0-0.3,0.2-0.5,0.7-0.5c0,0,0.3,0,0.8,0.1c0.5,0,0.8,0.1,1,0.1c0.6,0,0.9-0.2,1.2-0.5c0.2-0.3,0.3-0.9,0.4-1.7v-2.4V69.7
				c0-0.8-0.1-1.4-0.4-1.7s-0.6-0.5-1.2-0.5c-0.1,0-0.5,0-1,0.1c-0.2,0-0.5,0-0.8,0c-0.5,0-0.7-0.1-0.7-0.4s0.2-0.4,0.7-0.4h0.1
				l0.7,0.1c0.3,0,0.7,0,1.3,0.1c0.6,0.1,1,0.1,1.3,0.1h0.9h1.8l2.1-0.1c0.7,0,1.4-0.1,2.1-0.1c4.7,0,7.1,1.8,7.1,5.4
				C135.6,74.3,134.8,75.8,133.1,76.8z M122.5,76.4c0,0.3,0.1,0.5,0.3,0.6c0.1,0,0.3,0,0.8,0h5.3c3.8,0,5.7-1.6,5.7-4.7
				c0-3-1.8-4.6-5.3-4.8c-0.4,0-0.9,0-1.6,0c-0.4,0-1,0-1.8,0.1c-0.8,0.1-1.4,0.1-1.8,0.1c-0.8,0-1.2,0.1-1.4,0.3s-0.3,0.8-0.3,1.8
				V76.4z"/>
			<path fill="#4A4849" d="M136.2,89.5c-1.5,0-3.4-0.8-3.4-4.5v-2c0-1.8-0.3-3.1-1-3.7c-0.5-0.4-1.5-0.9-4.2-0.9h-3.9
				c-0.3,0-0.5,0-0.6,0c0,0.1,0,0.1,0,0.3v6.8c0,1,0.1,1.2,0.2,1.2c0.1,0.2,0.5,0.3,0.7,0.3c0.2,0,0.5,0,0.9-0.1
				c0.5,0,0.8-0.1,0.8-0.1c1,0,1.4,0.6,1.4,1.1c0,0.5-0.3,1.1-1.3,1.1c-0.3,0-0.9,0-1.8-0.1c-1-0.1-1.5-0.2-1.6-0.2h-0.9
				c-0.1,0-0.6,0.1-1.6,0.2c-0.8,0.1-1.4,0.1-1.8,0.1c-1.3,0-1.4-0.9-1.4-1.1c0-0.5,0.4-1.2,1.4-1.2c0,0,0.3,0,0.8,0.1
				c0.4,0,0.7,0.1,0.9,0.1c0.2,0,0.5,0,0.6-0.2c0-0.1,0.2-0.4,0.2-1.4V69.7c0-1-0.2-1.3-0.2-1.3c-0.1-0.1-0.4-0.2-0.6-0.2
				c-0.1,0-0.4,0-0.9,0.1c-0.3,0-0.6,0-0.9,0c-1.3,0-1.4-0.9-1.4-1.1c0-0.5,0.4-1.1,1.4-1.1l0.9,0.1c0.2,0,0.7,0,1.3,0.1
				c0.5,0.1,0.9,0.1,1.2,0.1h2.7l2-0.1c0.7-0.1,1.4-0.1,2.1-0.1c6.4,0,7.8,3.3,7.8,6.1c0,2.4-1,4.1-2.9,5.3
				c-0.1,0.1-0.2,0.1-0.4,0.2c0.3,0.2,0.5,0.4,0.7,0.7c0.9,1.2,1.4,2.9,1.3,5.1v1.9c0,0.9,0.1,1.5,0.4,1.8c0.1,0.1,0.3,0.2,0.7,0.2
				c0.7,0,0.9-0.3,1-0.5c0.2-0.4,0.4-1.1,0.4-2.9l-0.1-3.1c0-1.4,0.8-1.5,1.1-1.5c0.3,0,1.1,0.1,1.1,1.5v4.4c0,1.2-0.3,2.2-1,3
				C138.2,89,137.3,89.5,136.2,89.5z M123.3,68.5c0,0-0.1,0.3-0.1,1.3v6.5c0.1,0,0.2,0,0.4,0h5.3c4.5,0,5-2.3,5-4
				c0-1.6-0.5-3.9-4.7-4.1c-0.4,0-0.9,0-1.5,0c-0.4,0-1,0-1.7,0.1c-0.8,0.1-1.4,0.1-1.8,0.1C123.5,68.4,123.3,68.5,123.3,68.5z"/>
		</g>
		<g>
			<path fill="#343234" d="M38.2,95.5v20.2c0,0.9,0.1,1.5,0.3,1.8c0.2,0.5,0.8,0.8,1.5,0.8c0.5,0,0.9,0,1.2-0.1
				c0.3,0,0.6-0.1,0.9-0.1c0.5,0,0.8,0.2,0.8,0.5c0,0.3-0.3,0.5-0.8,0.5h-0.1l-0.8-0.1c-0.2,0-0.6,0-1.1-0.1l-1-0.1
				c-0.3,0-0.7,0-1,0h-1c-0.3,0-0.6,0-0.9,0l-1.1,0.1c-0.5,0-0.9,0.1-1,0.1l-0.8,0.1h-0.1c-0.5,0-0.8-0.1-0.8-0.5
				c0-0.4,0.3-0.5,0.8-0.5c0.3,0,0.6,0,0.9,0.1c0.3,0,0.6,0.1,1.1,0.1c0.7,0,1.1-0.2,1.4-0.5c0.3-0.4,0.4-1,0.4-2v-2.8V96.7
				c0-0.7-0.1-1.2-0.3-1.5c-0.2-0.4-0.6-0.6-1.2-0.6c-0.2,0-0.6,0-1.1,0.1c-0.5,0.1-0.9,0.1-1.1,0.1h-0.1c-0.6,0-0.8-0.2-0.8-0.5
				c0-0.4,0.2-0.5,0.7-0.5c0.3,0,0.8,0,1.5,0.1c0.6,0.1,1.1,0.1,1.5,0.1h1.2c0.3,0,0.7-0.1,1.2-0.2c0.6,0,1,0.4,1.3,1.2l8,22.4
				c0.1,0.3,0.2,0.4,0.3,0.4s0.2-0.1,0.3-0.4l8.1-22.2c0.3-0.8,0.7-1.2,1.2-1.2h0.1l1.4,0.1c0.5,0,0.8,0,1,0c0.5,0,1,0,1.5-0.1
				c0.5,0,0.9-0.1,1.2-0.1c0.5,0,0.7,0.2,0.7,0.5c0,0.3-0.2,0.4-0.7,0.4c-0.3,0-0.7,0-1.1-0.1c-0.4-0.1-0.8-0.1-1.2-0.1
				c-1.1,0-1.7,0.7-1.7,2v0.1c0,1.1,0,2,0,2.8c0,0.8,0,1.8,0,3.1v13.1c0,0.9,0.1,1.5,0.3,1.8c0.2,0.5,0.8,0.8,1.6,0.8
				c0.5,0,0.9,0,1.1-0.1c0.3,0,0.6-0.1,0.9-0.1c0.5,0,0.8,0.2,0.8,0.5c0,0.3-0.2,0.5-0.7,0.5c-0.1,0-0.5,0-1-0.1
				c-1.2-0.1-2-0.2-2.3-0.2c-0.1,0-0.2,0-0.3,0c-0.1,0-0.3,0-0.4,0h-1c-0.2,0-0.9,0.1-1.9,0.2c-0.5,0-0.9,0.1-1,0.1l-0.8,0.1H54
				c-0.5,0-0.8-0.1-0.8-0.5c0-0.4,0.3-0.5,0.8-0.5c0.4,0,0.7,0,0.9,0c0.4,0.1,0.7,0.1,1.1,0.1c0.7,0,1.2-0.3,1.5-0.8
				c0.2-0.3,0.3-0.9,0.3-1.8v-2.8V95.4c0-0.3,0-0.5-0.1-0.5c-0.1,0-0.1,0.1-0.2,0.2l-0.1,0.2L49,117.8c-0.3,0.8-0.6,1.1-1.1,1.1
				c-0.4,0-0.8-0.4-1.1-1.1l-8-22.4c-0.1-0.3-0.2-0.5-0.4-0.5C38.3,94.9,38.2,95.1,38.2,95.5z"/>
			<path fill="#4A4849" d="M62.9,119.6c-0.2,0-0.5,0-1-0.1c-1.5-0.2-2.1-0.2-2.3-0.2c-0.1,0-0.2,0-0.4,0l-1.3,0
				c-0.2,0-0.6,0-1.9,0.1c-0.5,0.1-0.9,0.1-1.1,0.1l-1,0.1c-1.2,0-1.3-0.7-1.3-1c0-0.2,0.1-1.1,1.3-1.1c0.4,0,0.7,0,0.9,0
				c0.3,0,0.7,0.1,1.1,0.1c0.7,0,0.9-0.3,1-0.5c0.1-0.2,0.2-0.6,0.2-1.6V97.1L49.5,118c-0.4,1-0.9,1.5-1.5,1.5
				c-0.7,0-1.2-0.5-1.5-1.5l-7.6-21.3v19.1c0,1,0.2,1.4,0.2,1.6c0.1,0.2,0.3,0.5,1.1,0.5c0.5,0,0.8,0,1.1-0.1c0.3,0,0.6-0.1,1-0.1
				c1.2,0,1.3,0.8,1.3,1.1c0,0.2-0.1,1-1.3,1l-0.2,0l-0.8-0.1c-0.2,0-0.5,0-1.1-0.1l-1-0.1c-0.3,0-0.6,0-0.9,0h-1
				c-0.3,0-0.5,0-0.8,0l-1.1,0.1c-0.6,0.1-0.9,0.1-1.1,0.1l-1,0.1c-1.2,0-1.3-0.7-1.3-1c0-0.2,0.1-1.1,1.3-1.1c0.3,0,0.7,0,1,0.1
				c0.3,0,0.6,0.1,1,0.1c0.5,0,0.8-0.1,1-0.3c0.1-0.2,0.3-0.6,0.3-1.7v-19c0-0.8-0.1-1.1-0.2-1.2c0-0.1-0.2-0.3-0.8-0.3
				c-0.2,0-0.6,0-1,0.1c-0.5,0.1-0.9,0.1-1.2,0.1c-1.3,0-1.4-0.8-1.4-1c0-0.5,0.3-1.1,1.3-1.1c0.3,0,0.8,0,1.5,0.1
				c0.6,0,1.1,0.1,1.4,0.1h1.2c0.3,0,0.7,0,1.1-0.1c0.7-0.1,1.4,0.3,1.9,1.5l7.8,21.9L56,94.9c0.4-1,0.9-1.6,1.7-1.6h0.1l1.4,0.1
				c0.5,0,0.8,0,1,0c0.5,0,0.9,0,1.4-0.1c0.5,0,1-0.1,1.3-0.1c1.2,0,1.3,0.8,1.3,1c0,0.2-0.1,1-1.3,1c-0.3,0-0.7,0-1.2-0.1
				c-0.4,0-0.8-0.1-1.1-0.1c-0.6,0-1.2,0.2-1.2,1.5v19.1c0,1,0.2,1.4,0.2,1.6c0.1,0.1,0.2,0.5,1.1,0.5c0.4,0,0.8,0,1.1-0.1
				c0.3,0,0.6-0.1,1-0.1c1.2,0,1.3,0.8,1.3,1.1C64.2,118.9,64.1,119.6,62.9,119.6z M47.5,118c0.2,0.4,0.3,0.6,0.6,0.2
				C47.9,118.3,47.7,118.2,47.5,118z M57.6,94.4c0.2,0,0.7,0.1,0.7,1v20.3c0,1-0.1,1.6-0.3,2c-0.1,0.2-0.2,0.4-0.4,0.6
				c0.2,0,0.3,0,0.4,0h1.3c-0.2-0.2-0.4-0.4-0.4-0.6c-0.2-0.4-0.3-1-0.4-2v-19c0-1.2,0.4-1.9,0.9-2.3c0,0-0.1,0-0.1,0l-1.4-0.1
				L57.6,94.4C57.7,94.4,57.6,94.4,57.6,94.4C57.6,94.4,57.6,94.4,57.6,94.4z M36.8,94.4c0.3,0.2,0.4,0.4,0.5,0.6
				c0.2,0.4,0.3,0.9,0.3,1.7v19c0,1.1-0.2,1.9-0.5,2.3c-0.1,0.1-0.2,0.2-0.3,0.3c0.1,0,0.2,0,0.4,0h1c0.1,0,0.2,0,0.3,0
				c-0.2-0.2-0.4-0.4-0.4-0.6c-0.2-0.4-0.3-1-0.4-2V95.5c0-1,0.5-1.2,0.8-1.2c0.3,0,0.5,0.1,0.6,0.3c-0.3-0.4-0.5-0.4-0.6-0.4
				c-0.4,0.1-0.8,0.2-1.2,0.2H36.8z"/>
		</g>
		<g>
			<path fill="#343234" d="M83.5,117.7l-2.7-0.1l-4,0l-3.5-0.1h-1.9h-0.9c-0.1,0-0.4,0-0.7,0c-0.2,0-0.5,0-0.9,0.1l-0.8,0.1
				c0,0-0.1,0-0.1,0c-0.6,0-0.9-0.2-0.9-0.5c0-0.3,0.3-0.5,0.8-0.5c0.1,0,0.1,0,0.2,0l0.8,0.1c0.4,0,0.7,0.1,1,0.1
				c0.6,0,1-0.3,1.2-0.8c0.1-0.2,0.1-0.8,0.1-1.6v-0.3c0-0.1,0-0.8,0-2v-2.3v-6.1v-2.3v-2.3c0-0.9,0-1.4-0.1-1.6
				c-0.1-0.5-0.5-0.8-1.2-0.8c-0.3,0-0.7,0-1,0.1l-0.8,0.1h-0.2c-0.5,0-0.8-0.2-0.8-0.5c0-0.3,0.3-0.5,0.8-0.5c0.1,0,0.2,0,0.2,0
				c1.3,0.1,2.1,0.2,2.4,0.2h10.3l2.7-0.2h0.2c0.7,0,1,0.3,1,1c0,0.2,0,0.6-0.1,1.3c0,0.6-0.1,1.3-0.1,2.1c0,1.3,0,2.2,0.1,2.9v0.2
				c0,0.7-0.2,1.1-0.5,1.1c-0.3,0-0.5-0.3-0.5-1v-0.3c0-0.4,0.1-0.9,0.1-1.3v-1.2l0.1-1.2v-0.3c0-1.1-0.2-1.8-0.5-2.1
				c-0.3-0.2-1.2-0.4-2.6-0.4h-6.8c-0.9,0-1.4,0.1-1.6,0.4c-0.2,0.3-0.3,1.2-0.3,2.6v5.1c0,0.5,0.1,0.8,0.2,0.9
				c0.1,0.1,0.5,0.1,1.1,0.1h3.3c1.7,0,2.5-0.6,2.5-1.7v-0.1v-0.9l-0.2-1.2c0-0.6,0.2-0.9,0.5-0.9c0.3,0,0.5,0.3,0.5,0.9
				c0,0.1,0,0.6-0.1,1.3c-0.1,1.1-0.2,2.1-0.2,2.9c0,1.8,0.1,3.5,0.3,4.9v0.3c0,0.6-0.1,0.9-0.4,0.9c-0.3,0-0.5-0.3-0.5-1
				c0-0.1,0-0.1,0-0.2l0.2-1.2V109v-0.2c0-0.8-0.2-1.3-0.5-1.6c-0.4-0.3-1-0.4-1.9-0.4h-3.5c-0.5,0-0.9,0.1-1,0.2
				c-0.1,0.1-0.2,0.5-0.2,1.1v6.8c0,0.6,0,1,0,1.1c0.1,0.4,0.3,0.7,0.6,0.8c0.2,0.1,0.8,0.1,1.8,0.1h5.8c1.9,0,3-0.2,3.4-0.5
				s0.6-1.3,0.6-2.9c0-0.5,0-1,0-1.4l-0.1-1.3c0-0.6,0.1-1,0.4-1c0.3,0,0.4,0.3,0.4,0.8v0.1l-0.1,1c0,0.3,0,0.7,0,1.3
				c0,0.6,0,1,0,1.3v1.9c0,0.6-0.1,1-0.3,1.3C84.4,117.6,84,117.7,83.5,117.7z"/>
			<path fill="#4A4849" d="M83.6,118.4l-0.2,0l-2.7-0.1l-4,0l-6.3-0.1c-0.1,0-0.4,0-0.6,0c-0.2,0-0.5,0-0.9,0.1l-1,0.1
				c-1.5,0-1.6-0.9-1.6-1.2c0-0.2,0.1-1.2,1.5-1.2c0.1,0,0.2,0,0.3,0l0.8,0.1c0.3,0,0.7,0.1,1,0.1c0.4,0,0.5-0.2,0.5-0.3
				c0,0,0.1-0.3,0.1-1.4V99.3c0-1.1-0.1-1.3-0.1-1.4c-0.1-0.2-0.1-0.3-0.5-0.3c-0.3,0-0.6,0-1,0.1l-1.1,0.1c-1.4,0-1.5-1-1.5-1.2
				c0-0.3,0.1-1.2,1.5-1.2h0.2V96l0.1-0.7c1.5,0.2,2.1,0.2,2.3,0.2h10.3l2.9-0.2c1.1,0,1.7,0.6,1.7,1.7c0,0.2,0,0.7-0.1,1.3
				c0,0.6-0.1,1.3-0.1,2.1c0,1.2,0,2.2,0.1,2.8l0,0.3c0,1.6-0.7,1.8-1.2,1.8c-0.3,0-1.2-0.2-1.2-1.7v-0.3c0-0.5,0.1-0.9,0.1-1.4
				l0-1.2l0.1-1.3l0-0.2c0-1.3-0.2-1.5-0.2-1.5c0,0-0.4-0.2-2.2-0.2h-6.8c-0.9,0-1.1,0.1-1.1,0.2l0,0c0,0-0.1,0.4-0.1,2.2v5.1
				c0,0.1,0,0.2,0,0.3c0.1,0,0.3,0,0.6,0h3.3c1.8,0,1.8-0.7,1.8-1v-1l-0.2-1.1c0-1.5,0.9-1.7,1.1-1.7c0.3,0,1.2,0.1,1.2,1.6
				c0,0.2,0,0.6-0.1,1.3c-0.1,1.1-0.2,2-0.2,2.8c0,1.8,0.1,3.4,0.3,4.8l0,0.4c0,1.4-0.8,1.6-1.1,1.6c-0.4,0-1.2-0.2-1.2-1.7v-0.2
				l0.2-1.2l0-1.2c0-0.5-0.1-0.9-0.3-1.1c-0.1-0.1-0.5-0.3-1.5-0.3h-3.5c-0.2,0-0.4,0-0.4,0c0,0.1,0,0.3,0,0.6v6.8c0,0.5,0,0.9,0,1
				c0,0.1,0.1,0.2,0.1,0.3c0,0,0.3,0.1,1.5,0.1h5.8c2.5,0,2.9-0.3,3-0.4c0,0,0.4-0.3,0.4-2.4c0-0.5,0-1,0-1.4l-0.1-1.3
				c0-1.5,0.8-1.7,1.1-1.7c0.3,0,1.1,0.1,1.1,1.5l0,0.2l-0.1,1c0,0.2,0,0.7,0,1.3c0,0.6,0,1,0,1.3v1.9c0,0.8-0.1,1.4-0.5,1.7
				C84.8,118.2,84.3,118.4,83.6,118.4z"/>
		</g>
		<g>
			<path fill="#343234" d="M101.5,96.3l4.4-0.1c0.6,0,0.9,0.2,0.9,0.7v1.6c-0.1,0.3-0.1,1.2-0.1,2.4c0,0.4,0,0.8,0.1,1.3v1.6
				c0,0.5-0.1,0.7-0.4,0.7c-0.3,0-0.5-0.2-0.5-0.7l0-0.1l0.1-1.9c0.1-0.6,0.1-1.4,0.1-2.3c0-1.3-0.1-2-0.3-2.3
				c-0.2-0.2-0.8-0.4-1.9-0.4h-4c-0.5,0-0.9,0.1-1,0.2s-0.2,0.5-0.2,1.1l0.1,16.5c0,0.8,0.1,1.3,0.3,1.6c0.2,0.4,0.7,0.6,1.3,0.6
				c0.3,0,0.7,0,1-0.1c0.2,0,0.4,0,0.8,0c0.4,0,0.7,0.1,0.7,0.4c0,0.3-0.2,0.4-0.6,0.4H102l-0.7-0.1c-0.2,0-0.5,0-0.9-0.1
				c-1-0.1-1.5-0.1-1.7-0.1h-0.9c-0.2,0-0.5,0-0.9,0.1l-0.8,0.1c-0.5,0-0.8,0.1-0.9,0.1l-0.7,0.1h-0.1c-0.4,0-0.7-0.1-0.7-0.4
				c0-0.3,0.2-0.4,0.7-0.4c0.4,0,0.6,0,0.8,0c0.3,0,0.7,0.1,1,0.1c0.6,0,1.1-0.2,1.3-0.6c0.1-0.3,0.2-0.8,0.2-1.5l0.1-2.3V98.3
				c0-0.7-0.1-1.1-0.2-1.2c-0.1-0.1-0.5-0.2-1.1-0.2h-3.7c-0.9,0-1.4,0.1-1.6,0.2c-0.4,0.2-0.6,0.7-0.6,1.6c0,0.6,0,1.4,0,2.3
				c0,0.2,0,0.5,0,0.9l0.1,1.8c0,0.5-0.1,0.8-0.4,0.8c-0.3,0-0.4-0.3-0.4-0.9v-0.1l0.1-1.8v-3.6l-0.1-1.3c0-0.6,0.4-0.8,1-0.8
				c0.2,0,0.7,0,1.6,0.1c1.7,0.1,4.1,0.1,7.2,0.1H101.5z"/>
			<path fill="#4A4849" d="M102.1,118.4l-0.9-0.1c-0.2,0-0.5,0-0.9-0.1c-1-0.1-1.5-0.1-1.6-0.1h-0.9c-0.2,0-0.4,0-0.8,0.1l-0.8,0.1
				c-0.5,0-0.8,0.1-0.9,0.1l-0.8,0.1c-1.3,0-1.4-0.9-1.4-1.1c0-0.5,0.4-1.1,1.4-1.1c0.4,0,0.7,0,0.9,0c0.3,0,0.6,0.1,0.9,0.1
				c0.5,0,0.6-0.2,0.7-0.3c0,0,0.1-0.3,0.1-1.2l0.1-2.3V98.3c0-0.3,0-0.5,0-0.7c-0.1,0-0.3,0-0.6,0h-3.7c-1,0-1.3,0.1-1.3,0.1
				c-0.1,0-0.2,0.3-0.2,1c0,0.6,0,1.4,0,2.3c0,0.2,0,0.5,0,0.9l0.1,1.8c0,1.4-0.8,1.5-1.1,1.5c-0.3,0-1.1-0.1-1.1-1.6l0.1-1.9l0-3.6
				L89.1,97c0-1,0.7-1.6,1.7-1.6c0.2,0,0.8,0,1.6,0.1c1.7,0.1,4.1,0.1,7.1,0.1h1.8l4.4-0.1c0,0,0,0,0,0c1,0,1.6,0.5,1.6,1.4v1.6
				c0,0.3-0.1,0.8-0.1,2.4c0,0.4,0,0.8,0.1,1.2l0,1.7c0,1.3-0.9,1.4-1.1,1.4c-0.6,0-1.2-0.4-1.2-1.4l0-0.2l0.1-1.7
				c0.1-0.6,0.1-1.4,0.1-2.3c0-1.4-0.1-1.8-0.2-1.8c0,0-0.3-0.1-1.3-0.1h-4c-0.2,0-0.4,0-0.5,0c0,0.1,0,0.3,0,0.6l0.1,16.5
				c0,0.9,0.1,1.2,0.2,1.3c0.2,0.3,0.9,0.3,1.6,0.2c0.2,0,0.5,0,0.8,0c1,0,1.4,0.6,1.4,1.1S103,118.4,102.1,118.4z"/>
		</g>
		<g>
			<path fill="#343234" d="M116.2,106.6c-0.3,0-0.4,0.2-0.4,0.6v3v4.6c0,0.8,0.1,1.3,0.3,1.6c0.2,0.4,0.6,0.6,1.3,0.6
				c0.2,0,0.5,0,1-0.1c0.5,0,0.7-0.1,0.8-0.1c0.4,0,0.7,0.1,0.7,0.4c0,0.3-0.2,0.4-0.6,0.4c-0.3,0-0.9,0-1.7-0.1
				c-1-0.1-1.6-0.2-1.7-0.2h-0.9c0,0-0.6,0.1-1.6,0.2c-0.8,0.1-1.4,0.1-1.7,0.1c-0.4,0-0.7-0.1-0.7-0.4c0-0.3,0.2-0.5,0.7-0.5
				c0,0,0.3,0,0.8,0.1c0.5,0,0.8,0.1,1,0.1c0.6,0,1.1-0.2,1.3-0.7c0.1-0.3,0.2-0.8,0.2-1.5v-2.4V99c0-0.7-0.1-1.3-0.2-1.5
				c-0.2-0.4-0.7-0.6-1.3-0.6c-0.1,0-0.5,0-1,0.1c-0.2,0-0.5,0-0.8,0c-0.5,0-0.7-0.1-0.7-0.4s0.2-0.4,0.7-0.4h0.1l0.7,0.1
				c0.3,0,0.7,0,1.3,0.1c0.6,0.1,1,0.1,1.3,0.1h0.9c0.3,0,0.8,0,1.7-0.1c0.4,0,0.7-0.1,0.9-0.1l0.7-0.1h0.1c0.4,0,0.6,0.1,0.6,0.4
				c0,0.3-0.2,0.4-0.7,0.4c-0.3,0-0.5,0-0.8,0c-0.5,0-0.8-0.1-1-0.1c-0.6,0-1.1,0.2-1.3,0.6c-0.2,0.3-0.3,0.8-0.3,1.6v6.6
				c0,0.2,0.1,0.3,0.4,0.3h11.6c0.4,0,0.6,0,0.6-0.1c0.1,0,0.1-0.1,0.1-0.3v-4.2V99c0-0.7-0.1-1.3-0.3-1.5c-0.2-0.4-0.6-0.6-1.3-0.6
				c-0.2,0-0.5,0-1,0.1c-0.2,0-0.5,0-0.8,0c-0.5,0-0.7-0.1-0.7-0.4s0.2-0.4,0.7-0.4h0.1l0.7,0.1c1.4,0.1,2.3,0.2,2.5,0.2h0.9
				c0.1,0,0.6,0,1.7-0.1c0.2,0,0.5,0,0.9-0.1l0.7-0.1h0.1c0.4,0,0.6,0.1,0.6,0.4c0,0.3-0.2,0.4-0.6,0.4c-0.3,0-0.5,0-0.7,0
				c-0.5,0-0.8-0.1-1-0.1c-0.6,0-1.1,0.2-1.3,0.6c-0.2,0.3-0.2,0.8-0.2,1.6v4.6v11.2c0,0.9,0.1,1.4,0.4,1.7c0.2,0.3,0.6,0.5,1.2,0.5
				c0.2,0,0.5,0,1-0.1c0.5,0,0.7-0.1,0.7-0.1c0.4,0,0.6,0.1,0.6,0.4c0,0.3-0.2,0.4-0.6,0.4c-0.3,0-0.9,0-1.7-0.1
				c-1-0.1-1.6-0.2-1.7-0.2h-0.9c-0.1,0-0.7,0.1-1.7,0.2c-0.8,0.1-1.4,0.1-1.7,0.1c-0.4,0-0.7-0.1-0.7-0.4c0-0.3,0.2-0.5,0.7-0.5
				c0.2,0,0.5,0,0.9,0.1c0.4,0,0.7,0.1,0.9,0.1c0.7,0,1.1-0.2,1.3-0.7c0.1-0.3,0.2-0.8,0.3-1.5v-2.4V107c0-0.3-0.1-0.4-0.4-0.4h0
				H116.2z"/>
			<path fill="#4A4849" d="M132.7,118.4c-0.3,0-0.9,0-1.8-0.1c-1-0.1-1.5-0.2-1.6-0.2h-0.9c-0.1,0-0.7,0.1-1.6,0.2
				c-0.9,0.1-1.5,0.1-1.8,0.1c-1.3,0-1.4-0.9-1.4-1.1c0-0.5,0.4-1.2,1.4-1.2c0.2,0,0.5,0,0.9,0.1c0.4,0,0.6,0.1,0.8,0.1
				c0.5,0,0.6-0.2,0.7-0.3c0-0.1,0.2-0.4,0.2-1.3v-7.5h-11.3l0,7.5c0,1,0.1,1.2,0.2,1.2c0.1,0.2,0.3,0.3,0.7,0.3
				c0.2,0,0.5,0,0.9-0.1c0.5,0,0.8-0.1,0.8-0.1c1,0,1.4,0.6,1.4,1.1c0,0.5-0.3,1.1-1.3,1.1c-0.3,0-0.9,0-1.8-0.1
				c-1-0.1-1.5-0.2-1.6-0.2h-0.9c-0.1,0-0.6,0.1-1.6,0.2c-0.9,0.1-1.5,0.1-1.8,0.1c-1.3,0-1.4-0.9-1.4-1.1c0-0.5,0.4-1.2,1.4-1.2
				c0,0,0.3,0,0.8,0.1c0.5,0,0.8,0.1,0.9,0.1c0.5,0,0.6-0.2,0.7-0.3c0,0,0.1-0.3,0.1-1.2V99c0-0.9-0.1-1.2-0.2-1.3
				c0,0-0.1-0.2-0.6-0.2c-0.1,0-0.4,0-0.9,0.1c-0.3,0-0.5,0-0.8,0c-1.3,0-1.4-0.9-1.4-1.1c0-0.5,0.4-1.1,1.4-1.1l0.9,0.1
				c0.3,0,0.7,0,1.3,0.1c0.5,0.1,0.9,0.1,1.2,0.1h0.9c0.3,0,0.8,0,1.6-0.1c0.5,0,0.8-0.1,1-0.1l0.8-0.1c1,0,1.3,0.6,1.3,1.1
				c0,0.5-0.4,1.1-1.4,1.1c-0.3,0-0.5,0-0.8,0c-0.5,0-0.8-0.1-0.9-0.1c-0.5,0-0.6,0.2-0.7,0.2c0,0.1-0.2,0.3-0.2,1.3v6.3h11.3l0-6.3
				c0-0.9-0.1-1.1-0.2-1.2c0-0.1-0.1-0.3-0.7-0.3c-0.2,0-0.5,0-0.9,0.1c-0.2,0-0.5,0-0.8,0c-1.3,0-1.4-0.9-1.4-1.1
				c0-0.5,0.4-1.1,1.4-1.1l0.9,0.1c1.8,0.2,2.3,0.2,2.5,0.2h0.9c0.1,0,0.6,0,1.6-0.1c0.2,0,0.5,0,0.9-0.1l0.9-0.1
				c1,0,1.3,0.6,1.3,1.1c0,0.5-0.4,1.1-1.3,1.1c-0.3,0-0.6,0-0.8,0c-0.4,0-0.7-0.1-0.9-0.1c-0.5,0-0.6,0.2-0.6,0.2
				c0,0.1-0.2,0.3-0.2,1.3v15.8c0,1,0.2,1.3,0.2,1.3c0.1,0.1,0.3,0.2,0.6,0.2c0.2,0,0.5,0,0.9-0.1c0.5,0,0.8-0.1,0.8-0.1
				c1,0,1.3,0.6,1.3,1.1C134,117.8,133.7,118.4,132.7,118.4z"/>
		</g>
		<g>
			<path fill="#343234" d="M144.1,95.6c2.7,0,4.9,1,6.6,3.1c1.7,2.1,2.5,4.8,2.5,8.2c0,3.4-0.8,6.1-2.4,8.2s-3.8,3.1-6.4,3.1
				c-2.8,0-5-1-6.7-3.1c-1.7-2.1-2.5-4.8-2.5-8.2c0-3.4,0.8-6.1,2.5-8.2C139.4,96.6,141.5,95.6,144.1,95.6z M144.3,117.5
				c2.4,0,4.4-1,5.8-2.9c1.5-1.9,2.2-4.5,2.2-7.6c0-3.1-0.8-5.7-2.3-7.6c-1.5-2-3.5-3-5.9-3c-2.3,0-4.2,1-5.7,2.9
				c-1.5,2-2.2,4.5-2.2,7.6c0,3.2,0.7,5.8,2.2,7.7C139.9,116.5,141.8,117.5,144.3,117.5z"/>
			<path fill="#4A4849" d="M144.5,118.9c-3,0-5.4-1.1-7.2-3.3c-1.8-2.2-2.7-5.1-2.7-8.6c0-3.5,0.9-6.4,2.6-8.6
				c1.8-2.3,4.1-3.4,7-3.4c2.9,0,5.3,1.1,7.1,3.4c1.8,2.2,2.7,5.1,2.7,8.6c0,3.5-0.9,6.4-2.6,8.6
				C149.6,117.7,147.3,118.9,144.5,118.9z M144.1,97c-2.1,0-3.8,0.9-5.1,2.7c-1.4,1.8-2.1,4.2-2.1,7.2c0,3.1,0.7,5.5,2.1,7.3
				c1.3,1.8,3.1,2.6,5.3,2.6c2.2,0,3.9-0.9,5.3-2.6c1.4-1.8,2.1-4.2,2.1-7.2c0-2.9-0.7-5.4-2.2-7.2C148.1,97.9,146.3,97,144.1,97z"
				/>
		</g>
		<g>
			<path fill="#343234" d="M161.1,118.8h-1c-0.4,0-1.1,0.1-1.9,0.2c-0.9,0.1-1.5,0.1-1.9,0.1h-0.1c-0.5,0-0.8-0.1-0.8-0.5
				c0-0.4,0.3-0.6,0.8-0.6c0.1,0,0.4,0,0.9,0.1c0.5,0.1,0.9,0.1,1.1,0.1c0.8,0,1.3-0.3,1.5-0.8c0.2-0.3,0.3-0.9,0.3-1.8v-2.8V97.2
				c0-0.9-0.1-1.5-0.3-1.8c-0.2-0.5-0.7-0.8-1.5-0.8c-0.2,0-0.6,0-1,0.1c-0.5,0-0.8,0.1-1,0.1c-0.5,0-0.8-0.2-0.8-0.5
				c0-0.3,0.3-0.5,0.8-0.5h0.1l0.8,0.1c1.7,0.2,2.7,0.2,3,0.2h1c0.3,0,1.3-0.1,3.2-0.2c1.1-0.1,2.1-0.1,3-0.1c2.2,0,4,0.2,5.4,0.7
				c1.4,0.5,2.5,1.3,3.5,2.4c2.1,2.4,3.1,5.7,3.1,9.7c0,3.1-0.7,5.7-2,7.9c-1.3,2.2-3.1,3.6-5.3,4.2c-1.3,0.4-2.9,0.5-4.8,0.5
				c-0.7,0-1.7-0.1-3-0.1C162.7,118.9,161.7,118.8,161.1,118.8z M166.8,94.6c-0.9,0-1.6,0-2,0.1l-1.9,0.2c-0.6,0.1-1,0.2-1.2,0.3
				c-0.2,0.1-0.3,0.4-0.4,0.8c-0.1,0.9-0.1,2-0.1,3.3V116c0,1,0.3,1.7,0.9,1.9c0.6,0.3,2.2,0.4,4.9,0.4c2.2,0,3.8-0.2,5-0.6
				c1.7-0.6,3.1-1.6,4.2-3.2c1.3-2,2-4.5,2-7.7c0-3.1-0.5-5.6-1.6-7.6c-1-2-2.5-3.3-4.5-3.9C170.5,94.8,168.8,94.6,166.8,94.6z"/>
			<path fill="#4A4849" d="M167.1,119.6c-0.7,0-1.7,0-3.1-0.2c-1.3-0.1-2.3-0.1-3-0.1h-1c-0.4,0-1,0.1-1.9,0.1
				c-0.9,0.1-1.5,0.2-1.9,0.2c-1.3,0-1.4-0.7-1.4-1c0-0.5,0.3-1.1,1.3-1.1c0.1,0,0.4,0,1,0.1c0.5,0.1,0.9,0.1,1.1,0.1
				c0.7,0,0.9-0.3,1-0.5c0.1-0.2,0.2-0.6,0.2-1.6V97.2c0-1-0.2-1.4-0.2-1.6c-0.1-0.2-0.3-0.5-1-0.5c-0.2,0-0.5,0-1,0.1
				c-0.5,0-0.8,0.1-1.1,0.1c-1.2,0-1.3-0.8-1.3-1c0-0.2,0.1-1,1.3-1l0.2,0l0.8,0.1c2.1,0.2,2.7,0.2,2.9,0.2h1c0.2,0,0.9,0,3.1-0.2
				c1.1-0.1,2.1-0.1,3-0.1c2.3,0,4.1,0.3,5.6,0.8c1.4,0.5,2.7,1.4,3.7,2.5c2.2,2.5,3.2,5.9,3.2,10c0,3.2-0.7,5.9-2.1,8.2
				c-1.4,2.3-3.3,3.8-5.6,4.4C170.7,119.5,169,119.6,167.1,119.6z M160,118.3h1c0.2,0,0.3,0,0.5,0c-0.5-0.3-1.1-0.9-1.1-2.3V99.4
				c0-1.3,0.1-2.5,0.1-3.4c0.1-0.6,0.3-1,0.6-1.2c0.2-0.1,0.4-0.2,0.7-0.3c-0.5,0-0.8,0-0.9,0h-1c-0.1,0-0.2,0-0.4,0
				c0.2,0.2,0.4,0.4,0.5,0.6c0.2,0.4,0.3,1,0.3,2v18.6c0,1-0.1,1.6-0.4,2.1c-0.1,0.2-0.2,0.4-0.4,0.5
				C159.8,118.3,159.9,118.3,160,118.3z M166.8,95.1c-0.9,0-1.5,0-2,0.1l-1.9,0.2c-0.7,0.1-1,0.2-1,0.2c-0.1,0.1-0.1,0.2-0.2,0.5
				c-0.1,0.9-0.1,2-0.1,3.3V116c0,1.2,0.5,1.4,0.6,1.4c0.4,0.2,1.5,0.3,4.7,0.3c2.1,0,3.7-0.2,4.8-0.5c1.6-0.5,2.9-1.5,3.9-3
				c1.3-1.9,1.9-4.4,1.9-7.4c0-3-0.5-5.5-1.5-7.4c-1-1.9-2.3-3.1-4.2-3.6C170.4,95.3,168.7,95.1,166.8,95.1z M177.5,100.2
				c0.7,1.8,1.1,4.1,1.1,6.6c0,1.4-0.1,2.7-0.4,3.9c0.3-1.3,0.5-2.7,0.5-4.2C178.7,104.1,178.3,102,177.5,100.2z"/>
		</g>
	</g>
	<g>
		<path fill="#C5C4C4" d="M191.8,80.5c-0.8-0.9-1.6-1.9-2.5-2.7c0,0.2-0.1,0.5-0.1,0.7C190.1,79.1,191,79.8,191.8,80.5z"/>
		<path fill="#C5C4C4" d="M143.4,31.3c2.2-0.4,4.4-0.6,6.7-0.6c9.5,0,18.5,3.3,25.6,9.4c-0.7-0.9-1.5-1.7-2.3-2.5
			c-7.5-7.6-17.6-11.7-28.2-11.7c-2,0-3.9,0.2-5.9,0.5C140.8,27.8,142.2,29.5,143.4,31.3z"/>
		<path fill="#C5C4C4" d="M13.1,109.8c0-13.8,7-26,17.6-33.2C28.7,64.2,32.4,51,41.8,41.5c7.5-7.6,17.6-11.7,28.2-11.7
			c2.6,0,5.2,0.3,7.7,0.7c7.2-10.2,19.1-16.9,32.5-16.9c9.8,0,18.7,3.6,25.7,9.4c-7.3-8.7-18.3-14.3-30.5-14.3
			c-13.4,0-25.3,6.7-32.5,16.9c-2.5-0.5-5.1-0.7-7.7-0.7C54.5,24.9,44.5,29,37,36.6c-9.5,9.5-13.2,22.7-11.1,35.1
			C15.3,78.9,8.2,91.1,8.2,104.9c0,12.3,5.5,23.3,14.2,30.6C16.6,128.6,13.1,119.6,13.1,109.8z"/>
		<path fill="#C5C4C4" d="M29.2,150.2c0-2.6,0.3-5.2,0.7-7.7c-1.8-1.3-3.4-2.7-5-4.2c-0.4,2.3-0.6,4.7-0.6,7.1
			c0,10.7,4.2,20.8,11.7,28.3c0.8,0.8,1.7,1.6,2.5,2.3C32.5,168.7,29.2,159.7,29.2,150.2z"/>
		<path fill="#C5C4C4" d="M75.8,189.7c-0.3,0-0.6,0.1-0.9,0.1c0.3,0.3,0.6,0.7,0.9,1c0.8,0.8,1.7,1.6,2.5,2.3
			C77.5,192,76.6,190.8,75.8,189.7z"/>
	</g>
	<g>
		<g>
			<path fill="#FFFFFF" d="M161,147.5c-1,1.3-2,2.5-3,3.7"/>
			<path fill="#555252" d="M158,151.7c-0.1,0-0.2,0-0.3-0.1c-0.2-0.2-0.2-0.5-0.1-0.7c1-1.2,2.1-2.4,3-3.7c0.2-0.2,0.5-0.3,0.7-0.1
				c0.2,0.2,0.3,0.5,0.1,0.7c-1,1.3-2,2.5-3.1,3.7C158.3,151.7,158.1,151.7,158,151.7z"/>
		</g>
		<g>
			<g>
				<g>
					<path fill="#333333" d="M76,41.1l4.1,11.2c0.2,0.5,0.4,0.8,0.5,0.9c0.2,0.2,0.6,0.3,1,0.1c0.3-0.1,0.5-0.2,0.6-0.3
						c0.2-0.1,0.3-0.2,0.5-0.2c0.3-0.1,0.5-0.1,0.5,0.1c0.1,0.2-0.1,0.3-0.3,0.4l-0.1,0l-0.5,0.1c-0.1,0-0.3,0.1-0.6,0.2L81.3,54
						c-0.2,0.1-0.4,0.1-0.5,0.2l-0.6,0.2c-0.2,0.1-0.3,0.1-0.5,0.2l-0.6,0.3c-0.3,0.1-0.5,0.2-0.6,0.3l-0.4,0.2l-0.1,0
						c-0.3,0.1-0.5,0.1-0.5-0.1c-0.1-0.2,0-0.3,0.3-0.5c0.2-0.1,0.3-0.1,0.5-0.1c0.2,0,0.4-0.1,0.6-0.2c0.4-0.1,0.6-0.3,0.7-0.6
						c0.1-0.3,0-0.7-0.2-1.2l-0.6-1.5l-3.3-9c-0.2-0.4-0.3-0.6-0.4-0.8c-0.2-0.2-0.5-0.2-0.8-0.1c-0.1,0-0.3,0.1-0.6,0.3
						c-0.3,0.1-0.5,0.2-0.6,0.3l0,0c-0.3,0.1-0.5,0.1-0.6-0.1c-0.1-0.2,0-0.4,0.3-0.5c0.2-0.1,0.5-0.1,0.8-0.3
						c0.4-0.1,0.6-0.2,0.8-0.3l0.7-0.2c0.2-0.1,0.4-0.2,0.6-0.3c0.3-0.1,0.6,0,1,0.4l9,10.9c0.1,0.1,0.2,0.2,0.2,0.1
						c0.1,0,0.1-0.1,0.1-0.3l0-14c0-0.5,0.1-0.8,0.4-0.9l0.1,0l0.8-0.2c0.3-0.1,0.5-0.1,0.6-0.2c0.3-0.1,0.5-0.2,0.8-0.3
						c0.3-0.1,0.5-0.2,0.7-0.3c0.3-0.1,0.4-0.1,0.5,0.1c0.1,0.2-0.1,0.3-0.3,0.4c-0.2,0.1-0.4,0.1-0.6,0.2c-0.2,0.1-0.5,0.1-0.7,0.2
						c-0.6,0.2-0.8,0.7-0.5,1.5l0,0.1c0.2,0.6,0.4,1.1,0.6,1.6c0.2,0.4,0.4,1,0.6,1.7l2.6,7.3c0.2,0.5,0.4,0.8,0.5,0.9
						c0.2,0.2,0.6,0.3,1,0.1c0.3-0.1,0.5-0.2,0.6-0.3c0.2-0.1,0.3-0.2,0.5-0.2c0.3-0.1,0.5-0.1,0.5,0.1c0.1,0.2,0,0.3-0.3,0.4
						c-0.1,0-0.3,0.1-0.5,0.2c-0.7,0.2-1.1,0.3-1.3,0.4c0,0-0.1,0-0.2,0c-0.1,0-0.2,0.1-0.2,0.1l-0.6,0.2c-0.1,0.1-0.5,0.2-1.1,0.5
						c-0.3,0.1-0.5,0.2-0.6,0.3l-0.4,0.2l-0.1,0c-0.3,0.1-0.5,0.1-0.5-0.1c-0.1-0.2,0-0.3,0.3-0.5c0.2-0.1,0.4-0.1,0.5-0.2
						c0.2,0,0.4-0.1,0.6-0.2c0.4-0.2,0.6-0.4,0.7-0.7c0-0.2,0-0.6-0.2-1.1l-0.6-1.6l-3.6-9.8c-0.1-0.2-0.1-0.2-0.2-0.2
						c0,0-0.1,0.1-0.1,0.1l0,0.1l-0.1,14.3c0,0.5-0.1,0.8-0.4,0.8c-0.2,0.1-0.5,0-0.8-0.4l-9-10.8c-0.1-0.2-0.2-0.2-0.3-0.2
						C75.9,40.8,75.9,40.9,76,41.1z"/>
					<path fill="#555252" d="M77.8,55.9c-0.3,0-0.6-0.2-0.7-0.5c-0.1-0.2-0.1-0.4,0-0.6c0.1-0.2,0.3-0.4,0.6-0.5
						c0.2-0.1,0.4-0.1,0.6-0.2c0.1,0,0.3-0.1,0.6-0.2c0.2-0.1,0.3-0.2,0.3-0.2c0,0,0-0.3-0.2-0.9l-3.8-10.6
						c-0.2-0.4-0.3-0.5-0.3-0.6c-0.1,0-0.2,0-0.3,0c-0.1,0-0.3,0.1-0.5,0.2c-0.3,0.1-0.5,0.2-0.6,0.3c-0.2,0.1-0.4,0.1-0.5,0.1
						c-0.4,0-0.6-0.2-0.8-0.5c-0.1-0.3,0-0.5,0-0.6c0.1-0.2,0.3-0.4,0.6-0.5c0.2-0.1,0.5-0.2,0.9-0.3c0.4-0.1,0.6-0.2,0.8-0.2
						l0.7-0.2c0.2-0.1,0.3-0.1,0.5-0.3c0.2-0.1,0.4-0.1,0.5-0.1c0.4,0,0.8,0.2,1.1,0.6l8.4,10.1l0-13.1c0-0.9,0.4-1.3,0.8-1.4
						l0.9-0.3c0.2-0.1,0.4-0.1,0.5-0.2c0.3-0.1,0.5-0.2,0.8-0.3c0.3-0.1,0.5-0.2,0.7-0.3c0.6-0.2,1,0,1.2,0.4c0,0.1,0.2,0.8-0.6,1.1
						c-0.2,0.1-0.4,0.1-0.7,0.2c-0.2,0.1-0.4,0.1-0.6,0.2c-0.2,0.1-0.3,0.2-0.3,0.2c0,0.1,0,0.3,0.1,0.6L92.1,48
						c0.2,0.6,0.4,0.7,0.4,0.7c0.1,0.1,0.2,0.1,0.5,0c0.2-0.1,0.4-0.2,0.6-0.2c0.2-0.1,0.4-0.2,0.6-0.2c0.6-0.2,1,0,1.2,0.4
						c0.1,0.3,0,0.8-0.6,1.1c-0.1,0-0.3,0.1-0.6,0.2c-0.7,0.2-1.1,0.3-1.3,0.4c-0.1,0-0.1,0-0.3,0.1l-0.7,0.3c-0.1,0-0.5,0.2-1,0.5
						c-0.3,0.1-0.5,0.2-0.6,0.3l-0.5,0.2c-0.6,0.2-1,0-1.2-0.4c-0.1-0.2-0.1-0.4,0-0.6c0.1-0.2,0.3-0.4,0.6-0.5
						c0.2-0.1,0.4-0.1,0.6-0.2c0.2,0,0.4-0.1,0.6-0.2c0.3-0.1,0.3-0.2,0.3-0.3c0,0,0-0.3-0.2-0.8l-3.4-9.2l-0.1,12.1
						c0,0.7-0.2,1.2-0.7,1.3c-0.5,0.2-0.9,0-1.4-0.6l-7.8-9.4l3.4,9.4c0.2,0.6,0.4,0.7,0.4,0.7c0.1,0.1,0.2,0.1,0.5,0
						c0.2-0.1,0.4-0.2,0.6-0.2c0.2-0.1,0.4-0.2,0.6-0.2c0.6-0.2,1,0,1.2,0.4c0.1,0.3,0,0.5-0.1,0.7c-0.1,0.1-0.3,0.3-0.5,0.3
						l-0.6,0.2c-0.1,0-0.3,0.1-0.6,0.2l-0.6,0.1c-0.2,0-0.3,0.1-0.5,0.2l-0.6,0.2c-0.1,0.1-0.3,0.1-0.5,0.2l-0.6,0.3
						c-0.3,0.2-0.5,0.2-0.6,0.3l-0.5,0.2C78.1,55.9,77.9,55.9,77.8,55.9z"/>
				</g>
				<g>
					<path fill="#333333" d="M100.4,46.8l0.3-0.8l4.1-11.5c0.2-0.5,0.4-0.8,0.6-0.8c0.2,0,0.5,0.2,0.6,0.6l3.4,9
						c0.8,2.2,1.4,3.6,1.7,4.1c0.2,0.4,0.5,0.6,0.9,0.6c0.1,0,0.2,0,0.4,0c0.2,0,0.3,0,0.4,0c0.3,0,0.5,0.1,0.5,0.3
						c0,0.1,0,0.2-0.1,0.2c-0.1,0.1-0.2,0.1-0.3,0.1c-0.2,0-0.4,0-0.7-0.1c-0.5-0.1-1-0.1-1.6-0.1c-0.6,0-1,0-1.3,0.1l-1,0.1l-0.1,0
						c-0.4,0-0.6-0.1-0.6-0.3c0-0.2,0.2-0.3,0.5-0.3c0,0,0.2,0,0.6,0c0.4,0,0.6,0,0.7,0c0.6,0,0.8-0.2,0.8-0.7
						c0-0.2-0.1-0.5-0.2-0.9l-0.4-1.2l-0.8-2c0-0.1-0.1-0.2-0.2-0.3c0,0-0.2,0-0.3,0l-5.6,0.1c-0.2,0-0.3,0-0.4,0.1
						c-0.1,0-0.1,0.1-0.2,0.3l-1.1,3.1c0,0.1-0.1,0.3-0.2,0.5c-0.1,0.1-0.1,0.3-0.1,0.4c0,0.4,0.4,0.7,1.1,0.7c0.1,0,0.3,0,0.7,0
						c0.1,0,0.2,0,0.4,0h0c0.3,0,0.5,0.1,0.5,0.3c0,0.2-0.1,0.3-0.5,0.3c-0.1,0-0.4,0-1-0.1c-0.6-0.1-1.2-0.1-1.9-0.1
						c-0.6,0-1.1,0-1.5,0.1c-0.4,0.1-0.7,0.1-0.8,0.1c-0.3,0-0.4-0.1-0.4-0.3c0-0.2,0.1-0.3,0.5-0.3c0.1,0,0.2,0,0.4,0
						c0.2,0,0.3,0,0.4,0C99.5,48.3,100.1,47.8,100.4,46.8z M108.3,42.1l-2.9-7.6l-2.8,7.7c-0.1,0.1-0.1,0.3-0.1,0.3
						c0,0.2,0.2,0.3,0.5,0.3l4.9-0.1c0.3,0,0.5-0.1,0.5-0.3C108.4,42.4,108.4,42.2,108.3,42.1z"/>
					<path fill="#555252" d="M97.9,49.4c-0.7,0-0.9-0.4-0.9-0.8c0-0.4,0.2-0.8,1-0.9c0.1,0.1,0.3,0,0.5,0c0.2,0,0.3,0,0.4,0
						c0.2,0,0.7,0,1.1-1.2l0.3-0.8l4.1-11.5c0.1-0.3,0.4-1,1-1.1l0.1-0.3l0.1,0.2c0.3,0,0.7,0.2,1,1l3.4,9.1c0.8,2.2,1.4,3.5,1.6,4
						c0.2,0.5,0.5,0.3,0.9,0.3c0.2,0,0.4,0,0.5,0l0,0c1,0,1,0.6,1,0.8c0,0.3-0.1,0.5-0.4,0.7c-0.2,0.1-0.4,0.2-0.6,0.2
						c-0.2,0-0.5,0-0.8-0.1c-0.4-0.1-0.8-0.1-1.3-0.1l-0.2,0c-0.6,0-1,0-1.3,0.1l-1.1,0.1c0,0,0,0,0,0c-1,0-1.1-0.6-1.1-0.8
						c0-0.1,0-0.9,1.1-0.9l0,0c0,0,0.2,0,0.6,0c0.4,0,0.6,0,0.6,0c0.2,0,0.3-0.1,0.3-0.1c0-0.2,0-0.4-0.2-0.8l-1.2-3.1c0,0,0,0,0,0
						l-5.6,0.1c0,0,0,0,0,0c0,0,0,0,0,0l-1.1,3.1c0,0.1-0.1,0.3-0.2,0.5c0,0.1,0,0.1,0,0.2c0,0,0.1,0.1,0.5,0.1c0.2,0,0.4,0,0.7,0
						c0,0,0.2,0,0.5,0l0,0c1,0,1.1,0.7,1.1,0.8c0,0.4-0.2,0.8-1,0.8l0,0c-0.1,0-0.4,0-1-0.1c-0.5,0-1-0.1-1.5-0.1l-0.3,0
						c-0.5,0-1,0-1.4,0.1C98.4,49.4,98.1,49.4,97.9,49.4L97.9,49.4z M105.5,36l-2.3,6.2l4.6-0.1L105.5,36z"/>
				</g>
				<g>
					<path fill="#333333" d="M119.4,50.1l-0.6-0.2c-0.2-0.1-0.6-0.2-1.1-0.3s-0.9-0.2-1.1-0.2l-0.1,0c-0.3-0.1-0.4-0.2-0.4-0.4
						c0.1-0.2,0.2-0.3,0.5-0.2c0,0,0.2,0.1,0.5,0.2c0.3,0.1,0.5,0.2,0.6,0.3c0.4,0.1,0.8,0.1,1-0.2c0.2-0.2,0.3-0.5,0.5-1l0.5-1.6
						l2.7-8.9c0.1-0.5,0.2-0.9,0.1-1.1c-0.1-0.3-0.3-0.6-0.7-0.7c-0.1,0-0.3-0.1-0.6-0.1c-0.3-0.1-0.5-0.1-0.6-0.1
						c-0.3-0.1-0.4-0.2-0.4-0.4c0.1-0.2,0.2-0.2,0.5-0.1l0.1,0l0.5,0.2c0.9,0.4,1.5,0.6,1.6,0.7l0.6,0.2c0.2,0,0.8,0.2,1.8,0.4
						c0.6,0.2,1.2,0.3,1.7,0.5c1.3,0.4,2.2,0.8,2.9,1.4c0.7,0.5,1.2,1.2,1.5,2c0.8,1.7,0.8,3.8,0.1,6c-0.5,1.7-1.4,3.1-2.5,4.1
						c-1.1,1-2.4,1.5-3.7,1.4c-0.8,0-1.8-0.2-2.8-0.6c-0.4-0.1-1-0.3-1.7-0.6C120.3,50.4,119.8,50.2,119.4,50.1z M126.9,37.3
						c-0.5-0.2-0.9-0.3-1.2-0.3l-1.1-0.2c-0.4-0.1-0.6-0.1-0.8,0c-0.1,0-0.3,0.2-0.4,0.4c-0.2,0.5-0.4,1.1-0.7,1.9l-2.9,9.4
						c-0.2,0.6-0.1,1,0.2,1.3c0.3,0.3,1.2,0.6,2.7,1.1c1.2,0.4,2.2,0.6,2.9,0.6c1.1,0,2-0.4,2.9-1.1c1.1-0.9,1.9-2.2,2.5-4
						c0.5-1.7,0.7-3.3,0.4-4.6c-0.2-1.3-0.9-2.3-1.9-3C128.9,38.1,128,37.7,126.9,37.3z"/>
					<path fill="#555252" d="M125.8,52.4l-0.2,0c-0.9,0-1.9-0.2-3-0.6c-0.4-0.1-1-0.3-1.7-0.6c-0.7-0.3-1.3-0.5-1.6-0.6l-0.6-0.2
						c-0.2-0.1-0.6-0.1-1.1-0.2c-0.5-0.1-0.9-0.2-1.1-0.3c-1-0.3-0.8-0.9-0.8-1.1c0.2-0.5,0.6-0.7,1.2-0.5c0,0,0.2,0.1,0.6,0.2
						c0.3,0.1,0.5,0.2,0.6,0.2c0.3,0.1,0.4,0,0.5,0c0,0,0.2-0.2,0.4-0.8l3.2-10.5c0.2-0.6,0.1-0.8,0.1-0.8c0-0.1,0-0.2-0.4-0.3
						c-0.1,0-0.3-0.1-0.5-0.1c-0.3-0.1-0.5-0.1-0.6-0.2c-0.9-0.3-0.8-0.9-0.7-1.1c0.1-0.5,0.6-0.7,1.2-0.5l0.6,0.2
						c0.9,0.4,1.4,0.6,1.6,0.6l0.6,0.2c0.2,0,0.7,0.2,1.8,0.4c0.6,0.2,1.2,0.3,1.7,0.5c1.3,0.4,2.3,0.9,3.1,1.4
						c0.8,0.6,1.3,1.3,1.7,2.2c0.8,1.9,0.8,4,0.1,6.4c-0.6,1.8-1.5,3.3-2.7,4.4C128.5,51.8,127.2,52.4,125.8,52.4z M124,37.3
						c0,0,0,0-0.1,0.1c-0.2,0.5-0.4,1.1-0.6,1.8l-2.9,9.4c-0.1,0.2-0.1,0.6,0,0.7c0.1,0.1,0.6,0.4,2.5,1c1.1,0.4,2.1,0.5,2.7,0.5
						c1,0,1.8-0.3,2.6-1c1-0.8,1.8-2.1,2.3-3.8c0.5-1.7,0.7-3.1,0.4-4.3c-0.2-1.2-0.8-2-1.6-2.6c-0.7-0.5-1.6-0.9-2.7-1.3
						c-0.5-0.1-0.9-0.3-1.1-0.3l-1.1-0.2C124.3,37.3,124,37.3,124,37.3z"/>
				</g>
			</g>
			<g>
				<g>
					<path fill="#333333" d="M49.4,149.4l0.1-0.2l-0.3,0.2l-0.4,0.4c-0.3,0.3-0.4,0.4-0.4,0.4l0,0c-0.2,0.2-0.4,0.2-0.5,0.1
						c-0.1-0.2-0.1-0.4,0.2-0.6l0.1-0.1c0.7-0.5,1.4-1.1,2-1.6c0.6-0.5,1-0.9,1.3-1.2c0.3-0.3,0.5-0.5,0.6-0.5
						c0.2-0.2,0.4-0.2,0.5,0c0.1,0.1,0.1,0.3-0.1,0.5c-0.1,0.1-0.3,0.2-0.5,0.4c-0.2,0.2-0.4,0.3-0.5,0.4c-1.1,0.9-1.6,1.9-1.7,3.1
						c-0.1,1.1,0.4,2.3,1.3,3.4c0.9,1,1.8,1.6,2.9,1.7c1.1,0.1,2-0.2,2.9-0.9c1.2-1.1,1.5-2.3,0.8-3.7c-0.2-0.5-0.6-1.1-1.1-1.8
						c-1.9-2.7-2-4.7-0.3-6.2c0.9-0.8,1.9-1.1,3.1-0.9c1.2,0.2,2.2,0.7,3,1.7c1,1.2,1.4,2.5,1.2,3.7c-0.1,0.3-0.2,0.7-0.5,1.1
						c0.2-0.1,0.3-0.2,0.5-0.4c0.1-0.1,0.3-0.2,0.4-0.3l0.3-0.3l0.1-0.1c0.3-0.2,0.5-0.3,0.6-0.1c0.1,0.2,0.1,0.3-0.1,0.5
						c0,0-0.2,0.1-0.7,0.5c-0.5,0.3-1,0.7-1.6,1.3c-0.5,0.4-0.8,0.7-1,0.9c-0.3,0.3-0.5,0.5-0.5,0.5c-0.2,0.2-0.4,0.2-0.5,0.1
						c-0.1-0.2-0.1-0.3,0.1-0.5c0.1-0.1,0.2-0.2,0.4-0.3c0.2-0.1,0.3-0.2,0.4-0.3c1-0.9,1.6-1.8,1.6-2.8s-0.3-2-1.1-3
						c-0.8-0.9-1.7-1.4-2.6-1.5c-1-0.1-1.9,0.2-2.7,0.9c-0.8,0.7-1.1,1.4-1.1,2.3c0,0.9,0.5,1.9,1.4,3.1c0.7,1.1,1.2,1.9,1.5,2.5
						c0.2,0.6,0.3,1.2,0.1,1.8c-0.2,0.8-0.6,1.4-1.3,2.1c-1,0.9-2.1,1.2-3.3,1c-1.2-0.2-2.3-0.8-3.2-1.9c-0.7-0.8-1.1-1.6-1.4-2.4
						c-0.2-0.9-0.3-1.6,0-2.4L49.4,149.4z"/>
					<path fill="#555252" d="M54.5,157c-0.2,0-0.4,0-0.6,0c-1.3-0.2-2.5-0.9-3.5-2.1c-0.7-0.8-1.2-1.7-1.5-2.6
						c-0.1-0.5-0.2-1-0.2-1.4c-0.5,0.5-1,0.4-1.3,0.1c-0.2-0.2-0.2-0.5-0.2-0.8c0.1-0.2,0.2-0.4,0.4-0.6l0.1-0.1
						c0.7-0.5,1.4-1.1,2-1.6c0.5-0.5,1-0.8,1.3-1.1c0.3-0.3,0.5-0.5,0.6-0.6c0.4-0.4,0.9-0.3,1.3,0c0.3,0.3,0.3,0.8-0.1,1.2
						c-0.1,0.1-0.3,0.2-0.6,0.4c-0.2,0.1-0.4,0.3-0.5,0.3c-1,0.8-1.5,1.7-1.5,2.7c-0.1,1,0.3,2,1.2,3c0.8,0.9,1.6,1.4,2.6,1.5
						c0.9,0.1,1.7-0.1,2.5-0.8c1.1-0.9,1.3-1.9,0.7-3c-0.2-0.5-0.6-1-1.1-1.7c-2.6-3.6-1.6-5.8-0.2-6.9c1-0.9,2.2-1.2,3.5-1.1
						c1.3,0.2,2.4,0.8,3.4,1.9c1,1.1,1.4,2.3,1.4,3.5c0.4-0.3,0.9-0.3,1.2,0.1c0.2,0.2,0.2,0.4,0.2,0.6c0,0.2-0.1,0.5-0.4,0.6
						l-0.2,0.2l0,0c-0.1,0.1-0.3,0.2-0.5,0.3c-0.4,0.3-1,0.7-1.5,1.2c-0.4,0.4-0.8,0.7-1,0.9c-0.3,0.4-0.5,0.5-0.6,0.6
						c-0.4,0.4-0.9,0.4-1.2,0c-0.3-0.3-0.4-0.8,0.2-1.3c0.1-0.1,0.2-0.2,0.4-0.3c0.2-0.1,0.3-0.2,0.3-0.2c0.9-0.8,1.4-1.6,1.5-2.5
						c0.1-0.9-0.2-1.7-0.9-2.6c-0.7-0.8-1.4-1.3-2.3-1.4c-0.9-0.1-1.6,0.1-2.3,0.7c-0.7,0.6-1,1.2-0.9,1.9c0,0.8,0.5,1.7,1.3,2.8
						c0.8,1.1,1.3,2,1.5,2.6c0.3,0.7,0.3,1.4,0.2,2.1c-0.2,0.9-0.7,1.6-1.5,2.4C56.6,156.6,55.6,157,54.5,157z"/>
				</g>
				<g>
					<path fill="#333333" d="M73.5,154.7l2.5,1.8c0.3,0.2,0.4,0.5,0.2,0.8l-0.6,0.9c-0.2,0.2-0.5,0.6-1.1,1.3
						c-0.2,0.2-0.3,0.5-0.5,0.8l-0.7,0.9c-0.2,0.3-0.4,0.3-0.5,0.2c-0.2-0.1-0.2-0.3,0-0.6l0,0l0.8-1c0.3-0.3,0.6-0.7,1-1.3
						c0.5-0.7,0.8-1.2,0.8-1.4c0-0.2-0.3-0.6-0.9-1l-2.3-1.7c-0.3-0.2-0.5-0.3-0.7-0.3c-0.1,0-0.3,0.2-0.6,0.6l-6.8,9.3
						c-0.3,0.4-0.5,0.8-0.5,1c0,0.3,0.1,0.6,0.5,0.9c0.2,0.1,0.4,0.3,0.6,0.4c0.1,0.1,0.2,0.2,0.4,0.3c0.2,0.2,0.3,0.4,0.2,0.5
						c-0.1,0.2-0.3,0.1-0.5,0l-0.1,0l-0.4-0.3c-0.1-0.1-0.3-0.2-0.5-0.4c-0.5-0.5-0.8-0.7-0.9-0.8l-0.5-0.4
						c-0.1-0.1-0.3-0.2-0.5-0.3l-0.5-0.3c-0.3-0.2-0.5-0.3-0.5-0.3l-0.4-0.3l-0.1-0.1c-0.2-0.2-0.3-0.3-0.2-0.5
						c0.1-0.2,0.3-0.2,0.6,0c0.2,0.1,0.3,0.3,0.4,0.3c0.2,0.2,0.3,0.3,0.5,0.4c0.3,0.3,0.7,0.3,1,0.2c0.2-0.1,0.4-0.4,0.8-0.8l1-1.3
						l5.8-7.9c0.3-0.4,0.4-0.6,0.4-0.7c0-0.1-0.2-0.3-0.5-0.6l-2.1-1.5c-0.5-0.4-0.8-0.6-1-0.6c-0.3,0-0.6,0.2-1,0.6
						c-0.3,0.3-0.6,0.8-1,1.3c-0.1,0.1-0.2,0.3-0.4,0.5l-0.7,1.1c-0.2,0.3-0.4,0.4-0.5,0.3c-0.2-0.1-0.1-0.3,0.1-0.7l0-0.1l0.8-1
						l1.5-2l0.5-0.8c0.2-0.3,0.5-0.3,0.9,0c0.1,0.1,0.4,0.3,0.9,0.7c0.9,0.8,2.2,1.8,4,3.1L73.5,154.7z"/>
					<path fill="#555252" d="M65.3,167.6c-0.2,0-0.4-0.1-0.6-0.2l-0.5-0.4c-0.1-0.1-0.3-0.2-0.5-0.4c-0.5-0.4-0.8-0.7-0.9-0.7
						l-0.5-0.4c-0.1-0.1-0.3-0.2-0.5-0.3l-0.5-0.3c-0.3-0.2-0.5-0.3-0.6-0.4l-0.5-0.3c-0.3-0.2-0.4-0.4-0.5-0.7c0-0.2,0-0.4,0.1-0.6
						c0.3-0.4,0.8-0.4,1.3-0.1c0.2,0.2,0.4,0.3,0.5,0.4c0.2,0.1,0.3,0.3,0.5,0.4c0.1,0.1,0.2,0.2,0.3,0.2c0.1,0,0.3-0.2,0.7-0.6
						l1-1.3l5.8-7.9c0.1-0.2,0.2-0.3,0.2-0.3c-0.1-0.1-0.1-0.1-0.3-0.2l-2.1-1.5c-0.6-0.4-0.7-0.5-0.7-0.5c0,0-0.2,0-0.5,0.4
						c-0.3,0.3-0.6,0.8-1,1.3c-0.1,0.1-0.2,0.3-0.3,0.5l-0.7,1.1c-0.1,0.1-0.4,0.5-0.8,0.5c-0.2,0-0.3-0.1-0.4-0.1
						c-0.2-0.1-0.3-0.3-0.3-0.5c-0.1-0.4,0.1-0.7,0.3-0.9l0.8-1l1.9-2.7c0.3-0.4,0.6-0.5,0.9-0.5c0.3,0,0.5,0.1,0.8,0.3
						c0.1,0.1,0.4,0.3,0.9,0.7c0.9,0.8,2.2,1.8,3.9,3l1,0.8l2.5,1.8c0.3,0.2,0.5,0.4,0.5,0.7c0,0.2,0,0.5-0.2,0.8l-0.6,0.9
						c-0.1,0.2-0.4,0.4-1.1,1.3c-0.1,0.2-0.3,0.4-0.5,0.7l-0.7,0.9c-0.4,0.5-0.9,0.6-1.3,0.3c-0.2-0.1-0.3-0.3-0.3-0.5
						c0-0.3,0-0.5,0.2-0.8l0.9-1c0.3-0.3,0.6-0.7,1-1.2c0.5-0.7,0.6-1,0.7-1.1h0c0,0-0.2-0.2-0.7-0.6l-2.3-1.7
						c-0.1-0.1-0.2-0.1-0.2-0.2c-0.1,0.1-0.1,0.2-0.3,0.3l-6.8,9.3c-0.4,0.5-0.4,0.7-0.4,0.8c0,0.1,0.2,0.3,0.3,0.4
						c0.2,0.1,0.3,0.2,0.5,0.3c0.1,0.1,0.3,0.2,0.5,0.3c0.6,0.4,0.5,0.9,0.3,1.2C65.7,167.5,65.5,167.6,65.3,167.6z"/>
				</g>
				<g>
					<path fill="#333333" d="M88.7,166l-2.4,6.2c-0.4,0.9-0.7,1.6-1,2c-0.3,0.4-0.8,0.7-1.3,1c-1.3,0.5-2.7,0.5-4.2-0.1
						c-1.5-0.6-2.5-1.5-3.1-2.8c-0.5-1-0.4-2.3,0.2-3.9l2.9-7.7c0.2-0.5,0.2-0.8,0.2-1.1c0-0.3-0.3-0.6-0.7-0.7
						c-0.1,0-0.3-0.1-0.6-0.2c-0.2,0-0.3-0.1-0.5-0.2c-0.3-0.1-0.4-0.3-0.3-0.4c0.1-0.2,0.2-0.2,0.5-0.1l0.1,0l0.4,0.2
						c0.2,0.1,0.5,0.2,0.8,0.4c0.3,0.2,0.6,0.3,0.8,0.4l0.6,0.2c0.2,0.1,0.5,0.2,0.8,0.3c0.4,0.1,0.7,0.2,0.8,0.3l0.5,0.1l0.1,0
						c0.3,0.1,0.4,0.2,0.3,0.4c-0.1,0.2-0.3,0.2-0.5,0.1c-0.2-0.1-0.3-0.1-0.5-0.2c-0.3-0.2-0.5-0.3-0.6-0.3c-0.4-0.2-0.8-0.1-1,0.1
						c-0.2,0.1-0.4,0.5-0.6,1l-1.1,3l-1.7,4.4c-0.3,0.9-0.5,1.5-0.6,1.8c-0.1,0.6-0.1,1.2,0.2,1.9c0.5,1.2,1.4,2.1,2.8,2.7
						c0.8,0.3,1.6,0.4,2.5,0.4c1-0.1,1.7-0.4,2.3-1c0.3-0.3,0.7-1,1.1-2l1.8-4.8c0.2-0.5,0.4-1,0.5-1.4l0.5-1.6
						c0.2-0.5,0.3-0.9,0.2-1.2c-0.1-0.3-0.3-0.5-0.7-0.6c-0.1,0-0.3-0.1-0.6-0.2c-0.2,0-0.3-0.1-0.5-0.2c-0.3-0.1-0.4-0.3-0.3-0.4
						c0.1-0.2,0.2-0.2,0.5-0.1l0.1,0l0.4,0.2c0.2,0.1,0.4,0.2,0.8,0.4c0.3,0.2,0.6,0.3,0.8,0.4l0.6,0.2c0.2,0.1,0.7,0.2,1.7,0.5
						l0.5,0.1l0.1,0c0.3,0.1,0.4,0.2,0.3,0.4c-0.1,0.2-0.3,0.2-0.5,0.1c-0.2-0.1-0.3-0.1-0.5-0.2c-0.3-0.2-0.5-0.3-0.6-0.3
						c-0.4-0.2-0.7-0.1-1,0.1c-0.2,0.1-0.3,0.5-0.5,0.9L88.7,166z"/>
					<path fill="#555252" d="M82.1,176.1c-0.8,0-1.6-0.2-2.4-0.5c-1.6-0.6-2.7-1.6-3.4-3c-0.6-1.2-0.5-2.6,0.2-4.3l2.9-7.7
						c0.2-0.6,0.2-0.8,0.2-0.8c0-0.1,0-0.2-0.3-0.3c-0.1,0-0.3-0.1-0.6-0.2c-0.2,0-0.4-0.1-0.6-0.2c-0.7-0.3-0.8-0.8-0.6-1.1
						c0.2-0.4,0.6-0.6,1.2-0.4l0.5,0.3c0.2,0.1,0.4,0.2,0.8,0.4c0.3,0.2,0.6,0.3,0.8,0.4l0.6,0.2c0.2,0.1,0.4,0.1,0.8,0.2
						c0.4,0.1,0.7,0.2,0.9,0.3l0.4,0.1c0.8,0.3,0.9,0.8,0.7,1.1c-0.2,0.5-0.6,0.7-1.2,0.4c-0.2-0.1-0.4-0.2-0.5-0.2
						c-0.3-0.1-0.5-0.2-0.6-0.3c-0.4-0.1-0.4-0.1-0.5,0c0,0-0.2,0.2-0.4,0.8l-2.8,7.3c-0.4,1-0.5,1.5-0.6,1.7c-0.1,0.5,0,1,0.2,1.6
						c0.4,1.1,1.2,1.9,2.5,2.4c0.7,0.3,1.5,0.4,2.2,0.3c0.9-0.1,1.5-0.3,2-0.8c0.2-0.2,0.5-0.7,1-1.8l2.9-7.8
						c0.2-0.6,0.2-0.8,0.2-0.9c0-0.1-0.2-0.2-0.4-0.3c-0.1,0-0.3-0.1-0.6-0.2c-0.2,0-0.3-0.1-0.5-0.2c-0.7-0.3-0.8-0.8-0.6-1.1
						c0.2-0.4,0.6-0.6,1.2-0.4l0.6,0.3c0.1,0.1,0.4,0.2,0.8,0.4c0.3,0.2,0.6,0.3,0.7,0.4l0.6,0.2c0.2,0.1,0.7,0.2,1.6,0.5l0.5,0.1
						c1,0.4,0.8,1,0.7,1.1c-0.2,0.5-0.6,0.7-1.2,0.4c-0.2-0.1-0.4-0.2-0.5-0.2c-0.3-0.2-0.5-0.2-0.6-0.3c-0.2-0.1-0.4-0.1-0.5,0
						c0,0-0.1,0.2-0.4,0.7l-3,7.7c-0.4,1-0.7,1.7-1.1,2.1c-0.4,0.5-0.9,0.9-1.5,1.1C83.6,175.9,82.8,176.1,82.1,176.1z"/>
				</g>
				<g>
					<path fill="#333333" d="M96.4,178.9l-0.6,0c-0.2,0-0.6,0-1.2,0c-0.5,0-0.9,0-1.1,0l-0.1,0c-0.3,0-0.4-0.1-0.4-0.3
						c0-0.2,0.2-0.3,0.5-0.3c0,0,0.2,0,0.5,0.1c0.3,0.1,0.5,0.1,0.7,0.1c0.4,0,0.8-0.1,0.9-0.4c0.1-0.2,0.2-0.5,0.3-1.1l0.1-1.7
						l0.7-9.3c0-0.5,0-0.9-0.1-1.1c-0.1-0.3-0.4-0.5-0.9-0.5c-0.1,0-0.3,0-0.6,0c-0.3,0-0.5,0-0.6,0c-0.3,0-0.5-0.1-0.5-0.3
						c0-0.2,0.2-0.3,0.5-0.3l0.1,0l0.5,0.1c1,0.2,1.6,0.3,1.7,0.3l0.6,0c0.2,0,0.8,0,1.9,0c0.7,0,1.2,0,1.8,0.1
						c1.3,0.1,2.4,0.3,3.1,0.7c0.8,0.4,1.4,0.9,1.9,1.6c1.1,1.5,1.6,3.5,1.4,5.9c-0.1,1.8-0.7,3.4-1.5,4.6c-0.9,1.2-2,2-3.3,2.2
						c-0.8,0.1-1.8,0.2-2.9,0.1c-0.4,0-1-0.1-1.8-0.2C97.4,179,96.8,179,96.4,178.9z M100.9,164.9c-0.5,0-0.9-0.1-1.2-0.1l-1.2,0
						c-0.4,0-0.6,0.1-0.7,0.1s-0.2,0.2-0.3,0.5c-0.1,0.5-0.2,1.2-0.2,2l-0.8,9.8c0,0.6,0.1,1,0.5,1.2c0.4,0.2,1.3,0.3,2.9,0.5
						c1.3,0.1,2.3,0.1,3-0.1c1-0.2,1.9-0.8,2.6-1.7c0.9-1.1,1.4-2.6,1.5-4.5c0.1-1.8,0-3.3-0.6-4.6c-0.5-1.2-1.3-2.1-2.5-2.5
						C103.1,165.2,102.1,165,100.9,164.9z"/>
					<path fill="#555252" d="M101.2,180c-0.4,0-0.8,0-1.3-0.1c-0.4,0-1-0.1-1.8-0.2c-0.8-0.1-1.3-0.2-1.7-0.2l-0.6,0
						c-0.2,0-0.6,0-1.1,0c-0.6,0-0.9,0-1.2,0c-0.4,0-0.6-0.1-0.8-0.3c-0.1-0.1-0.2-0.3-0.2-0.5c0-0.4,0.3-0.8,0.9-0.8
						c0.2,0,0.4,0,0.7,0.1c0.3,0.1,0.5,0.1,0.6,0.1c0.4,0,0.4-0.1,0.4-0.1c0,0,0.1-0.2,0.2-0.8l0.9-11c0-0.6,0-0.8,0-0.8
						c0-0.1-0.1-0.2-0.4-0.2c-0.1,0-0.3,0-0.5,0c-0.4,0-0.6,0-0.7,0c-0.3,0-0.5-0.1-0.6-0.2c-0.2-0.2-0.3-0.4-0.3-0.7
						c0-0.3,0.3-0.7,0.9-0.7l0.1,0l0.6,0.1c1,0.2,1.5,0.3,1.7,0.3l0.6,0c0.2,0,0.8,0,1.8,0c0.7,0,1.3,0,1.8,0.1
						c1.4,0.1,2.5,0.4,3.3,0.7c0.9,0.4,1.6,1,2.1,1.7c1.2,1.6,1.7,3.7,1.5,6.2c-0.2,1.9-0.7,3.5-1.6,4.9c-1,1.3-2.2,2.2-3.6,2.4
						C102.4,179.9,101.8,180,101.2,180z M98.1,165.5c0,0,0,0,0,0.1c-0.1,0.5-0.2,1.2-0.2,1.9l-0.8,9.8c0,0.4,0,0.6,0.2,0.7
						c0.1,0.1,0.7,0.2,2.7,0.4c1.2,0.1,2.2,0.1,2.8-0.1c0.9-0.2,1.7-0.7,2.3-1.5c0.8-1,1.3-2.4,1.4-4.2c0.1-1.7,0-3.2-0.5-4.3
						c-0.5-1.1-1.2-1.8-2.2-2.2c-0.8-0.3-1.8-0.5-2.9-0.6c-0.4,0-0.8-0.1-1-0.1l-1.3,0C98.3,165.4,98.1,165.4,98.1,165.5z"/>
				</g>
				<g>
					<path fill="#333333" d="M113.7,169.3l0.9,7.7c0.1,0.5,0.2,0.9,0.3,1c0.2,0.3,0.5,0.4,1,0.3c0.1,0,0.4,0,0.7-0.1
						c0.1,0,0.2,0,0.3-0.1c0.1,0,0.2,0,0.2,0c0.3,0,0.5,0,0.5,0.3c0,0.2-0.1,0.3-0.4,0.3l-0.1,0l-0.5,0c-0.1,0-0.3,0-0.6,0
						c-0.6,0-1,0-1.3,0.1l-0.3,0c-0.3,0-0.8,0.1-1.3,0.2c-0.5,0.1-0.9,0.2-1.2,0.2c-0.3,0-0.5,0-0.5-0.2c0-0.2,0.1-0.3,0.4-0.4
						c0,0,0.1,0,0.2,0c0.1,0,0.2,0,0.3,0c0.3,0,0.5,0,0.7-0.1c0.5-0.1,0.8-0.2,0.9-0.6c0.1-0.2,0.1-0.5,0.1-1.1l-0.2-1.6l-1.1-9.3
						c-0.1-0.5-0.2-0.9-0.3-1c-0.2-0.3-0.5-0.4-1-0.3c-0.1,0-0.3,0.1-0.7,0.1c-0.2,0-0.3,0.1-0.5,0.1c-0.3,0-0.5,0-0.5-0.2
						c0-0.2,0.1-0.3,0.4-0.3l0.1,0l0.5,0c0.1,0,0.3,0,0.6,0c0.6,0,1,0,1.3-0.1l0.3,0c0.3,0,0.7-0.1,1.3-0.2c0.3-0.1,0.5-0.1,0.6-0.1
						l0.5-0.1l0.1,0c0.3,0,0.4,0,0.5,0.2c0,0.2-0.1,0.3-0.4,0.4c-0.2,0-0.4,0-0.5,0c-0.4,0-0.6,0-0.7,0c-0.5,0.1-0.7,0.2-0.9,0.5
						c-0.1,0.2-0.1,0.6,0,1.1L113.7,169.3z"/>
					<path fill="#555252" d="M111.8,180c-0.6,0-0.8-0.4-0.9-0.7c0-0.4,0.2-0.9,0.9-1c0,0,0.1,0,0.3,0c0.1,0,0.2,0,0.3,0
						c0.3,0,0.5,0,0.7-0.1c0.3,0,0.4-0.1,0.4-0.2c0,0,0.1-0.2,0-0.9l-1.3-10.9c-0.1-0.6-0.2-0.8-0.2-0.8c0-0.1-0.2-0.2-0.5-0.1
						c-0.1,0-0.3,0.1-0.6,0.1c-0.2,0-0.4,0.1-0.6,0.1c-0.8,0.1-1-0.3-1.1-0.7c0-0.4,0.2-0.8,0.9-0.9l0.6,0c0.1,0,0.3,0,0.6,0
						c0.6,0,1,0,1.2-0.1l0.3,0c0.3,0,0.7-0.1,1.2-0.2c0.3-0.1,0.5-0.1,0.7-0.1l0.6-0.1c0.7-0.1,1,0.3,1,0.7c0,0.4-0.2,0.9-0.9,0.9
						c-0.2,0-0.4,0-0.6,0c-0.3,0-0.6,0-0.7,0c-0.2,0-0.4,0.1-0.4,0.2c0,0-0.1,0.2,0,0.9l1.3,10.9c0.1,0.6,0.2,0.8,0.2,0.8
						c0,0.1,0.2,0.2,0.5,0.1c0.1,0,0.3,0,0.6-0.1c0.1,0,0.2,0,0.3-0.1c0.2,0,0.3-0.1,0.3-0.1l0.2,0c0.6,0,0.8,0.4,0.9,0.7
						c0,0.4-0.2,0.8-0.9,0.9l-0.6,0c-0.1,0-0.3,0-0.6,0c-0.6,0-1,0-1.2,0.1l-0.3,0c-0.3,0-0.7,0.1-1.2,0.2c-0.5,0.1-0.9,0.2-1.2,0.2
						C111.9,180,111.9,180,111.8,180z"/>
				</g>
				<g>
					<path fill="#333333" d="M123.3,161.6c1.8-0.6,3.5-0.3,5,0.7c1.6,1,2.7,2.7,3.4,4.9c0.7,2.2,0.7,4.2,0.1,5.9s-1.8,2.9-3.6,3.4
						c-1.8,0.6-3.5,0.4-5.1-0.6c-1.5-1-2.7-2.6-3.4-4.9c-0.7-2.2-0.7-4.2-0.1-6C120.4,163.3,121.6,162.2,123.3,161.6z M128,176.1
						c1.6-0.5,2.7-1.6,3.3-3.2c0.6-1.6,0.5-3.4-0.1-5.5c-0.7-2.1-1.7-3.6-3.1-4.6c-1.4-1-2.9-1.2-4.6-0.7c-1.6,0.5-2.6,1.5-3.2,3.1
						c-0.6,1.6-0.5,3.4,0.1,5.5c0.7,2.1,1.7,3.7,3.1,4.7C124.8,176.4,126.3,176.6,128,176.1z"/>
					<path fill="#555252" d="M126.3,177.4c-1.2,0-2.3-0.4-3.4-1.1c-1.6-1.1-2.8-2.8-3.6-5.2c-0.7-2.3-0.8-4.4-0.1-6.3
						c0.7-1.9,2-3.2,3.9-3.8c1.9-0.6,3.8-0.4,5.5,0.7c1.7,1.1,2.9,2.8,3.6,5.2c0.7,2.3,0.8,4.4,0.1,6.3c-0.7,1.9-2,3.1-3.9,3.7
						C127.7,177.3,127,177.4,126.3,177.4z M125,162.4c-0.5,0-1,0.1-1.4,0.2c-1.4,0.4-2.3,1.4-2.8,2.8c-0.5,1.5-0.5,3.2,0.1,5.2
						c0.6,2,1.6,3.5,2.9,4.4c0.8,0.6,1.7,0.9,2.6,0.9l0,0c0.5,0,1-0.1,1.5-0.2c1.5-0.5,2.4-1.4,2.9-2.8c0.5-1.5,0.5-3.2-0.1-5.2
						c-0.6-1.9-1.6-3.4-2.9-4.3C126.8,162.7,125.9,162.4,125,162.4z"/>
				</g>
				<g>
					<path fill="#333333" d="M137.5,170.4l-0.2-0.1l0.2,0.3l0.3,0.5c0.2,0.3,0.3,0.5,0.3,0.5l0,0c0.2,0.3,0.2,0.5,0,0.5
						c-0.2,0.1-0.4,0-0.6-0.3l-0.1-0.1c-0.4-0.8-0.8-1.6-1.2-2.3c-0.4-0.6-0.7-1.1-0.9-1.5c-0.2-0.4-0.4-0.6-0.4-0.7
						c-0.1-0.2-0.1-0.4,0.1-0.5c0.2-0.1,0.3,0,0.4,0.2c0.1,0.1,0.2,0.3,0.3,0.6c0.1,0.3,0.2,0.5,0.3,0.6c0.7,1.2,1.6,2,2.7,2.2
						c1.1,0.3,2.3,0,3.5-0.7c1.1-0.7,1.9-1.5,2.2-2.5c0.3-1,0.2-2-0.4-3.1c-0.8-1.4-2-1.9-3.4-1.5c-0.5,0.1-1.2,0.4-2,0.8
						c-3,1.4-5,1.1-6.2-0.9c-0.6-1-0.7-2.1-0.3-3.2c0.4-1.1,1.1-2,2.3-2.7c1.4-0.8,2.7-1,3.9-0.5c0.3,0.1,0.6,0.3,1,0.7
						c-0.1-0.2-0.2-0.4-0.3-0.6c-0.1-0.2-0.2-0.3-0.3-0.4l-0.3-0.4l0-0.1c-0.2-0.3-0.2-0.5,0-0.6c0.2-0.1,0.3,0,0.5,0.2
						c0,0,0.1,0.2,0.3,0.7c0.2,0.5,0.5,1.1,0.9,1.8c0.3,0.5,0.5,0.9,0.7,1.2c0.3,0.4,0.4,0.6,0.4,0.6c0.1,0.2,0.1,0.4,0,0.5
						c-0.2,0.1-0.4,0-0.5-0.2c-0.1-0.1-0.1-0.2-0.2-0.4c-0.1-0.2-0.2-0.3-0.2-0.4c-0.7-1.1-1.5-1.9-2.5-2.2c-1-0.3-2-0.1-3.1,0.5
						c-1,0.6-1.7,1.4-2,2.3c-0.3,0.9-0.2,1.9,0.3,2.8c0.5,0.9,1.2,1.4,2,1.5c0.9,0.1,2-0.1,3.3-0.8c1.2-0.5,2.1-0.9,2.7-1
						c0.6-0.1,1.2-0.1,1.8,0.2c0.7,0.3,1.3,0.9,1.8,1.7c0.7,1.1,0.8,2.3,0.4,3.4c-0.4,1.1-1.2,2.1-2.5,2.8c-0.9,0.5-1.8,0.8-2.6,0.9
						c-0.9,0.1-1.7-0.1-2.3-0.4L137.5,170.4z"/>
					<path fill="#555252" d="M138.1,172.8c-0.3,0-0.6-0.2-0.9-0.6l-0.1-0.1c-0.4-0.8-0.8-1.6-1.2-2.3c-0.4-0.6-0.7-1.1-0.9-1.5
						c-0.2-0.4-0.4-0.6-0.4-0.7c-0.3-0.6-0.1-1,0.3-1.2c0.1-0.1,0.3-0.1,0.4-0.1c0.2,0,0.5,0.1,0.7,0.5c0.1,0.1,0.2,0.3,0.3,0.6
						c0.1,0.2,0.2,0.4,0.2,0.5c0.6,1.1,1.4,1.8,2.4,2c1,0.2,2,0,3.2-0.6c1-0.6,1.7-1.3,2-2.2c0.3-0.9,0.2-1.7-0.3-2.6
						c-0.7-1.2-1.6-1.6-2.8-1.3c-0.5,0.1-1.1,0.4-1.9,0.8c-3.2,1.6-5.6,1.2-6.8-1.1c-0.7-1.2-0.8-2.4-0.4-3.7c0.4-1.3,1.2-2.3,2.5-3
						c1.3-0.7,2.5-1,3.7-0.7c-0.1-0.3-0.2-0.5-0.1-0.7c0.1-0.2,0.2-0.4,0.4-0.5c0.1-0.1,0.3-0.1,0.4-0.1c0.2,0,0.5,0.1,0.8,0.5
						l0.1,0.2l0,0c0.1,0.1,0.1,0.3,0.3,0.6c0.2,0.5,0.5,1.1,0.9,1.8c0.3,0.5,0.5,0.9,0.7,1.1c0.3,0.4,0.4,0.6,0.4,0.6
						c0.3,0.6,0.1,1-0.2,1.2c-0.1,0.1-0.3,0.1-0.4,0.1c-0.2,0-0.5-0.1-0.8-0.5c-0.1-0.1-0.1-0.3-0.2-0.5c-0.1-0.2-0.1-0.3-0.2-0.4
						c-0.6-1-1.3-1.7-2.2-1.9c-0.8-0.2-1.7-0.1-2.7,0.5c-0.9,0.5-1.5,1.2-1.8,2c-0.3,0.8-0.2,1.6,0.3,2.4c0.4,0.7,1,1.2,1.7,1.2
						c0.8,0.1,1.8-0.1,3-0.7c1.2-0.6,2.1-0.9,2.8-1c0.7-0.1,1.4-0.1,2.1,0.2c0.8,0.3,1.5,1,2,1.9c0.7,1.3,0.9,2.6,0.5,3.8
						c-0.4,1.3-1.3,2.3-2.7,3.1c-0.9,0.5-1.9,0.9-2.9,1c-0.5,0.1-1,0-1.5-0.1c0,0,0,0,0,0c0.4,0.6,0.1,1.1-0.2,1.3
						C138.4,172.8,138.2,172.8,138.1,172.8z"/>
				</g>
				<g>
					<path fill="#333333" d="M149.6,149l0.2,0.1L149.6,149l-0.3-0.4l-0.3-0.3l0,0c-0.2-0.2-0.2-0.3-0.1-0.4c0.1-0.1,0.2,0,0.3,0.1
						c0.1,0.1,0.2,0.2,0.3,0.4c0.5,0.5,0.8,0.9,1,1.2c0.3,0.3,0.5,0.6,0.7,0.7c0.2,0.2,0.3,0.3,0.3,0.3c0.1,0.1,0.1,0.2,0,0.3
						c-0.1,0.1-0.2,0.1-0.4-0.1c-0.1-0.1-0.2-0.2-0.3-0.3c-0.2-0.2-0.2-0.3-0.3-0.4c-0.6-0.6-1.2-0.9-1.9-1c-0.7,0-1.4,0.3-2,0.8
						c-0.8,0.8-1.2,1.7-1,2.7c0.2,1.1,0.7,2.1,1.7,3.1c0.9,1,1.9,1.6,2.9,1.7c1,0.1,1.9-0.2,2.7-0.9c0.6-0.6,1-1.3,1-2
						c0-0.7-0.2-1.4-0.8-2.1c-0.2-0.3-0.3-0.5-0.2-0.6c0.1-0.1,0.2-0.1,0.3,0.1c0.7,0.7,1,1.6,1,2.5c0,0.9-0.4,1.7-1.2,2.4
						c-0.9,0.8-1.9,1.2-3,1c-1.1-0.2-2.2-0.8-3.2-1.9c-1-1.1-1.6-2.2-1.6-3.3c-0.1-1.1,0.3-2.1,1.2-2.9c0.6-0.6,1.3-0.9,2.1-0.9
						C148.8,148.8,149.1,148.9,149.6,149z"/>
					<path fill="#555252" d="M150.7,158.4c-0.2,0-0.4,0-0.6,0c-1.2-0.2-2.4-0.9-3.5-2.1c-1.1-1.2-1.7-2.4-1.8-3.7
						c-0.1-1.3,0.3-2.4,1.3-3.4c0.7-0.7,1.5-1,2.3-1c-0.2-0.4,0.1-0.7,0.1-0.8l0.2-0.1l0.3,0c0.2,0,0.4,0.1,0.6,0.3
						c0.1,0.1,0.2,0.2,0.4,0.4c0.5,0.5,0.8,0.9,1,1.2c0.3,0.3,0.5,0.5,0.6,0.6c0.3,0.2,0.4,0.3,0.4,0.4c0.1,0.1,0.2,0.3,0.2,0.5
						l0,0.2l-0.2,0.3c-0.3,0.3-0.8,0.3-1.1-0.1c-0.1-0.1-0.2-0.2-0.3-0.4c-0.1-0.2-0.2-0.3-0.3-0.3c-0.5-0.5-1-0.8-1.6-0.8
						c0,0,0,0,0,0c-0.6,0-1.1,0.2-1.6,0.7c-0.7,0.7-1,1.4-0.8,2.3c0.2,1,0.7,2,1.5,2.9c0.9,0.9,1.7,1.5,2.6,1.6
						c0.8,0.1,1.6-0.1,2.3-0.8c0.6-0.5,0.8-1.1,0.9-1.7c0-0.6-0.2-1.2-0.7-1.7c-0.6-0.7-0.4-1.1-0.2-1.3c0.3-0.3,0.7-0.3,1.1,0.1
						c0.8,0.8,1.2,1.8,1.1,2.8c0,1-0.5,2-1.3,2.8C152.7,158,151.7,158.4,150.7,158.4z"/>
				</g>
				<g>
					<path fill="#333333" d="M152.7,143.6c0.5-0.7,1.2-1,2-1.1c0.8,0,1.6,0.2,2.3,0.8c0.7,0.6,1.2,1.3,1.3,2.1
						c0.1,0.8-0.1,1.5-0.6,2.2c-0.5,0.7-1.2,1-2,1c-0.8,0-1.6-0.3-2.4-0.9c-0.7-0.6-1.2-1.3-1.3-2C152,145,152.2,144.3,152.7,143.6z
						 M157.6,147.5c0.5-0.6,0.6-1.2,0.5-1.9c-0.1-0.7-0.5-1.3-1.2-1.9c-0.7-0.6-1.4-0.8-2.2-0.8c-0.7,0-1.3,0.3-1.8,0.9
						c-0.5,0.6-0.6,1.2-0.5,1.9s0.5,1.3,1.2,1.9c0.7,0.6,1.4,0.8,2.1,0.8C156.5,148.4,157.1,148.1,157.6,147.5z"/>
					<path fill="#555252" d="M155.6,149.2c-0.9,0-1.7-0.3-2.5-1c-0.8-0.7-1.3-1.4-1.5-2.4c-0.2-0.9,0.1-1.8,0.7-2.6
						c0.6-0.8,1.4-1.2,2.4-1.3l0.2,0c0.9,0,1.7,0.3,2.5,1c0.8,0.7,1.3,1.5,1.5,2.4c0.2,0.9-0.1,1.8-0.7,2.6
						c-0.6,0.8-1.4,1.2-2.4,1.2L155.6,149.2z M154.8,143l0,0.3c-0.6,0-1,0.2-1.4,0.7c-0.4,0.5-0.5,1-0.4,1.5c0.1,0.6,0.5,1.1,1,1.5
						c0.6,0.5,1.2,0.7,1.8,0.7c0.6,0,1.1-0.2,1.4-0.7c0.4-0.5,0.5-1,0.4-1.5c-0.1-0.6-0.4-1.1-1-1.5c-0.6-0.5-1.2-0.7-1.8-0.7
						L154.8,143L154.8,143z"/>
				</g>
			</g>
		</g>
	</g>
	<path fill="#555252" d="M105.5,1.7c14.1,0,27.4,6.4,36.2,17.3c1.2-0.1,2.4-0.1,3.6-0.1c12.5,0,24.3,4.9,33.1,13.8
		c10,10,14.9,24,13.5,38c10.3,8.9,16.3,21.9,16.3,35.7c0,14.2-6.4,27.5-17.2,36.4c0.1,1.2,0.1,2.4,0.1,3.6
		c0,12.6-4.9,24.4-13.7,33.3c-8.8,8.9-20.6,13.8-33.1,13.8c-1.6,0-3.1-0.1-4.7-0.2c-8.9,10.3-21.8,16.4-35.5,16.4
		c-12.5,0-24.3-4.9-33.1-13.8c-1.1-1.1-2.2-2.3-3.1-3.5c-1.2,0.1-2.4,0.1-3.5,0.1c-12.5,0-24.3-4.9-33.1-13.8
		c-8.8-8.9-13.7-20.7-13.7-33.3c0-1.6,0.1-3.2,0.2-4.7c-10.3-8.9-16.3-21.9-16.3-35.6c0-14.2,6.4-27.5,17.2-36.4
		c-1-13.6,3.9-27.1,13.6-36.8c8.8-8.9,20.6-13.8,33.1-13.8c1.6,0,3.1,0.1,4.7,0.2C78.9,7.7,91.8,1.7,105.5,1.7 M73,25.5
		c-2.5-0.5-5.1-0.7-7.7-0.7c-10.7,0-20.7,4.2-28.2,11.7C27.6,46.1,23.9,59.2,26,71.6C15.3,78.8,8.3,91,8.3,104.9
		c0,13.5,6.7,25.4,16.8,32.7c-0.5,2.5-0.7,5.1-0.7,7.7c0,10.7,4.2,20.8,11.7,28.3c7.5,7.6,17.6,11.7,28.2,11.7
		c2.3,0,4.5-0.2,6.7-0.6c1.4,2.1,3.1,4.1,4.9,6c7.5,7.6,17.6,11.7,28.2,11.7c13.4,0,25.3-6.7,32.5-16.9c2.5,0.5,5.1,0.7,7.7,0.7
		c10.7,0,20.7-4.2,28.2-11.7c7.5-7.6,11.7-17.6,11.7-28.3c0-2.3-0.2-4.5-0.6-6.8c10.6-7.2,17.6-19.4,17.6-33.2
		c0-13.5-6.7-25.4-16.8-32.7c2.4-12.6-1.2-26.3-10.9-36c-7.5-7.6-17.6-11.7-28.2-11.7c-2.3,0-4.5,0.2-6.7,0.6
		c-7.2-10.7-19.3-17.7-33.1-17.7C92.1,8.6,80.2,15.3,73,25.5 M105.5,0.3c-13.8,0-26.9,5.9-36.1,16.3c-1.4-0.1-2.8-0.2-4.1-0.2
		c-12.9,0-25,5-34.1,14.2c-9.8,9.8-14.8,23.3-14,37.2C6.3,77.1,0,90.5,0,104.9c0,13.8,5.9,27,16.3,36.2c-0.1,1.4-0.2,2.8-0.2,4.2
		c0,12.9,5,25.1,14.1,34.2c9.1,9.1,21.2,14.2,34.1,14.2c1,0,2,0,2.9-0.1c0.9,1.1,1.8,2.1,2.8,3c9.1,9.1,21.2,14.2,34.1,14.2
		c13.8,0,26.9-5.9,36.1-16.3c1.4,0.1,2.8,0.2,4.1,0.2c12.9,0,25-5,34.1-14.2c9.1-9.1,14.1-21.3,14.1-34.2c0-1,0-2-0.1-3
		c10.9-9.2,17.1-22.7,17.1-37c0-13.9-5.9-27-16.3-36.2c1.2-14.3-3.8-28.2-13.9-38.4c-9.1-9.1-21.2-14.2-34.1-14.2c-1,0-2,0-3,0.1
		C133.2,6.5,119.8,0.3,105.5,0.3L105.5,0.3z M73,26.9c0.4,0,0.9-0.2,1.1-0.6c7.2-10.2,19-16.3,31.4-16.3c12.8,0,24.7,6.4,31.9,17.1
		c0.3,0.4,0.7,0.6,1.2,0.6c0.1,0,0.2,0,0.2,0c2.2-0.4,4.4-0.6,6.5-0.6c10.3,0,20,4,27.2,11.3c9.1,9.1,13,22.1,10.5,34.8
		c-0.1,0.5,0.1,1.1,0.6,1.4c10.2,7.3,16.3,19.1,16.3,31.5c0,12.9-6.4,24.8-17,32.1c-0.5,0.3-0.7,0.8-0.6,1.4
		c0.4,2.2,0.6,4.4,0.6,6.5c0,10.3-4,20-11.3,27.3c-7.3,7.3-17,11.3-27.2,11.3c-2.5,0-5-0.2-7.4-0.7c-0.1,0-0.2,0-0.3,0
		c-0.4,0-0.9,0.2-1.1,0.6c-7.2,10.2-19,16.3-31.4,16.3c-10.3,0-20-4-27.2-11.3c-1.8-1.8-3.3-3.7-4.7-5.8c-0.3-0.4-0.7-0.6-1.1-0.6
		c-0.1,0-0.2,0-0.2,0c-2.2,0.4-4.3,0.6-6.5,0.6c-10.3,0-20-4-27.2-11.3c-7.3-7.3-11.3-17-11.3-27.3c0-2.5,0.2-5,0.7-7.5
		c0.1-0.5-0.1-1.1-0.6-1.4c-10.2-7.3-16.3-19.1-16.3-31.5c0-12.9,6.4-24.9,17-32.1c0.5-0.3,0.7-0.8,0.6-1.4
		c-2.1-12.4,1.9-25,10.7-33.8c7.3-7.3,16.9-11.3,27.2-11.3c2.5,0,5,0.2,7.4,0.7C72.8,26.9,72.9,26.9,73,26.9L73,26.9z"/>
	<g>
		<line fill="#F5841F" x1="74.8" y1="206.8" x2="66.8" y2="192.7"/>
		<polygon fill="#555252" points="74.2,207.1 66.2,193.1 67.4,192.4 75.4,206.4 		"/>
	</g>
	<g>
		<line fill="#F5841F" x1="140.2" y1="194.2" x2="147.2" y2="207.4"/>
		<polygon fill="#555252" points="146.6,207.7 139.6,194.5 140.8,193.9 147.8,207 		"/>
	</g>
</g>
<g>
	<path fill="#555252" d="M22.7,166.9c0.4,0.7,0.8,1.5,1.2,2.2l16.7,16.7c0.7,0.4,1.5,0.8,2.2,1.2L22.7,166.9z"/>
	<path fill="#555252" d="M19.9,160.3c0.2,0.5,0.4,1,0.5,1.5l27.3,27.4c0.5,0.2,1,0.4,1.5,0.5L19.9,160.3z"/>
	<path fill="#555252" d="M41.1,177.8c-1.8-1.3-3.4-2.7-5-4.3c-1.6-1.6-3-3.3-4.2-5l-13.3-13.4c0.1,0.4,0.2,0.8,0.3,1.3l34.4,34.5
		c0.4,0.1,0.8,0.2,1.3,0.3L41.1,177.8z"/>
	<path fill="#555252" d="M28,161.9c-0.3-0.6-0.5-1.1-0.7-1.7l-9.5-9.5c0,0.4,0.1,0.8,0.1,1.1L28,161.9z"/>
	<path fill="#555252" d="M49.4,182.4c-0.6-0.2-1.2-0.5-1.7-0.7l10.1,10.1c0.4,0.1,0.7,0.1,1.1,0.1L49.4,182.4z"/>
	<path fill="#555252" d="M25.9,156c-0.1-0.4-0.2-0.9-0.3-1.3l-8-8.1c0,0.3,0,0.7,0,1L25.9,156z"/>
	<path fill="#555252" d="M54.9,184.2c-0.4-0.1-0.9-0.2-1.3-0.3l8.3,8.4c0.3,0,0.7,0,1,0L54.9,184.2z"/>
	<path fill="#555252" d="M59.5,185c-0.4,0-0.7-0.1-1.1-0.1l7.4,7.4c0.3,0,0.6,0,0.9,0L59.5,185z"/>
	<path fill="#555252" d="M24.9,151.2c-0.1-0.4-0.1-0.7-0.1-1.1l-7.2-7.2c0,0.3,0,0.6,0,1L24.9,151.2z"/>
	<path fill="#555252" d="M63.5,185.3c-0.3,0-0.7,0-1,0l17.1,17.2c0.8,0.5,1.5,0.9,2.3,1.4L63.5,185.3z"/>
	<path fill="#555252" d="M24.5,147.1c0-0.3,0-0.7,0-1L9.1,130.7c0.8,1.3,1.7,2.5,2.7,3.7L24.5,147.1z"/>
	<path fill="#555252" d="M24.5,143.3c0-0.3,0-0.6,0.1-0.9L4.9,122.7c0.2,0.6,0.5,1.2,0.7,1.7L24.5,143.3z"/>
	<path fill="#555252" d="M67.2,185.2c-0.3,0-0.6,0-0.9,0.1l20.9,20.9c0.5,0.2,1,0.4,1.6,0.6L67.2,185.2z"/>
	<path fill="#555252" d="M24.8,139.9c0-0.3,0.1-0.6,0.1-0.9L3,117c0.1,0.5,0.3,0.9,0.4,1.4L24.8,139.9z"/>
	<path fill="#555252" d="M79.8,194.1c-1.3-1-2.6-2.2-3.9-3.4c-1.2-1.2-2.3-2.5-3.4-3.9l-2-2c-0.3,0-0.6,0.1-0.9,0.1l22.9,23
		c0.4,0.1,0.8,0.2,1.3,0.3L79.8,194.1z"/>
	<path fill="#555252" d="M13.8,125.1c-0.4-0.7-0.8-1.4-1.2-2.2L2,112.2c0.1,0.4,0.1,0.8,0.2,1.2L13.8,125.1z"/>
	<path fill="#555252" d="M88.8,199.4c-0.6-0.3-1.2-0.5-1.8-0.8l10.3,10.3c0.4,0.1,0.7,0.1,1.1,0.1L88.8,199.4z"/>
	<path fill="#555252" d="M94.4,201.2c-0.5-0.1-0.9-0.2-1.4-0.4l8.4,8.5c0.3,0,0.7,0,1,0L94.4,201.2z"/>
	<path fill="#555252" d="M10.6,118.1c-0.2-0.5-0.3-1-0.5-1.5L1.5,108c0,0.4,0.1,0.7,0.1,1.1L10.6,118.1z"/>
	<path fill="#555252" d="M99,202.1c-0.4,0-0.8-0.1-1.1-0.2l7.4,7.4c0.3,0,0.6,0,1,0L99,202.1z"/>
	<path fill="#555252" d="M8.9,111.7l-7.5-7.5c0,0.2,0,0.5,0,0.7c0,0.1,0,0.2,0,0.2l7.8,7.8C9.1,112.5,9,112.1,8.9,111.7z"/>
	<path fill="#555252" d="M103,202.4c-0.3,0-0.7,0-1,0l6.8,6.8c0.3,0,0.6-0.1,0.9-0.1L103,202.4z"/>
	<path fill="#555252" d="M8.5,108.5c0-0.4-0.1-0.7-0.1-1.1l-6.8-6.8c0,0.3-0.1,0.6-0.1,0.9L8.5,108.5z"/>
	<path fill="#555252" d="M8.3,104.5c0-0.3,0-0.6,0-1L2,97.2c0,0.3-0.1,0.6-0.1,0.9L8.3,104.5z"/>
	<path fill="#555252" d="M106.7,202.3c-0.3,0-0.6,0-0.9,0l6.3,6.3c0.3,0,0.5-0.1,0.8-0.2L106.7,202.3z"/>
	<path fill="#555252" d="M8.5,101c0-0.3,0.1-0.6,0.1-0.9l-6-6c-0.1,0.3-0.1,0.5-0.2,0.8L8.5,101z"/>
	<path fill="#555252" d="M110.1,202c-0.3,0-0.6,0.1-0.8,0.1l5.9,6c0.3-0.1,0.5-0.1,0.8-0.2L110.1,202z"/>
	<path fill="#555252" d="M113.2,201.4c-0.3,0.1-0.5,0.1-0.8,0.2l5.7,5.7c0.2-0.1,0.5-0.1,0.8-0.2L113.2,201.4z"/>
	<path fill="#555252" d="M9,97.7c0.1-0.3,0.1-0.6,0.2-0.8l-5.7-5.7c-0.1,0.3-0.2,0.5-0.2,0.7L9,97.7z"/>
	<path fill="#555252" d="M9.7,94.6c0.1-0.3,0.1-0.5,0.2-0.8l-5.5-5.5c-0.1,0.2-0.2,0.5-0.3,0.7L9.7,94.6z"/>
	<path fill="#555252" d="M116.2,200.6c-0.3,0.1-0.5,0.1-0.8,0.2l5.5,5.5c0.2-0.1,0.5-0.2,0.7-0.3L116.2,200.6z"/>
	<path fill="#555252" d="M10.5,91.7c0.1-0.2,0.2-0.5,0.3-0.7l-5.3-5.3c-0.1,0.2-0.2,0.5-0.3,0.7L10.5,91.7z"/>
	<path fill="#555252" d="M118.9,199.6c-0.2,0.1-0.5,0.2-0.7,0.3l5.3,5.3c0.2-0.1,0.4-0.2,0.7-0.3L118.9,199.6z"/>
	<path fill="#555252" d="M11.6,89c0.1-0.2,0.2-0.5,0.3-0.7l-5.2-5.2c-0.1,0.2-0.2,0.4-0.3,0.7L11.6,89z"/>
	<path fill="#555252" d="M121.5,198.4c-0.2,0.1-0.4,0.2-0.7,0.3l5.2,5.2c0.2-0.1,0.4-0.2,0.6-0.4L121.5,198.4z"/>
	<path fill="#555252" d="M12.8,86.5c0.1-0.2,0.2-0.4,0.3-0.7l-5.1-5.1c-0.1,0.2-0.2,0.4-0.4,0.6L12.8,86.5z"/>
	<path fill="#555252" d="M124,197.1c-0.2,0.1-0.4,0.2-0.6,0.4l5.1,5.1c0.2-0.1,0.4-0.3,0.6-0.4L124,197.1z"/>
	<path fill="#555252" d="M126.3,195.7c-0.2,0.1-0.4,0.3-0.6,0.4l5,5c0.2-0.1,0.4-0.3,0.6-0.4L126.3,195.7z"/>
	<path fill="#555252" d="M14.2,84.1c0.1-0.2,0.2-0.4,0.4-0.6l-5-5c-0.1,0.2-0.3,0.4-0.4,0.6L14.2,84.1z"/>
	<path fill="#555252" d="M128.5,194.1c-0.2,0.1-0.4,0.3-0.6,0.4l4.9,5c0.2-0.1,0.4-0.3,0.5-0.4L128.5,194.1z"/>
	<path fill="#555252" d="M15.6,81.8c0.1-0.2,0.3-0.4,0.4-0.6l-5-5c-0.1,0.2-0.3,0.4-0.4,0.6L15.6,81.8z"/>
	<path fill="#555252" d="M17.2,79.6c0.1-0.2,0.3-0.4,0.5-0.5l-4.9-5c-0.2,0.2-0.3,0.4-0.4,0.5L17.2,79.6z"/>
	<path fill="#555252" d="M130.5,192.4c-0.2,0.2-0.4,0.3-0.5,0.5l4.9,4.9c0.2-0.2,0.3-0.3,0.5-0.5L130.5,192.4z"/>
	<path fill="#555252" d="M19,77.6c0.2-0.2,0.3-0.3,0.5-0.5l-4.9-4.9c-0.2,0.2-0.3,0.3-0.5,0.5L19,77.6z"/>
	<path fill="#555252" d="M132.4,190.6c-0.2,0.2-0.3,0.3-0.5,0.5l4.9,4.9c0.2-0.2,0.3-0.3,0.5-0.5L132.4,190.6z"/>
	<path fill="#555252" d="M20.9,75.7c0.2-0.2,0.3-0.3,0.5-0.5l-4.9-4.9c-0.2,0.2-0.3,0.3-0.5,0.5L20.9,75.7z"/>
	<path fill="#555252" d="M134.2,188.6c-0.2,0.2-0.3,0.4-0.5,0.5l4.9,4.9c0.2-0.2,0.3-0.3,0.5-0.5L134.2,188.6z"/>
	<path fill="#555252" d="M135.9,186.5c-0.1,0.2-0.3,0.4-0.4,0.6l6,6c0.3,0,0.7,0,1,0.1L135.9,186.5z"/>
	<path fill="#555252" d="M22.8,74c0.2-0.1,0.4-0.3,0.5-0.4l-4.9-5c-0.2,0.1-0.3,0.3-0.5,0.5L22.8,74z"/>
	<path fill="#555252" d="M139,185.9c-0.4-0.1-0.8-0.1-1.2-0.2l7.5,7.5c0.3,0,0.6,0,1,0L139,185.9z"/>
	<path fill="#555252" d="M25,72.3c0.2-0.1,0.4-0.3,0.6-0.4l-7-7.1c0,0.3,0,0.7,0,1L25,72.3z"/>
	<path fill="#555252" d="M143.1,186.2c-0.3,0-0.7,0-1,0l6.8,6.8c0.3,0,0.6-0.1,0.9-0.1L143.1,186.2z"/>
	<path fill="#555252" d="M25.7,69.3c0-0.4-0.1-0.7-0.1-1.1l-6.9-7c0,0.3,0,0.6-0.1,0.9L25.7,69.3z"/>
	<path fill="#555252" d="M146.8,186.2c-0.3,0-0.6,0-0.9,0l6.3,6.3c0.3,0,0.6-0.1,0.8-0.1L146.8,186.2z"/>
	<path fill="#555252" d="M25.4,65.3c0-0.3,0-0.7,0-1L19,57.9c0,0.3-0.1,0.6-0.1,0.9L25.4,65.3z"/>
	<path fill="#555252" d="M25.6,61.7c0-0.3,0.1-0.6,0.1-0.9l-6-6.1c-0.1,0.3-0.1,0.5-0.2,0.8L25.6,61.7z"/>
	<path fill="#555252" d="M150.2,185.8c-0.3,0-0.6,0.1-0.9,0.1l6,6c0.3-0.1,0.5-0.1,0.8-0.2L150.2,185.8z"/>
	<path fill="#555252" d="M153.3,185.2c-0.3,0.1-0.5,0.1-0.8,0.2l5.7,5.7c0.2-0.1,0.5-0.2,0.7-0.2L153.3,185.2z"/>
	<path fill="#555252" d="M26,58.3c0-0.3,0.1-0.6,0.1-0.8l-5.7-5.8c-0.1,0.3-0.1,0.5-0.2,0.8L26,58.3z"/>
	<path fill="#555252" d="M156.3,184.4c-0.3,0.1-0.5,0.2-0.8,0.2l5.5,5.5c0.2-0.1,0.5-0.2,0.7-0.3L156.3,184.4z"/>
	<path fill="#555252" d="M26.6,55.2c0.1-0.3,0.1-0.5,0.2-0.8l-5.5-5.5c-0.1,0.2-0.2,0.5-0.2,0.7L26.6,55.2z"/>
	<path fill="#555252" d="M159.1,183.5c-0.2,0.1-0.5,0.2-0.7,0.3l5.3,5.3c0.2-0.1,0.5-0.2,0.7-0.3L159.1,183.5z"/>
	<path fill="#555252" d="M27.4,52.3c0.1-0.2,0.2-0.5,0.2-0.7l-5.3-5.4c-0.1,0.2-0.2,0.5-0.3,0.7L27.4,52.3z"/>
	<path fill="#555252" d="M28.5,49.5c0.1-0.2,0.2-0.5,0.3-0.7l-5.2-5.2c-0.1,0.2-0.2,0.4-0.3,0.7L28.5,49.5z"/>
	<path fill="#555252" d="M161.7,182.3c-0.2,0.1-0.4,0.2-0.7,0.3l5.2,5.2c0.2-0.1,0.4-0.2,0.6-0.3L161.7,182.3z"/>
	<path fill="#555252" d="M29.6,46.9c0.1-0.2,0.2-0.4,0.3-0.7l-5.1-5.1c-0.1,0.2-0.2,0.4-0.4,0.6L29.6,46.9z"/>
	<path fill="#555252" d="M164.1,181c-0.2,0.1-0.4,0.2-0.6,0.4l5.1,5.1c0.2-0.1,0.4-0.3,0.6-0.4L164.1,181z"/>
	<path fill="#555252" d="M166.4,179.6c-0.2,0.1-0.4,0.3-0.6,0.4l5,5c0.2-0.1,0.4-0.3,0.6-0.4L166.4,179.6z"/>
	<path fill="#555252" d="M30.9,44.5c0.1-0.2,0.2-0.4,0.4-0.6l-5-5c-0.1,0.2-0.3,0.4-0.4,0.6L30.9,44.5z"/>
	<path fill="#555252" d="M168.6,178c-0.2,0.1-0.4,0.3-0.6,0.4l4.9,5c0.2-0.1,0.4-0.3,0.6-0.4L168.6,178z"/>
	<path fill="#555252" d="M32.4,42.2c0.1-0.2,0.3-0.4,0.4-0.6l-5-5c-0.1,0.2-0.3,0.4-0.4,0.6L32.4,42.2z"/>
	<path fill="#555252" d="M170.7,176.3c-0.2,0.2-0.4,0.3-0.5,0.5l4.9,4.9c0.2-0.2,0.4-0.3,0.5-0.5L170.7,176.3z"/>
	<path fill="#555252" d="M34,40c0.1-0.2,0.3-0.4,0.4-0.5l-4.9-4.9c-0.1,0.2-0.3,0.4-0.5,0.5L34,40z"/>
	<path fill="#555252" d="M172.6,174.5C172.6,174.5,172.6,174.5,172.6,174.5c-0.2,0.2-0.3,0.3-0.5,0.5l4.9,4.9
		c0.2-0.2,0.3-0.3,0.5-0.5c0,0,0,0,0,0L172.6,174.5z"/>
	<path fill="#555252" d="M35.7,38c0.2-0.2,0.3-0.3,0.5-0.5l-4.9-4.9c-0.2,0.2-0.3,0.3-0.5,0.5L35.7,38z"/>
	<path fill="#555252" d="M37.5,36.1c0.2-0.2,0.3-0.3,0.5-0.5l-4.9-4.9c-0.2,0.2-0.3,0.3-0.5,0.5L37.5,36.1z"/>
	<path fill="#555252" d="M174.4,172.6c-0.2,0.2-0.3,0.4-0.5,0.5l4.9,4.9c0.2-0.2,0.3-0.3,0.5-0.5L174.4,172.6z"/>
	<path fill="#555252" d="M176.1,170.5c-0.1,0.2-0.3,0.4-0.4,0.6l4.9,5c0.1-0.2,0.3-0.4,0.4-0.6L176.1,170.5z"/>
	<path fill="#555252" d="M39.5,34.3c0.2-0.2,0.3-0.3,0.5-0.5l-4.9-4.9c-0.2,0.2-0.4,0.3-0.5,0.5L39.5,34.3z"/>
	<path fill="#555252" d="M41.6,32.6c0.2-0.1,0.4-0.3,0.6-0.4l-5-5c-0.2,0.1-0.4,0.3-0.6,0.4L41.6,32.6z"/>
	<path fill="#555252" d="M177.7,168.3c-0.1,0.2-0.3,0.4-0.4,0.6l5,5c0.1-0.2,0.3-0.4,0.4-0.6L177.7,168.3z"/>
	<path fill="#555252" d="M43.8,31.1c0.2-0.1,0.4-0.3,0.6-0.4l-5-5.1c-0.2,0.1-0.4,0.3-0.6,0.4L43.8,31.1z"/>
	<path fill="#555252" d="M179.1,166c-0.1,0.2-0.2,0.4-0.4,0.6l5,5.1c0.1-0.2,0.3-0.4,0.4-0.6L179.1,166z"/>
	<path fill="#555252" d="M180.4,163.5c-0.1,0.2-0.2,0.4-0.3,0.7l5.1,5.2c0.1-0.2,0.2-0.4,0.4-0.6L180.4,163.5z"/>
	<path fill="#555252" d="M46.2,29.7c0.2-0.1,0.4-0.2,0.6-0.3l-5.1-5.1c-0.2,0.1-0.4,0.2-0.6,0.4L46.2,29.7z"/>
	<path fill="#555252" d="M181.5,160.9c-0.1,0.2-0.2,0.5-0.3,0.7l5.2,5.3c0.1-0.2,0.2-0.4,0.3-0.7L181.5,160.9z"/>
	<path fill="#555252" d="M48.6,28.4c0.2-0.1,0.5-0.2,0.7-0.3l-5.2-5.2c-0.2,0.1-0.4,0.2-0.7,0.3L48.6,28.4z"/>
	<path fill="#555252" d="M51.3,27.3c0.2-0.1,0.5-0.2,0.7-0.3l-5.3-5.4c-0.2,0.1-0.5,0.2-0.7,0.3L51.3,27.3z"/>
	<path fill="#555252" d="M182.5,158.1c-0.1,0.2-0.2,0.5-0.2,0.7l5.4,5.4c0.1-0.2,0.2-0.5,0.3-0.7L182.5,158.1z"/>
	<path fill="#555252" d="M54.1,26.4c0.3-0.1,0.5-0.1,0.8-0.2l-5.5-5.6c-0.2,0.1-0.5,0.2-0.7,0.3L54.1,26.4z"/>
	<path fill="#555252" d="M183.3,155.1c-0.1,0.3-0.1,0.5-0.2,0.8l5.6,5.6c0.1-0.2,0.2-0.5,0.2-0.7L183.3,155.1z"/>
	<path fill="#555252" d="M183.8,152c0,0.3-0.1,0.6-0.1,0.8l5.8,5.8c0.1-0.3,0.1-0.5,0.2-0.8L183.8,152z"/>
	<path fill="#555252" d="M57.1,25.7c0.3-0.1,0.5-0.1,0.8-0.2l-5.8-5.8c-0.3,0.1-0.5,0.1-0.8,0.2L57.1,25.7z"/>
	<path fill="#555252" d="M60.3,25.1c0.3,0,0.6-0.1,0.9-0.1l-6-6.1c-0.3,0.1-0.5,0.1-0.8,0.2L60.3,25.1z"/>
	<path fill="#555252" d="M184.2,148.5c0,0.3,0,0.6-0.1,0.9l6.1,6.2c0.1-0.3,0.1-0.6,0.2-0.8L184.2,148.5z"/>
	<path fill="#555252" d="M63.8,24.8c0.3,0,0.6,0,1,0l-6.4-6.5c-0.3,0-0.6,0.1-0.8,0.1L63.8,24.8z"/>
	<path fill="#555252" d="M184.2,144.8c0,0.3,0,0.7,0,1l6.5,6.6c0-0.3,0.1-0.6,0.1-0.9L184.2,144.8z"/>
	<path fill="#555252" d="M67.6,24.9c0.4,0,0.7,0,1.1,0.1l-6.9-7c-0.3,0-0.6,0-0.9,0.1L67.6,24.9z"/>
	<path fill="#555252" d="M183.9,140.7c0.1,0.4,0.1,0.7,0.1,1.1l7.1,7.1c0-0.3,0-0.6,0-0.9L183.9,140.7z"/>
	<path fill="#555252" d="M185.2,138.3c-0.2,0.1-0.4,0.3-0.6,0.4l6.5,6.5c0-0.3,0-0.7,0-1L185.2,138.3z"/>
	<path fill="#555252" d="M71.8,25.3c0.4,0.1,0.8,0.1,1.2,0.2l-7.7-7.7c-0.3,0-0.6,0-1,0L71.8,25.3z"/>
	<path fill="#555252" d="M74.2,24c0.1-0.2,0.3-0.4,0.4-0.5L69.2,18c-0.4,0-0.7-0.1-1.1-0.1L74.2,24z"/>
	<path fill="#555252" d="M187.3,136.7c-0.2,0.2-0.4,0.3-0.5,0.4l4.9,4.9c0.2-0.2,0.4-0.3,0.5-0.5L187.3,136.7z"/>
	<path fill="#555252" d="M75.9,21.9c0.2-0.2,0.3-0.3,0.5-0.5l-4.9-4.9c-0.2,0.2-0.3,0.3-0.5,0.5L75.9,21.9z"/>
	<path fill="#555252" d="M189.3,134.9c-0.2,0.2-0.3,0.3-0.5,0.5l4.9,4.9c0.2-0.2,0.3-0.3,0.5-0.5L189.3,134.9z"/>
	<path fill="#555252" d="M77.7,20c0.2-0.2,0.3-0.3,0.5-0.5l-4.9-4.9c-0.2,0.2-0.3,0.3-0.5,0.5L77.7,20z"/>
	<path fill="#555252" d="M191.1,132.9c-0.2,0.2-0.3,0.3-0.5,0.5l4.9,4.9c0.2-0.2,0.3-0.3,0.5-0.5L191.1,132.9z"/>
	<path fill="#555252" d="M192.8,130.9c-0.1,0.2-0.3,0.4-0.4,0.6l4.9,4.9c0.1-0.2,0.3-0.4,0.4-0.5L192.8,130.9z"/>
	<path fill="#555252" d="M79.7,18.2c0.2-0.2,0.4-0.3,0.5-0.4l-4.9-5c-0.2,0.2-0.3,0.3-0.5,0.5L79.7,18.2z"/>
	<path fill="#555252" d="M81.8,16.6c0.2-0.1,0.4-0.3,0.6-0.4l-5-5c-0.2,0.1-0.4,0.3-0.5,0.4L81.8,16.6z"/>
	<path fill="#555252" d="M194.4,128.7c-0.1,0.2-0.3,0.4-0.4,0.6l5,5c0.1-0.2,0.3-0.4,0.4-0.6L194.4,128.7z"/>
	<path fill="#555252" d="M195.8,126.4c-0.1,0.2-0.2,0.4-0.4,0.6l5,5c0.1-0.2,0.3-0.4,0.4-0.6L195.8,126.4z"/>
	<path fill="#555252" d="M84,15c0.2-0.1,0.4-0.3,0.6-0.4l-5-5C79.4,9.7,79.2,9.9,79,10L84,15z"/>
	<path fill="#555252" d="M86.3,13.6c0.2-0.1,0.4-0.2,0.6-0.4l-5.1-5.1c-0.2,0.1-0.4,0.2-0.6,0.4L86.3,13.6z"/>
	<path fill="#555252" d="M197.2,124c-0.1,0.2-0.2,0.4-0.3,0.7l5.1,5.1c0.1-0.2,0.2-0.4,0.4-0.6L197.2,124z"/>
	<path fill="#555252" d="M88.8,12.3c0.2-0.1,0.5-0.2,0.7-0.3l-5.2-5.2c-0.2,0.1-0.4,0.2-0.7,0.3L88.8,12.3z"/>
	<path fill="#555252" d="M198.3,121.4c-0.1,0.2-0.2,0.5-0.3,0.7l5.2,5.2c0.1-0.2,0.2-0.4,0.3-0.7L198.3,121.4z"/>
	<path fill="#555252" d="M199.3,118.6c-0.1,0.2-0.2,0.5-0.3,0.7l5.4,5.4c0.1-0.2,0.2-0.5,0.3-0.7L199.3,118.6z"/>
	<path fill="#555252" d="M91.4,11.2c0.2-0.1,0.5-0.2,0.7-0.3l-5.3-5.4c-0.2,0.1-0.5,0.2-0.7,0.3L91.4,11.2z"/>
	<path fill="#555252" d="M200.2,115.7c-0.1,0.3-0.1,0.5-0.2,0.8l5.5,5.6c0.1-0.2,0.2-0.5,0.3-0.7L200.2,115.7z"/>
	<path fill="#555252" d="M94.2,10.3c0.3-0.1,0.5-0.1,0.8-0.2l-5.5-5.5c-0.2,0.1-0.5,0.2-0.7,0.3L94.2,10.3z"/>
	<path fill="#555252" d="M97.2,9.5c0.3-0.1,0.5-0.1,0.8-0.2l-5.7-5.7c-0.3,0.1-0.5,0.2-0.8,0.2L97.2,9.5z"/>
	<path fill="#555252" d="M200.8,112.6c0,0.3-0.1,0.6-0.1,0.8l5.8,5.8c0.1-0.3,0.1-0.5,0.2-0.8L200.8,112.6z"/>
	<path fill="#555252" d="M100.4,9c0.3,0,0.6-0.1,0.9-0.1l-6-6.1C95,2.9,94.7,3,94.5,3L100.4,9z"/>
	<path fill="#555252" d="M201.2,109.2c0,0.3-0.1,0.6-0.1,0.9l6.1,6.1c0.1-0.3,0.1-0.5,0.2-0.8L201.2,109.2z"/>
	<path fill="#555252" d="M103.9,8.7c0.3,0,0.6,0,1,0l-6.4-6.4c-0.3,0-0.6,0.1-0.8,0.1L103.9,8.7z"/>
	<path fill="#555252" d="M201.3,105.6c0,0.2,0,0.4,0,0.7c0,0.1,0,0.2,0,0.3l6.4,6.5c0-0.3,0.1-0.6,0.1-0.9L201.3,105.6z"/>
	<path fill="#555252" d="M201,101.5c0,0.4,0.1,0.7,0.1,1.1l7,7c0-0.3,0.1-0.6,0.1-0.9L201,101.5z"/>
	<path fill="#555252" d="M107.6,8.7c0.4,0,0.7,0,1.1,0.1l-6.9-6.9c-0.3,0-0.6,0-0.9,0.1L107.6,8.7z"/>
	<path fill="#555252" d="M200.2,97c0.1,0.4,0.2,0.8,0.3,1.3l7.7,7.8c0-0.3,0-0.7,0-1L200.2,97z"/>
	<path fill="#555252" d="M111.8,9.2c0.4,0.1,0.8,0.1,1.2,0.2l-7.6-7.7c-0.3,0-0.6,0-1,0L111.8,9.2z"/>
	<path fill="#555252" d="M198.5,91.5c0.2,0.5,0.4,1,0.6,1.6l9,9c0-0.4-0.1-0.7-0.1-1.1L198.5,91.5z"/>
	<path fill="#555252" d="M116.7,10.3c0.5,0.1,0.9,0.3,1.4,0.4l-8.8-8.8c-0.4,0-0.7-0.1-1.1-0.1L116.7,10.3z"/>
	<path fill="#555252" d="M194.1,83.3c0.6,0.9,1.2,1.8,1.8,2.7l11.6,11.7c-0.1-0.4-0.1-0.8-0.2-1.2L194.1,83.3z"/>
	<path fill="#555252" d="M122.7,12.6c0.7,0.3,1.4,0.7,2,1L113.5,2.4c-0.4-0.1-0.8-0.1-1.2-0.2L122.7,12.6z"/>
	<path fill="#555252" d="M184.9,70.3c0,0.3-0.1,0.6-0.1,0.9l21.4,21.5c-0.1-0.5-0.3-1-0.4-1.4L184.9,70.3z"/>
	<path fill="#555252" d="M140,26.1c0.3,0,0.6-0.1,0.9-0.1L118.4,3.5c-0.4-0.1-0.9-0.2-1.3-0.3L140,26.1z"/>
	<path fill="#555252" d="M185.2,66.8c0,0.3,0,0.6,0,0.9L204,86.7c-0.3-0.7-0.6-1.3-0.9-1.9L185.2,66.8z"/>
	<path fill="#555252" d="M143.4,25.8c0.3,0,0.6,0,1,0L124.3,5.6c-0.6-0.2-1.1-0.5-1.7-0.7L143.4,25.8z"/>
	<path fill="#555252" d="M185.1,62.9c0,0.4,0.1,0.7,0.1,1.1l12.7,12.8c-1.8-2.2-3.8-4.4-6-6.3c0-0.2,0-0.5,0.1-0.7L185.1,62.9z"/>
	<path fill="#555252" d="M147.1,25.8c0.4,0,0.7,0,1,0.1l-15.1-15.2c-1-0.7-2-1.4-3-2.1L147.1,25.8z"/>
	<path fill="#555252" d="M151.3,26.2c0.4,0.1,0.8,0.1,1.2,0.2l-7.6-7.6c-0.3,0-0.6,0-1,0L151.3,26.2z"/>
	<path fill="#555252" d="M184.5,58.7c0.1,0.4,0.1,0.8,0.2,1.2l7.4,7.4c0-0.3,0-0.6,0-1L184.5,58.7z"/>
	<path fill="#555252" d="M183.3,53.6c0.1,0.5,0.3,0.9,0.4,1.4l8.3,8.4c0-0.3,0-0.7-0.1-1L183.3,53.6z"/>
	<path fill="#555252" d="M156,27.2c0.5,0.1,0.9,0.3,1.4,0.4l-8.7-8.7c-0.4,0-0.7-0.1-1.1-0.1L156,27.2z"/>
	<path fill="#555252" d="M180.6,47.2c0.3,0.6,0.6,1.3,0.9,1.9l10.1,10.2c-0.1-0.4-0.1-0.8-0.2-1.2L180.6,47.2z"/>
	<path fill="#555252" d="M153,19.4c-0.4-0.1-0.8-0.1-1.2-0.2l10.1,10.1c0.6,0.3,1.3,0.6,1.9,0.9L153,19.4z"/>
	<path fill="#555252" d="M157.8,20.5c-0.4-0.1-0.9-0.2-1.3-0.4l34.3,34.5c-0.1-0.4-0.2-0.9-0.4-1.3L157.8,20.5z"/>
	<path fill="#555252" d="M163.5,22.5c-0.5-0.2-1.1-0.4-1.6-0.6l27.2,27.3c-0.2-0.5-0.4-1.1-0.6-1.6L163.5,22.5z"/>
	<path fill="#555252" d="M171.8,27c-0.9-0.6-1.8-1.2-2.7-1.7l16.6,16.7c-0.5-0.9-1.1-1.8-1.7-2.7L171.8,27z"/>
</g>
</svg>
