<?xml version="1.0" encoding="utf-8"?>
<!-- Generator: Adobe Illustrator 17.1.0, SVG Export Plug-In . SVG Version: 6.00 Build 0)  -->
<!DOCTYPE svg PUBLIC "-//W3C//DTD SVG 1.1 Basic//EN" "http://www.w3.org/Graphics/SVG/1.1/DTD/svg11-basic.dtd">
<svg version="1.1" baseProfile="basic" id="Layer_1"
	 xmlns="http://www.w3.org/2000/svg" xmlns:xlink="http://www.w3.org/1999/xlink" x="0px" y="0px" viewBox="0 0 48 50"
	 xml:space="preserve">
<g>
	<g>
		<g>
			<path fill="#FFA227" d="M48,42.2c0,4.3-3.6,7.8-8,7.8H8c-4.4,0-8-3.5-8-7.8V14.2c0-4.3,3.6-7.8,8-7.8h32c4.4,0,8,3.5,8,7.8V42.2z
				"/>
			<path fill="#333E48" d="M40,7.4c3.9,0,7,3.1,7,6.9v27.9c0,3.8-3.1,6.9-7,6.9H8c-3.9,0-7-3.1-7-6.9V14.2c0-3.8,3.1-6.9,7-6.9H40
				 M40,6.4H8c-4.4,0-8,3.5-8,7.8v27.9C0,46.5,3.6,50,8,50h32c4.4,0,8-3.5,8-7.8V14.2C48,9.9,44.4,6.4,40,6.4L40,6.4z"/>
		</g>
		<g>
			<path fill="#FFC627" d="M48,35.8c0,4.3-3.6,7.8-8,7.8H8c-4.4,0-8-3.5-8-7.8V7.8C0,3.5,3.6,0,8,0h32c4.4,0,8,3.5,8,7.8V35.8z"/>
			<path fill="#333E48" d="M40,1c3.9,0,7,3.1,7,6.9v27.9c0,3.8-3.1,6.9-7,6.9H8c-3.9,0-7-3.1-7-6.9V7.8C1,4.1,4.1,1,8,1H40 M40,0H8
				C3.6,0,0,3.5,0,7.8v27.9c0,4.3,3.6,7.8,8,7.8h32c4.4,0,8-3.5,8-7.8V7.8C48,3.5,44.4,0,40,0L40,0z"/>
		</g>
	</g>
	<g>
		<g>
			<path fill="#93989E" d="M39.4,23.7c0,2.7-2.2,4.9-5,4.9l-20.8,0.1c-2.8,0-5-2.2-5-4.9l0,0c0-2.7,2.2-4.9,5-4.9h20.8
				C37.2,18.9,39.4,21,39.4,23.7L39.4,23.7z"/>
			<path fill="#333E48" d="M13.6,29.2L13.6,29.2c-3,0-5.5-2.4-5.5-5.4s2.5-5.4,5.5-5.4h20.8c3.1,0,5.5,2.3,5.5,5.3
				c0,3-2.5,5.4-5.5,5.4L13.6,29.2z M13.6,19.4c-2.5,0-4.5,2-4.5,4.4c0,2.4,2,4.4,4.5,4.4l20.8-0.1c2.5,0,4.5-2,4.5-4.4
				c0-2.4-2-4.3-4.5-4.3H13.6z"/>
		</g>
		<g>
			<path fill="#D4D5D7" d="M40,23.7L20.8,7.8c0,0-2.4,5.6,0.9,8.3l7.9,6.2"/>
			<path fill="#333E48" d="M39.6,24.1L21.1,8.6c-0.5,1.5-1.4,5.2,1,7.1l7.9,6.2l-0.6,0.8l-7.9-6.2c-3.5-3-1.1-8.7-1-8.9L20.6,7
				l19.7,16.4L39.6,24.1z"/>
		</g>
		<g>
			<path fill="#D4D5D7" d="M12.3,25.7c-1.5,0-2.7-1.2-2.7-2.6c0-1.5,1.2-2.6,2.7-2.6h23.4c1.5,0,2.7,1.2,2.7,2.6
				c0,1.5-1.2,2.6-2.7,2.6H12.3z"/>
			<path fill="#333E48" d="M35.7,26H12.3c-1.7,0-3.1-1.4-3.1-3c0-1.7,1.4-3,3.1-3h23.4c1.7,0,3.1,1.4,3.1,3
				C38.8,24.7,37.4,26,35.7,26z M12.3,20.8c-1.3,0-2.3,1-2.3,2.3c0,1.3,1,2.3,2.3,2.3h23.4c1.3,0,2.3-1,2.3-2.3c0-1.3-1-2.3-2.3-2.3
				H12.3z"/>
		</g>
		<g>
			<path fill="#FFC627" d="M42,27.2c0,2.7-2.2,4.9-5,4.9H11c-2.8,0-5-2.2-5-4.9l0,0c0-2.7,2.2-4.9,5-4.9h26
				C39.8,22.3,42,24.5,42,27.2L42,27.2z"/>
			<path fill="#333E48" d="M37,32.6H11c-3,0-5.5-2.4-5.5-5.4S8,21.8,11,21.8h26c3,0,5.5,2.4,5.5,5.4S40,32.6,37,32.6z M11,22.8
				c-2.5,0-4.5,2-4.5,4.4s2,4.4,4.5,4.4h26c2.5,0,4.5-2,4.5-4.4s-2-4.4-4.5-4.4H11z"/>
		</g>
		<path fill="#333E48" d="M26.1,14.7c0,0-0.3,0-0.7-0.2c-0.4-0.1-0.8-0.4-1.2-0.7c-0.4-0.3-0.7-0.7-0.9-1c-0.2-0.3-0.3-0.6-0.3-0.6
			s0.3,0,0.7,0.2c0.4,0.1,0.8,0.4,1.2,0.7c0.4,0.3,0.7,0.7,0.9,1C26,14.5,26.1,14.7,26.1,14.7z"/>
		<g>
			<polygon fill="#FFFFFF" points="15.2,26.4 13.9,26.4 13.9,25.1 12.4,25.1 12.4,26.4 11,26.4 11,27.9 12.4,27.9 12.4,29.2 
				13.9,29.2 13.9,27.9 15.2,27.9 			"/>
			<path fill="#333E48" d="M13.9,25.1v1.3h1.3v1.5h-1.3v1.3h-1.5v-1.3H11v-1.5h1.3v-1.3H13.9 M14.7,24.4h-0.8h-1.5h-0.8v0.7v0.6H11
				h-0.8v0.7v1.5v0.7H11h0.6v0.6V30h0.8h1.5h0.8v-0.7v-0.6h0.6H16v-0.7v-1.5v-0.7h-0.8h-0.6v-0.6V24.4L14.7,24.4z"/>
		</g>
	</g>
</g>
</svg>
