<?xml version="1.0" encoding="utf-8"?>
<!-- Generator: Adobe Illustrator 17.1.0, SVG Export Plug-In . SVG Version: 6.00 Build 0)  -->
<!DOCTYPE svg PUBLIC "-//W3C//DTD SVG 1.1 Basic//EN" "http://www.w3.org/Graphics/SVG/1.1/DTD/svg11-basic.dtd">
<svg version="1.1" baseProfile="basic" id="Layer_1"
	 xmlns="http://www.w3.org/2000/svg" xmlns:xlink="http://www.w3.org/1999/xlink" x="0px" y="0px" viewBox="0 0 48 50"
	 xml:space="preserve">
<g>
	<g>
		<g>
			<path fill="#FFA227" d="M48,42.2c0,4.3-3.6,7.8-8,7.8H8c-4.4,0-8-3.5-8-7.8V14.2c0-4.3,3.6-7.8,8-7.8h32c4.4,0,8,3.5,8,7.8V42.2z
				"/>
			<path fill="#333E48" d="M40,7.4c3.9,0,7,3.1,7,6.9v27.9c0,3.8-3.1,6.9-7,6.9H8c-3.9,0-7-3.1-7-6.9V14.2c0-3.8,3.1-6.9,7-6.9H40
				 M40,6.4H8c-4.4,0-8,3.5-8,7.8v27.9C0,46.5,3.6,50,8,50h32c4.4,0,8-3.5,8-7.8V14.2C48,9.9,44.4,6.4,40,6.4L40,6.4z"/>
		</g>
		<g>
			<path fill="#FFC627" d="M48,35.8c0,4.3-3.6,7.8-8,7.8H8c-4.4,0-8-3.5-8-7.8V7.8C0,3.5,3.6,0,8,0h32c4.4,0,8,3.5,8,7.8V35.8z"/>
			<path fill="#333E48" d="M40,1c3.9,0,7,3.1,7,6.9v27.9c0,3.8-3.1,6.9-7,6.9H8c-3.9,0-7-3.1-7-6.9V7.8C1,4.1,4.1,1,8,1H40 M40,0H8
				C3.6,0,0,3.5,0,7.8v27.9c0,4.3,3.6,7.8,8,7.8h32c4.4,0,8-3.5,8-7.8V7.8C48,3.5,44.4,0,40,0L40,0z"/>
		</g>
	</g>
	<g>
		<g>
			<polygon fill="#FFFFFF" points="15.1,20.1 13.3,20.1 13.3,21.8 13.3,23.5 15.1,23.5 16.8,23.5 16.8,21.8 16.8,20.1 			"/>
			<path fill="#333E48" d="M17.3,24h-4.5v-4.4h4.5V24z M13.8,23.1h2.5v-2.5h-2.5V23.1z"/>
		</g>
		<g>
			<polygon fill="#FFFFFF" points="7.6,20.1 5.8,20.1 5.8,21.8 5.8,23.5 7.6,23.5 9.4,23.5 9.4,21.8 9.4,20.1 			"/>
			<path fill="#333E48" d="M9.9,24H5.3v-4.4h4.5V24z M6.3,23.1h2.5v-2.5H6.3V23.1z"/>
		</g>
		<g>
			<polygon fill="#FFE6C0" points="40.4,17.5 40.4,15.7 40.4,14 38.6,14 38.6,12.3 36.9,12.3 35.1,12.3 35.1,10.5 33.3,10.5 
				31.5,10.5 29.8,10.5 28,10.5 26.2,10.5 26.2,12.3 24.5,12.3 22.7,12.3 22.7,14 20.9,14 20.9,15.7 20.9,17.5 22.7,17.5 24.5,17.5 
				24.5,19.2 26.2,19.2 28,19.2 29.8,19.2 29.8,20.9 31.5,20.9 33.3,20.9 33.3,22.7 31.5,22.7 29.8,22.7 29.8,24.4 28,24.4 
				26.2,24.4 24.5,24.4 24.5,26.1 22.7,26.1 20.9,26.1 20.9,27.9 20.9,29.6 22.7,29.6 22.7,31.4 24.5,31.4 26.2,31.4 26.2,33.1 
				28,33.1 29.8,33.1 31.5,33.1 33.3,33.1 35.1,33.1 35.1,31.4 36.9,31.4 38.6,31.4 38.6,29.6 40.4,29.6 40.4,27.9 40.4,26.1 
				42.2,26.1 42.2,24.4 42.2,22.7 42.2,20.9 42.2,19.2 42.2,17.5 			"/>
			<path fill="#333E48" d="M35.6,33.6h-9.8v-1.7h-3.5v-1.7h-1.8v-4.4H24v-1.7h5.3v-1.7h3.5v-0.8h-3.5v-1.7H24V18h-3.5v-4.4h1.8v-1.7
				h3.5v-1.7h9.8v1.7h3.5v1.7h1.8V17h1.8v9.7h-1.8v3.5h-1.8v1.7h-3.5V33.6z M26.7,32.6h7.8v-1.7h3.5v-1.7h1.8v-3.5h1.8V18h-1.8v-3.5
				h-1.8v-1.7h-3.5V11h-7.8v1.7h-3.5v1.7h-1.8V17H25v1.7h5.3v1.7h3.5v2.7h-3.5v1.7H25v1.7h-3.5v2.5h1.8v1.7h3.5V32.6z"/>
		</g>
	</g>
</g>
</svg>
